%TF.GenerationSoftware,KiCad,Pcbnew,(7.0.0)*%
%TF.CreationDate,2023-06-01T09:50:49-06:00*%
%TF.ProjectId,Final_Project,46696e61-6c5f-4507-926f-6a6563742e6b,rev?*%
%TF.SameCoordinates,Original*%
%TF.FileFunction,Copper,L2,Bot*%
%TF.FilePolarity,Positive*%
%FSLAX46Y46*%
G04 Gerber Fmt 4.6, Leading zero omitted, Abs format (unit mm)*
G04 Created by KiCad (PCBNEW (7.0.0)) date 2023-06-01 09:50:49*
%MOMM*%
%LPD*%
G01*
G04 APERTURE LIST*
%TA.AperFunction,ComponentPad*%
%ADD10R,1.700000X1.700000*%
%TD*%
%TA.AperFunction,ComponentPad*%
%ADD11O,1.700000X1.700000*%
%TD*%
%TA.AperFunction,ComponentPad*%
%ADD12R,1.800000X1.800000*%
%TD*%
%TA.AperFunction,ComponentPad*%
%ADD13C,1.800000*%
%TD*%
%TA.AperFunction,ComponentPad*%
%ADD14C,2.340000*%
%TD*%
%TA.AperFunction,ViaPad*%
%ADD15C,0.800000*%
%TD*%
%TA.AperFunction,Conductor*%
%ADD16C,0.500000*%
%TD*%
%TA.AperFunction,Conductor*%
%ADD17C,0.250000*%
%TD*%
G04 APERTURE END LIST*
D10*
%TO.P,J2,1,Pin_1*%
%TO.N,unconnected-(J2-Pin_1-Pad1)*%
X86334599Y-29184599D03*
D11*
%TO.P,J2,2,Pin_2*%
%TO.N,GND*%
X83794599Y-29184599D03*
%TO.P,J2,3,Pin_3*%
%TO.N,unconnected-(J2-Pin_3-Pad3)*%
X86334599Y-31724599D03*
%TO.P,J2,4,Pin_4*%
%TO.N,+5V*%
X83794599Y-31724599D03*
%TO.P,J2,5,Pin_5*%
%TO.N,unconnected-(J2-Pin_5-Pad5)*%
X86334599Y-34264599D03*
%TO.P,J2,6,Pin_6*%
%TO.N,unconnected-(J2-Pin_6-Pad6)*%
X83794599Y-34264599D03*
%TO.P,J2,7,Pin_7*%
%TO.N,unconnected-(J2-Pin_7-Pad7)*%
X86334599Y-36804599D03*
%TO.P,J2,8,Pin_8*%
%TO.N,unconnected-(J2-Pin_8-Pad8)*%
X83794599Y-36804599D03*
%TO.P,J2,9,Pin_9*%
%TO.N,unconnected-(J2-Pin_9-Pad9)*%
X86334599Y-39344599D03*
%TO.P,J2,10,Pin_10*%
%TO.N,unconnected-(J2-Pin_10-Pad10)*%
X83794599Y-39344599D03*
%TO.P,J2,11,Pin_11*%
%TO.N,unconnected-(J2-Pin_11-Pad11)*%
X86334599Y-41884599D03*
%TO.P,J2,12,Pin_12*%
%TO.N,unconnected-(J2-Pin_12-Pad12)*%
X83794599Y-41884599D03*
%TO.P,J2,13,Pin_13*%
%TO.N,unconnected-(J2-Pin_13-Pad13)*%
X86334599Y-44424599D03*
%TO.P,J2,14,Pin_14*%
%TO.N,unconnected-(J2-Pin_14-Pad14)*%
X83794599Y-44424599D03*
%TO.P,J2,15,Pin_15*%
%TO.N,unconnected-(J2-Pin_15-Pad15)*%
X86334599Y-46964599D03*
%TO.P,J2,16,Pin_16*%
%TO.N,unconnected-(J2-Pin_16-Pad16)*%
X83794599Y-46964599D03*
%TO.P,J2,17,Pin_17*%
%TO.N,unconnected-(J2-Pin_17-Pad17)*%
X86334599Y-49504599D03*
%TO.P,J2,18,Pin_18*%
%TO.N,unconnected-(J2-Pin_18-Pad18)*%
X83794599Y-49504599D03*
%TO.P,J2,19,Pin_19*%
%TO.N,unconnected-(J2-Pin_19-Pad19)*%
X86334599Y-52044599D03*
%TO.P,J2,20,Pin_20*%
%TO.N,unconnected-(J2-Pin_20-Pad20)*%
X83794599Y-52044599D03*
%TO.P,J2,21,Pin_21*%
%TO.N,unconnected-(J2-Pin_21-Pad21)*%
X86334599Y-54584599D03*
%TO.P,J2,22,Pin_22*%
%TO.N,unconnected-(J2-Pin_22-Pad22)*%
X83794599Y-54584599D03*
%TO.P,J2,23,Pin_23*%
%TO.N,unconnected-(J2-Pin_23-Pad23)*%
X86334599Y-57124599D03*
%TO.P,J2,24,Pin_24*%
%TO.N,unconnected-(J2-Pin_24-Pad24)*%
X83794599Y-57124599D03*
%TO.P,J2,25,Pin_25*%
%TO.N,unconnected-(J2-Pin_25-Pad25)*%
X86334599Y-59664599D03*
%TO.P,J2,26,Pin_26*%
%TO.N,unconnected-(J2-Pin_26-Pad26)*%
X83794599Y-59664599D03*
%TO.P,J2,27,Pin_27*%
%TO.N,unconnected-(J2-Pin_27-Pad27)*%
X86334599Y-62204599D03*
%TO.P,J2,28,Pin_28*%
%TO.N,unconnected-(J2-Pin_28-Pad28)*%
X83794599Y-62204599D03*
%TO.P,J2,29,Pin_29*%
%TO.N,unconnected-(J2-Pin_29-Pad29)*%
X86334599Y-64744599D03*
%TO.P,J2,30,Pin_30*%
%TO.N,unconnected-(J2-Pin_30-Pad30)*%
X83794599Y-64744599D03*
%TO.P,J2,31,Pin_31*%
%TO.N,unconnected-(J2-Pin_31-Pad31)*%
X86334599Y-67284599D03*
%TO.P,J2,32,Pin_32*%
%TO.N,unconnected-(J2-Pin_32-Pad32)*%
X83794599Y-67284599D03*
%TO.P,J2,33,Pin_33*%
%TO.N,unconnected-(J2-Pin_33-Pad33)*%
X86334599Y-69824599D03*
%TO.P,J2,34,Pin_34*%
%TO.N,unconnected-(J2-Pin_34-Pad34)*%
X83794599Y-69824599D03*
%TO.P,J2,35,Pin_35*%
%TO.N,unconnected-(J2-Pin_35-Pad35)*%
X86334599Y-72364599D03*
%TO.P,J2,36,Pin_36*%
%TO.N,unconnected-(J2-Pin_36-Pad36)*%
X83794599Y-72364599D03*
%TO.P,J2,37,Pin_37*%
%TO.N,unconnected-(J2-Pin_37-Pad37)*%
X86334599Y-74904599D03*
%TO.P,J2,38,Pin_38*%
%TO.N,unconnected-(J2-Pin_38-Pad38)*%
X83794599Y-74904599D03*
%TO.P,J2,39,Pin_39*%
%TO.N,unconnected-(J2-Pin_39-Pad39)*%
X86334599Y-77444599D03*
%TO.P,J2,40,Pin_40*%
%TO.N,unconnected-(J2-Pin_40-Pad40)*%
X83794599Y-77444599D03*
%TO.P,J2,41,Pin_41*%
%TO.N,unconnected-(J2-Pin_41-Pad41)*%
X86334599Y-79984599D03*
%TO.P,J2,42,Pin_42*%
%TO.N,unconnected-(J2-Pin_42-Pad42)*%
X83794599Y-79984599D03*
%TO.P,J2,43,Pin_43*%
%TO.N,unconnected-(J2-Pin_43-Pad43)*%
X86334599Y-82524599D03*
%TO.P,J2,44,Pin_44*%
%TO.N,unconnected-(J2-Pin_44-Pad44)*%
X83794599Y-82524599D03*
%TO.P,J2,45,Pin_45*%
%TO.N,unconnected-(J2-Pin_45-Pad45)*%
X86334599Y-85064599D03*
%TO.P,J2,46,Pin_46*%
%TO.N,unconnected-(J2-Pin_46-Pad46)*%
X83794599Y-85064599D03*
%TO.P,J2,47,Pin_47*%
%TO.N,unconnected-(J2-Pin_47-Pad47)*%
X86334599Y-87604599D03*
%TO.P,J2,48,Pin_48*%
%TO.N,unconnected-(J2-Pin_48-Pad48)*%
X83794599Y-87604599D03*
%TO.P,J2,49,Pin_49*%
%TO.N,unconnected-(J2-Pin_49-Pad49)*%
X86334599Y-90144599D03*
%TO.P,J2,50,Pin_50*%
%TO.N,unconnected-(J2-Pin_50-Pad50)*%
X83794599Y-90144599D03*
%TD*%
D12*
%TO.P,D4,1,K*%
%TO.N,GND*%
X72441999Y-33013399D03*
D13*
%TO.P,D4,2,A*%
%TO.N,Net-(D4-A)*%
X69902000Y-33013400D03*
%TD*%
D10*
%TO.P,J4,1,Pin_1*%
%TO.N,GND*%
X69947799Y-72963399D03*
D11*
%TO.P,J4,2,Pin_2*%
%TO.N,+5V*%
X69947799Y-75503399D03*
%TO.P,J4,3,Pin_3*%
%TO.N,Servo_Motor*%
X69947799Y-78043399D03*
%TD*%
D14*
%TO.P,RV1,1,1*%
%TO.N,VDD*%
X67640200Y-48641000D03*
%TO.P,RV1,2,2*%
%TO.N,Net-(U1-+)*%
X77640200Y-46141000D03*
%TO.P,RV1,3,3*%
%TO.N,GND*%
X67640200Y-43641000D03*
%TD*%
D12*
%TO.P,D2,1,K*%
%TO.N,Net-(D2-K)*%
X63907599Y-32962599D03*
D13*
%TO.P,D2,2,A*%
%TO.N,GND*%
X61367600Y-32962600D03*
%TD*%
D10*
%TO.P,J1,1,Pin_1*%
%TO.N,GND*%
X37181799Y-28894399D03*
D11*
%TO.P,J1,2,Pin_2*%
%TO.N,unconnected-(J1-Pin_2-Pad2)*%
X34641799Y-28894399D03*
%TO.P,J1,3,Pin_3*%
%TO.N,VDD*%
X37181799Y-31434399D03*
%TO.P,J1,4,Pin_4*%
%TO.N,unconnected-(J1-Pin_4-Pad4)*%
X34641799Y-31434399D03*
%TO.P,J1,5,Pin_5*%
%TO.N,unconnected-(J1-Pin_5-Pad5)*%
X37181799Y-33974399D03*
%TO.P,J1,6,Pin_6*%
%TO.N,unconnected-(J1-Pin_6-Pad6)*%
X34641799Y-33974399D03*
%TO.P,J1,7,Pin_7*%
%TO.N,Servo_Motor*%
X37181799Y-36514399D03*
%TO.P,J1,8,Pin_8*%
%TO.N,unconnected-(J1-Pin_8-Pad8)*%
X34641799Y-36514399D03*
%TO.P,J1,9,Pin_9*%
%TO.N,unconnected-(J1-Pin_9-Pad9)*%
X37181799Y-39054399D03*
%TO.P,J1,10,Pin_10*%
%TO.N,unconnected-(J1-Pin_10-Pad10)*%
X34641799Y-39054399D03*
%TO.P,J1,11,Pin_11*%
%TO.N,IR_Sensor*%
X37181799Y-41594399D03*
%TO.P,J1,12,Pin_12*%
%TO.N,unconnected-(J1-Pin_12-Pad12)*%
X34641799Y-41594399D03*
%TO.P,J1,13,Pin_13*%
%TO.N,unconnected-(J1-Pin_13-Pad13)*%
X37181799Y-44134399D03*
%TO.P,J1,14,Pin_14*%
%TO.N,unconnected-(J1-Pin_14-Pad14)*%
X34641799Y-44134399D03*
%TO.P,J1,15,Pin_15*%
%TO.N,unconnected-(J1-Pin_15-Pad15)*%
X37181799Y-46674399D03*
%TO.P,J1,16,Pin_16*%
%TO.N,unconnected-(J1-Pin_16-Pad16)*%
X34641799Y-46674399D03*
%TO.P,J1,17,Pin_17*%
%TO.N,unconnected-(J1-Pin_17-Pad17)*%
X37181799Y-49214399D03*
%TO.P,J1,18,Pin_18*%
%TO.N,unconnected-(J1-Pin_18-Pad18)*%
X34641799Y-49214399D03*
%TO.P,J1,19,Pin_19*%
%TO.N,unconnected-(J1-Pin_19-Pad19)*%
X37181799Y-51754399D03*
%TO.P,J1,20,Pin_20*%
%TO.N,unconnected-(J1-Pin_20-Pad20)*%
X34641799Y-51754399D03*
%TO.P,J1,21,Pin_21*%
%TO.N,unconnected-(J1-Pin_21-Pad21)*%
X37181799Y-54294399D03*
%TO.P,J1,22,Pin_22*%
%TO.N,unconnected-(J1-Pin_22-Pad22)*%
X34641799Y-54294399D03*
%TO.P,J1,23,Pin_23*%
%TO.N,unconnected-(J1-Pin_23-Pad23)*%
X37181799Y-56834399D03*
%TO.P,J1,24,Pin_24*%
%TO.N,unconnected-(J1-Pin_24-Pad24)*%
X34641799Y-56834399D03*
%TO.P,J1,25,Pin_25*%
%TO.N,unconnected-(J1-Pin_25-Pad25)*%
X37181799Y-59374399D03*
%TO.P,J1,26,Pin_26*%
%TO.N,unconnected-(J1-Pin_26-Pad26)*%
X34641799Y-59374399D03*
%TO.P,J1,27,Pin_27*%
%TO.N,unconnected-(J1-Pin_27-Pad27)*%
X37181799Y-61914399D03*
%TO.P,J1,28,Pin_28*%
%TO.N,unconnected-(J1-Pin_28-Pad28)*%
X34641799Y-61914399D03*
%TO.P,J1,29,Pin_29*%
%TO.N,unconnected-(J1-Pin_29-Pad29)*%
X37181799Y-64454399D03*
%TO.P,J1,30,Pin_30*%
%TO.N,unconnected-(J1-Pin_30-Pad30)*%
X34641799Y-64454399D03*
%TO.P,J1,31,Pin_31*%
%TO.N,unconnected-(J1-Pin_31-Pad31)*%
X37181799Y-66994399D03*
%TO.P,J1,32,Pin_32*%
%TO.N,unconnected-(J1-Pin_32-Pad32)*%
X34641799Y-66994399D03*
%TO.P,J1,33,Pin_33*%
%TO.N,unconnected-(J1-Pin_33-Pad33)*%
X37181799Y-69534399D03*
%TO.P,J1,34,Pin_34*%
%TO.N,unconnected-(J1-Pin_34-Pad34)*%
X34641799Y-69534399D03*
%TO.P,J1,35,Pin_35*%
%TO.N,unconnected-(J1-Pin_35-Pad35)*%
X37181799Y-72074399D03*
%TO.P,J1,36,Pin_36*%
%TO.N,unconnected-(J1-Pin_36-Pad36)*%
X34641799Y-72074399D03*
%TO.P,J1,37,Pin_37*%
%TO.N,unconnected-(J1-Pin_37-Pad37)*%
X37181799Y-74614399D03*
%TO.P,J1,38,Pin_38*%
%TO.N,unconnected-(J1-Pin_38-Pad38)*%
X34641799Y-74614399D03*
%TO.P,J1,39,Pin_39*%
%TO.N,unconnected-(J1-Pin_39-Pad39)*%
X37181799Y-77154399D03*
%TO.P,J1,40,Pin_40*%
%TO.N,unconnected-(J1-Pin_40-Pad40)*%
X34641799Y-77154399D03*
%TO.P,J1,41,Pin_41*%
%TO.N,unconnected-(J1-Pin_41-Pad41)*%
X37181799Y-79694399D03*
%TO.P,J1,42,Pin_42*%
%TO.N,unconnected-(J1-Pin_42-Pad42)*%
X34641799Y-79694399D03*
%TO.P,J1,43,Pin_43*%
%TO.N,unconnected-(J1-Pin_43-Pad43)*%
X37181799Y-82234399D03*
%TO.P,J1,44,Pin_44*%
%TO.N,unconnected-(J1-Pin_44-Pad44)*%
X34641799Y-82234399D03*
%TO.P,J1,45,Pin_45*%
%TO.N,unconnected-(J1-Pin_45-Pad45)*%
X37181799Y-84774399D03*
%TO.P,J1,46,Pin_46*%
%TO.N,unconnected-(J1-Pin_46-Pad46)*%
X34641799Y-84774399D03*
%TO.P,J1,47,Pin_47*%
%TO.N,unconnected-(J1-Pin_47-Pad47)*%
X37181799Y-87314399D03*
%TO.P,J1,48,Pin_48*%
%TO.N,unconnected-(J1-Pin_48-Pad48)*%
X34641799Y-87314399D03*
%TO.P,J1,49,Pin_49*%
%TO.N,unconnected-(J1-Pin_49-Pad49)*%
X37181799Y-89854399D03*
%TO.P,J1,50,Pin_50*%
%TO.N,unconnected-(J1-Pin_50-Pad50)*%
X34641799Y-89854399D03*
%TD*%
D15*
%TO.N,GND*%
X63902600Y-47207800D03*
X65604400Y-45099600D03*
%TO.N,Net-(U1-+)*%
X62404000Y-40527600D03*
X60346600Y-40527600D03*
%TO.N,VDD*%
X57222400Y-36743000D03*
X59914800Y-35650800D03*
%TD*%
D16*
%TO.N,GND*%
X63902600Y-46801400D02*
X65604400Y-45099600D01*
X63902600Y-47207800D02*
X63902600Y-46801400D01*
D17*
%TO.N,Net-(U1-+)*%
X60041800Y-40527600D02*
X60346600Y-40527600D01*
X62404000Y-40527600D02*
X60346600Y-40527600D01*
%TO.N,VDD*%
X57222400Y-36743000D02*
X58822600Y-36743000D01*
X58822600Y-36743000D02*
X59914800Y-35650800D01*
%TD*%
M02*
