%TF.GenerationSoftware,KiCad,Pcbnew,(7.0.0)*%
%TF.CreationDate,2023-06-01T09:50:49-06:00*%
%TF.ProjectId,Final_Project,46696e61-6c5f-4507-926f-6a6563742e6b,rev?*%
%TF.SameCoordinates,Original*%
%TF.FileFunction,Legend,Top*%
%TF.FilePolarity,Positive*%
%FSLAX46Y46*%
G04 Gerber Fmt 4.6, Leading zero omitted, Abs format (unit mm)*
G04 Created by KiCad (PCBNEW (7.0.0)) date 2023-06-01 09:50:49*
%MOMM*%
%LPD*%
G01*
G04 APERTURE LIST*
%ADD10C,0.150000*%
%ADD11C,0.120000*%
G04 APERTURE END LIST*
D10*
%TO.C,R2*%
X60816833Y-36526780D02*
X60483500Y-36050590D01*
X60245405Y-36526780D02*
X60245405Y-35526780D01*
X60245405Y-35526780D02*
X60626357Y-35526780D01*
X60626357Y-35526780D02*
X60721595Y-35574400D01*
X60721595Y-35574400D02*
X60769214Y-35622019D01*
X60769214Y-35622019D02*
X60816833Y-35717257D01*
X60816833Y-35717257D02*
X60816833Y-35860114D01*
X60816833Y-35860114D02*
X60769214Y-35955352D01*
X60769214Y-35955352D02*
X60721595Y-36002971D01*
X60721595Y-36002971D02*
X60626357Y-36050590D01*
X60626357Y-36050590D02*
X60245405Y-36050590D01*
X61197786Y-35622019D02*
X61245405Y-35574400D01*
X61245405Y-35574400D02*
X61340643Y-35526780D01*
X61340643Y-35526780D02*
X61578738Y-35526780D01*
X61578738Y-35526780D02*
X61673976Y-35574400D01*
X61673976Y-35574400D02*
X61721595Y-35622019D01*
X61721595Y-35622019D02*
X61769214Y-35717257D01*
X61769214Y-35717257D02*
X61769214Y-35812495D01*
X61769214Y-35812495D02*
X61721595Y-35955352D01*
X61721595Y-35955352D02*
X61150167Y-36526780D01*
X61150167Y-36526780D02*
X61769214Y-36526780D01*
%TO.C,J2*%
X84731266Y-25781980D02*
X84731266Y-26496266D01*
X84731266Y-26496266D02*
X84683647Y-26639123D01*
X84683647Y-26639123D02*
X84588409Y-26734361D01*
X84588409Y-26734361D02*
X84445552Y-26781980D01*
X84445552Y-26781980D02*
X84350314Y-26781980D01*
X85159838Y-25877219D02*
X85207457Y-25829600D01*
X85207457Y-25829600D02*
X85302695Y-25781980D01*
X85302695Y-25781980D02*
X85540790Y-25781980D01*
X85540790Y-25781980D02*
X85636028Y-25829600D01*
X85636028Y-25829600D02*
X85683647Y-25877219D01*
X85683647Y-25877219D02*
X85731266Y-25972457D01*
X85731266Y-25972457D02*
X85731266Y-26067695D01*
X85731266Y-26067695D02*
X85683647Y-26210552D01*
X85683647Y-26210552D02*
X85112219Y-26781980D01*
X85112219Y-26781980D02*
X85731266Y-26781980D01*
%TO.C,D4*%
X70433905Y-35340780D02*
X70433905Y-34340780D01*
X70433905Y-34340780D02*
X70672000Y-34340780D01*
X70672000Y-34340780D02*
X70814857Y-34388400D01*
X70814857Y-34388400D02*
X70910095Y-34483638D01*
X70910095Y-34483638D02*
X70957714Y-34578876D01*
X70957714Y-34578876D02*
X71005333Y-34769352D01*
X71005333Y-34769352D02*
X71005333Y-34912209D01*
X71005333Y-34912209D02*
X70957714Y-35102685D01*
X70957714Y-35102685D02*
X70910095Y-35197923D01*
X70910095Y-35197923D02*
X70814857Y-35293161D01*
X70814857Y-35293161D02*
X70672000Y-35340780D01*
X70672000Y-35340780D02*
X70433905Y-35340780D01*
X71862476Y-34674114D02*
X71862476Y-35340780D01*
X71624381Y-34293161D02*
X71386286Y-35007447D01*
X71386286Y-35007447D02*
X72005333Y-35007447D01*
%TO.C,J4*%
X69614466Y-69560780D02*
X69614466Y-70275066D01*
X69614466Y-70275066D02*
X69566847Y-70417923D01*
X69566847Y-70417923D02*
X69471609Y-70513161D01*
X69471609Y-70513161D02*
X69328752Y-70560780D01*
X69328752Y-70560780D02*
X69233514Y-70560780D01*
X70519228Y-69894114D02*
X70519228Y-70560780D01*
X70281133Y-69513161D02*
X70043038Y-70227447D01*
X70043038Y-70227447D02*
X70662085Y-70227447D01*
%TO.C,R3*%
X68993733Y-54611580D02*
X68660400Y-54135390D01*
X68422305Y-54611580D02*
X68422305Y-53611580D01*
X68422305Y-53611580D02*
X68803257Y-53611580D01*
X68803257Y-53611580D02*
X68898495Y-53659200D01*
X68898495Y-53659200D02*
X68946114Y-53706819D01*
X68946114Y-53706819D02*
X68993733Y-53802057D01*
X68993733Y-53802057D02*
X68993733Y-53944914D01*
X68993733Y-53944914D02*
X68946114Y-54040152D01*
X68946114Y-54040152D02*
X68898495Y-54087771D01*
X68898495Y-54087771D02*
X68803257Y-54135390D01*
X68803257Y-54135390D02*
X68422305Y-54135390D01*
X69327067Y-53611580D02*
X69946114Y-53611580D01*
X69946114Y-53611580D02*
X69612781Y-53992533D01*
X69612781Y-53992533D02*
X69755638Y-53992533D01*
X69755638Y-53992533D02*
X69850876Y-54040152D01*
X69850876Y-54040152D02*
X69898495Y-54087771D01*
X69898495Y-54087771D02*
X69946114Y-54183009D01*
X69946114Y-54183009D02*
X69946114Y-54421104D01*
X69946114Y-54421104D02*
X69898495Y-54516342D01*
X69898495Y-54516342D02*
X69850876Y-54563961D01*
X69850876Y-54563961D02*
X69755638Y-54611580D01*
X69755638Y-54611580D02*
X69469924Y-54611580D01*
X69469924Y-54611580D02*
X69374686Y-54563961D01*
X69374686Y-54563961D02*
X69327067Y-54516342D01*
%TO.C,R4*%
X60306933Y-52759280D02*
X59973600Y-52283090D01*
X59735505Y-52759280D02*
X59735505Y-51759280D01*
X59735505Y-51759280D02*
X60116457Y-51759280D01*
X60116457Y-51759280D02*
X60211695Y-51806900D01*
X60211695Y-51806900D02*
X60259314Y-51854519D01*
X60259314Y-51854519D02*
X60306933Y-51949757D01*
X60306933Y-51949757D02*
X60306933Y-52092614D01*
X60306933Y-52092614D02*
X60259314Y-52187852D01*
X60259314Y-52187852D02*
X60211695Y-52235471D01*
X60211695Y-52235471D02*
X60116457Y-52283090D01*
X60116457Y-52283090D02*
X59735505Y-52283090D01*
X61164076Y-52092614D02*
X61164076Y-52759280D01*
X60925981Y-51711661D02*
X60687886Y-52425947D01*
X60687886Y-52425947D02*
X61306933Y-52425947D01*
%TO.C,RV1*%
X72044961Y-40358380D02*
X71711628Y-39882190D01*
X71473533Y-40358380D02*
X71473533Y-39358380D01*
X71473533Y-39358380D02*
X71854485Y-39358380D01*
X71854485Y-39358380D02*
X71949723Y-39406000D01*
X71949723Y-39406000D02*
X71997342Y-39453619D01*
X71997342Y-39453619D02*
X72044961Y-39548857D01*
X72044961Y-39548857D02*
X72044961Y-39691714D01*
X72044961Y-39691714D02*
X71997342Y-39786952D01*
X71997342Y-39786952D02*
X71949723Y-39834571D01*
X71949723Y-39834571D02*
X71854485Y-39882190D01*
X71854485Y-39882190D02*
X71473533Y-39882190D01*
X72330676Y-39358380D02*
X72664009Y-40358380D01*
X72664009Y-40358380D02*
X72997342Y-39358380D01*
X73854485Y-40358380D02*
X73283057Y-40358380D01*
X73568771Y-40358380D02*
X73568771Y-39358380D01*
X73568771Y-39358380D02*
X73473533Y-39501238D01*
X73473533Y-39501238D02*
X73378295Y-39596476D01*
X73378295Y-39596476D02*
X73283057Y-39644095D01*
%TO.C,D3*%
X73823505Y-62077180D02*
X73823505Y-61077180D01*
X73823505Y-61077180D02*
X74061600Y-61077180D01*
X74061600Y-61077180D02*
X74204457Y-61124800D01*
X74204457Y-61124800D02*
X74299695Y-61220038D01*
X74299695Y-61220038D02*
X74347314Y-61315276D01*
X74347314Y-61315276D02*
X74394933Y-61505752D01*
X74394933Y-61505752D02*
X74394933Y-61648609D01*
X74394933Y-61648609D02*
X74347314Y-61839085D01*
X74347314Y-61839085D02*
X74299695Y-61934323D01*
X74299695Y-61934323D02*
X74204457Y-62029561D01*
X74204457Y-62029561D02*
X74061600Y-62077180D01*
X74061600Y-62077180D02*
X73823505Y-62077180D01*
X74728267Y-61077180D02*
X75347314Y-61077180D01*
X75347314Y-61077180D02*
X75013981Y-61458133D01*
X75013981Y-61458133D02*
X75156838Y-61458133D01*
X75156838Y-61458133D02*
X75252076Y-61505752D01*
X75252076Y-61505752D02*
X75299695Y-61553371D01*
X75299695Y-61553371D02*
X75347314Y-61648609D01*
X75347314Y-61648609D02*
X75347314Y-61886704D01*
X75347314Y-61886704D02*
X75299695Y-61981942D01*
X75299695Y-61981942D02*
X75252076Y-62029561D01*
X75252076Y-62029561D02*
X75156838Y-62077180D01*
X75156838Y-62077180D02*
X74871124Y-62077180D01*
X74871124Y-62077180D02*
X74775886Y-62029561D01*
X74775886Y-62029561D02*
X74728267Y-61981942D01*
%TO.C,D2*%
X61899505Y-35289980D02*
X61899505Y-34289980D01*
X61899505Y-34289980D02*
X62137600Y-34289980D01*
X62137600Y-34289980D02*
X62280457Y-34337600D01*
X62280457Y-34337600D02*
X62375695Y-34432838D01*
X62375695Y-34432838D02*
X62423314Y-34528076D01*
X62423314Y-34528076D02*
X62470933Y-34718552D01*
X62470933Y-34718552D02*
X62470933Y-34861409D01*
X62470933Y-34861409D02*
X62423314Y-35051885D01*
X62423314Y-35051885D02*
X62375695Y-35147123D01*
X62375695Y-35147123D02*
X62280457Y-35242361D01*
X62280457Y-35242361D02*
X62137600Y-35289980D01*
X62137600Y-35289980D02*
X61899505Y-35289980D01*
X62851886Y-34385219D02*
X62899505Y-34337600D01*
X62899505Y-34337600D02*
X62994743Y-34289980D01*
X62994743Y-34289980D02*
X63232838Y-34289980D01*
X63232838Y-34289980D02*
X63328076Y-34337600D01*
X63328076Y-34337600D02*
X63375695Y-34385219D01*
X63375695Y-34385219D02*
X63423314Y-34480457D01*
X63423314Y-34480457D02*
X63423314Y-34575695D01*
X63423314Y-34575695D02*
X63375695Y-34718552D01*
X63375695Y-34718552D02*
X62804267Y-35289980D01*
X62804267Y-35289980D02*
X63423314Y-35289980D01*
%TO.C,D1*%
X63130105Y-60680180D02*
X63130105Y-59680180D01*
X63130105Y-59680180D02*
X63368200Y-59680180D01*
X63368200Y-59680180D02*
X63511057Y-59727800D01*
X63511057Y-59727800D02*
X63606295Y-59823038D01*
X63606295Y-59823038D02*
X63653914Y-59918276D01*
X63653914Y-59918276D02*
X63701533Y-60108752D01*
X63701533Y-60108752D02*
X63701533Y-60251609D01*
X63701533Y-60251609D02*
X63653914Y-60442085D01*
X63653914Y-60442085D02*
X63606295Y-60537323D01*
X63606295Y-60537323D02*
X63511057Y-60632561D01*
X63511057Y-60632561D02*
X63368200Y-60680180D01*
X63368200Y-60680180D02*
X63130105Y-60680180D01*
X64653914Y-60680180D02*
X64082486Y-60680180D01*
X64368200Y-60680180D02*
X64368200Y-59680180D01*
X64368200Y-59680180D02*
X64272962Y-59823038D01*
X64272962Y-59823038D02*
X64177724Y-59918276D01*
X64177724Y-59918276D02*
X64082486Y-59965895D01*
%TO.C,R1*%
X68005033Y-36247380D02*
X67671700Y-35771190D01*
X67433605Y-36247380D02*
X67433605Y-35247380D01*
X67433605Y-35247380D02*
X67814557Y-35247380D01*
X67814557Y-35247380D02*
X67909795Y-35295000D01*
X67909795Y-35295000D02*
X67957414Y-35342619D01*
X67957414Y-35342619D02*
X68005033Y-35437857D01*
X68005033Y-35437857D02*
X68005033Y-35580714D01*
X68005033Y-35580714D02*
X67957414Y-35675952D01*
X67957414Y-35675952D02*
X67909795Y-35723571D01*
X67909795Y-35723571D02*
X67814557Y-35771190D01*
X67814557Y-35771190D02*
X67433605Y-35771190D01*
X68957414Y-36247380D02*
X68385986Y-36247380D01*
X68671700Y-36247380D02*
X68671700Y-35247380D01*
X68671700Y-35247380D02*
X68576462Y-35390238D01*
X68576462Y-35390238D02*
X68481224Y-35485476D01*
X68481224Y-35485476D02*
X68385986Y-35533095D01*
%TO.C,U1*%
X63266380Y-46318304D02*
X64075904Y-46318304D01*
X64075904Y-46318304D02*
X64171142Y-46270685D01*
X64171142Y-46270685D02*
X64218761Y-46223066D01*
X64218761Y-46223066D02*
X64266380Y-46127828D01*
X64266380Y-46127828D02*
X64266380Y-45937352D01*
X64266380Y-45937352D02*
X64218761Y-45842114D01*
X64218761Y-45842114D02*
X64171142Y-45794495D01*
X64171142Y-45794495D02*
X64075904Y-45746876D01*
X64075904Y-45746876D02*
X63266380Y-45746876D01*
X64266380Y-44746876D02*
X64266380Y-45318304D01*
X64266380Y-45032590D02*
X63266380Y-45032590D01*
X63266380Y-45032590D02*
X63409238Y-45127828D01*
X63409238Y-45127828D02*
X63504476Y-45223066D01*
X63504476Y-45223066D02*
X63552095Y-45318304D01*
%TO.C,J1*%
X35578466Y-25491780D02*
X35578466Y-26206066D01*
X35578466Y-26206066D02*
X35530847Y-26348923D01*
X35530847Y-26348923D02*
X35435609Y-26444161D01*
X35435609Y-26444161D02*
X35292752Y-26491780D01*
X35292752Y-26491780D02*
X35197514Y-26491780D01*
X36578466Y-26491780D02*
X36007038Y-26491780D01*
X36292752Y-26491780D02*
X36292752Y-25491780D01*
X36292752Y-25491780D02*
X36197514Y-25634638D01*
X36197514Y-25634638D02*
X36102276Y-25729876D01*
X36102276Y-25729876D02*
X36007038Y-25777495D01*
D11*
%TO.C,R2*%
X60756436Y-37074400D02*
X61210564Y-37074400D01*
X60756436Y-38544400D02*
X61210564Y-38544400D01*
%TO.C,J2*%
X82464600Y-27854600D02*
X82464600Y-91474600D01*
X82464600Y-27854600D02*
X85064600Y-27854600D01*
X82464600Y-91474600D02*
X87664600Y-91474600D01*
X85064600Y-27854600D02*
X85064600Y-30454600D01*
X85064600Y-30454600D02*
X87664600Y-30454600D01*
X86334600Y-27854600D02*
X87664600Y-27854600D01*
X87664600Y-27854600D02*
X87664600Y-29184600D01*
X87664600Y-30454600D02*
X87664600Y-91474600D01*
%TO.C,D4*%
X73732000Y-31803400D02*
X73732000Y-25643400D01*
X73732000Y-31803400D02*
X68612000Y-31803400D01*
X72442000Y-31933400D02*
X72442000Y-31933400D01*
X72442000Y-31933400D02*
X72442000Y-31803400D01*
X72442000Y-31803400D02*
X72442000Y-31933400D01*
X72442000Y-31803400D02*
X72442000Y-31803400D01*
X69902000Y-31933400D02*
X69902000Y-31933400D01*
X69902000Y-31933400D02*
X69902000Y-31803400D01*
X69902000Y-31803400D02*
X69902000Y-31933400D01*
X69902000Y-31803400D02*
X69902000Y-31803400D01*
X68612000Y-31803400D02*
X68612000Y-25643400D01*
X68612000Y-31803400D02*
X68212000Y-31803400D01*
X68612000Y-30683400D02*
X68612000Y-31803400D01*
X68212000Y-31803400D02*
X68212000Y-30683400D01*
X68212000Y-30683400D02*
X68612000Y-30683400D01*
X73732000Y-25643400D02*
G75*
G03*
X68612000Y-25643400I-2560000J0D01*
G01*
%TO.C,J4*%
X68617800Y-74233400D02*
X68617800Y-79373400D01*
X68617800Y-74233400D02*
X71277800Y-74233400D01*
X68617800Y-79373400D02*
X71277800Y-79373400D01*
X69947800Y-71633400D02*
X71277800Y-71633400D01*
X71277800Y-71633400D02*
X71277800Y-72963400D01*
X71277800Y-74233400D02*
X71277800Y-79373400D01*
%TO.C,R3*%
X68933336Y-55159200D02*
X69387464Y-55159200D01*
X68933336Y-56629200D02*
X69387464Y-56629200D01*
%TO.C,R4*%
X60246536Y-53306900D02*
X60700664Y-53306900D01*
X60246536Y-54776900D02*
X60700664Y-54776900D01*
%TO.C,RV1*%
X67520200Y-41120000D02*
X67520200Y-42215000D01*
X67520200Y-41120000D02*
X77760200Y-41120000D01*
X67520200Y-45067000D02*
X67520200Y-47216000D01*
X67520200Y-50066000D02*
X67520200Y-51161000D01*
X67520200Y-51161000D02*
X77760200Y-51161000D01*
X77760200Y-41120000D02*
X77760200Y-44716000D01*
X77760200Y-47566000D02*
X77760200Y-51161000D01*
%TO.C,D3*%
X76421600Y-61019800D02*
X76421600Y-59099800D01*
X76421600Y-59099800D02*
X73561600Y-59099800D01*
X73561600Y-61019800D02*
X76421600Y-61019800D01*
%TO.C,D2*%
X65197600Y-31752600D02*
X65197600Y-25592600D01*
X65197600Y-31752600D02*
X60077600Y-31752600D01*
X63907600Y-31882600D02*
X63907600Y-31882600D01*
X63907600Y-31882600D02*
X63907600Y-31752600D01*
X63907600Y-31752600D02*
X63907600Y-31882600D01*
X63907600Y-31752600D02*
X63907600Y-31752600D01*
X61367600Y-31882600D02*
X61367600Y-31882600D01*
X61367600Y-31882600D02*
X61367600Y-31752600D01*
X61367600Y-31752600D02*
X61367600Y-31882600D01*
X61367600Y-31752600D02*
X61367600Y-31752600D01*
X60077600Y-31752600D02*
X60077600Y-25592600D01*
X60077600Y-31752600D02*
X59677600Y-31752600D01*
X60077600Y-30632600D02*
X60077600Y-31752600D01*
X59677600Y-31752600D02*
X59677600Y-30632600D01*
X59677600Y-30632600D02*
X60077600Y-30632600D01*
X65197600Y-25592600D02*
G75*
G03*
X60077600Y-25592600I-2560000J0D01*
G01*
%TO.C,D1*%
X65728200Y-59622800D02*
X65728200Y-57702800D01*
X65728200Y-57702800D02*
X62868200Y-57702800D01*
X62868200Y-59622800D02*
X65728200Y-59622800D01*
%TO.C,R1*%
X67944636Y-36795000D02*
X68398764Y-36795000D01*
X67944636Y-38265000D02*
X68398764Y-38265000D01*
%TO.C,U1*%
X63059000Y-45556400D02*
X63059000Y-42106400D01*
X63059000Y-45556400D02*
X63059000Y-47506400D01*
X57939000Y-45556400D02*
X57939000Y-43606400D01*
X57939000Y-45556400D02*
X57939000Y-47506400D01*
%TO.C,J1*%
X33311800Y-27564400D02*
X33311800Y-91184400D01*
X33311800Y-27564400D02*
X35911800Y-27564400D01*
X33311800Y-91184400D02*
X38511800Y-91184400D01*
X35911800Y-27564400D02*
X35911800Y-30164400D01*
X35911800Y-30164400D02*
X38511800Y-30164400D01*
X37181800Y-27564400D02*
X38511800Y-27564400D01*
X38511800Y-27564400D02*
X38511800Y-28894400D01*
X38511800Y-30164400D02*
X38511800Y-91184400D01*
%TD*%
M02*
