%TF.GenerationSoftware,KiCad,Pcbnew,(7.0.0)*%
%TF.CreationDate,2023-06-01T09:50:49-06:00*%
%TF.ProjectId,Final_Project,46696e61-6c5f-4507-926f-6a6563742e6b,rev?*%
%TF.SameCoordinates,Original*%
%TF.FileFunction,Soldermask,Bot*%
%TF.FilePolarity,Negative*%
%FSLAX46Y46*%
G04 Gerber Fmt 4.6, Leading zero omitted, Abs format (unit mm)*
G04 Created by KiCad (PCBNEW (7.0.0)) date 2023-06-01 09:50:49*
%MOMM*%
%LPD*%
G01*
G04 APERTURE LIST*
%ADD10R,1.700000X1.700000*%
%ADD11O,1.700000X1.700000*%
%ADD12R,1.800000X1.800000*%
%ADD13C,1.800000*%
%ADD14C,4.000000*%
%ADD15C,2.340000*%
G04 APERTURE END LIST*
D10*
%TO.C,J2*%
X86334599Y-29184599D03*
D11*
X83794599Y-29184599D03*
X86334599Y-31724599D03*
X83794599Y-31724599D03*
X86334599Y-34264599D03*
X83794599Y-34264599D03*
X86334599Y-36804599D03*
X83794599Y-36804599D03*
X86334599Y-39344599D03*
X83794599Y-39344599D03*
X86334599Y-41884599D03*
X83794599Y-41884599D03*
X86334599Y-44424599D03*
X83794599Y-44424599D03*
X86334599Y-46964599D03*
X83794599Y-46964599D03*
X86334599Y-49504599D03*
X83794599Y-49504599D03*
X86334599Y-52044599D03*
X83794599Y-52044599D03*
X86334599Y-54584599D03*
X83794599Y-54584599D03*
X86334599Y-57124599D03*
X83794599Y-57124599D03*
X86334599Y-59664599D03*
X83794599Y-59664599D03*
X86334599Y-62204599D03*
X83794599Y-62204599D03*
X86334599Y-64744599D03*
X83794599Y-64744599D03*
X86334599Y-67284599D03*
X83794599Y-67284599D03*
X86334599Y-69824599D03*
X83794599Y-69824599D03*
X86334599Y-72364599D03*
X83794599Y-72364599D03*
X86334599Y-74904599D03*
X83794599Y-74904599D03*
X86334599Y-77444599D03*
X83794599Y-77444599D03*
X86334599Y-79984599D03*
X83794599Y-79984599D03*
X86334599Y-82524599D03*
X83794599Y-82524599D03*
X86334599Y-85064599D03*
X83794599Y-85064599D03*
X86334599Y-87604599D03*
X83794599Y-87604599D03*
X86334599Y-90144599D03*
X83794599Y-90144599D03*
%TD*%
D12*
%TO.C,D4*%
X72441999Y-33013399D03*
D13*
X69902000Y-33013400D03*
%TD*%
D10*
%TO.C,J4*%
X69947799Y-72963399D03*
D11*
X69947799Y-75503399D03*
X69947799Y-78043399D03*
%TD*%
D14*
%TO.C,RV1*%
X72640200Y-46141000D03*
D15*
X67640200Y-48641000D03*
X77640200Y-46141000D03*
X67640200Y-43641000D03*
%TD*%
D12*
%TO.C,D2*%
X63907599Y-32962599D03*
D13*
X61367600Y-32962600D03*
%TD*%
D10*
%TO.C,J1*%
X37181799Y-28894399D03*
D11*
X34641799Y-28894399D03*
X37181799Y-31434399D03*
X34641799Y-31434399D03*
X37181799Y-33974399D03*
X34641799Y-33974399D03*
X37181799Y-36514399D03*
X34641799Y-36514399D03*
X37181799Y-39054399D03*
X34641799Y-39054399D03*
X37181799Y-41594399D03*
X34641799Y-41594399D03*
X37181799Y-44134399D03*
X34641799Y-44134399D03*
X37181799Y-46674399D03*
X34641799Y-46674399D03*
X37181799Y-49214399D03*
X34641799Y-49214399D03*
X37181799Y-51754399D03*
X34641799Y-51754399D03*
X37181799Y-54294399D03*
X34641799Y-54294399D03*
X37181799Y-56834399D03*
X34641799Y-56834399D03*
X37181799Y-59374399D03*
X34641799Y-59374399D03*
X37181799Y-61914399D03*
X34641799Y-61914399D03*
X37181799Y-64454399D03*
X34641799Y-64454399D03*
X37181799Y-66994399D03*
X34641799Y-66994399D03*
X37181799Y-69534399D03*
X34641799Y-69534399D03*
X37181799Y-72074399D03*
X34641799Y-72074399D03*
X37181799Y-74614399D03*
X34641799Y-74614399D03*
X37181799Y-77154399D03*
X34641799Y-77154399D03*
X37181799Y-79694399D03*
X34641799Y-79694399D03*
X37181799Y-82234399D03*
X34641799Y-82234399D03*
X37181799Y-84774399D03*
X34641799Y-84774399D03*
X37181799Y-87314399D03*
X34641799Y-87314399D03*
X37181799Y-89854399D03*
X34641799Y-89854399D03*
%TD*%
M02*
