M48
; DRILL file {KiCad (7.0.0)} date Thu Jun  1 09:50:45 2023
; FORMAT={-:-/ absolute / inch / decimal}
; #@! TF.CreationDate,2023-06-01T09:50:45-06:00
; #@! TF.GenerationSoftware,Kicad,Pcbnew,(7.0.0)
; #@! TF.FileFunction,Plated,1,2,PTH
FMAT,2
INCH
; #@! TA.AperFunction,Plated,PTH,ViaDrill
T1C0.0157
; #@! TA.AperFunction,Plated,PTH,ComponentDrill
T2C0.0354
; #@! TA.AperFunction,Plated,PTH,ComponentDrill
T3C0.0394
; #@! TA.AperFunction,Plated,PTH,ComponentDrill
T4C0.0512
%
G90
G05
T1
X2.2529Y-1.4466
X2.3589Y-1.4036
X2.3759Y-1.5956
X2.4569Y-1.5956
X2.5159Y-1.8586
X2.5829Y-1.7756
T2
X2.416Y-1.2977
X2.516Y-1.2977
X2.752Y-1.2997
X2.852Y-1.2997
T3
X1.3639Y-1.1376
X1.3639Y-1.2376
X1.3639Y-1.3376
X1.3639Y-1.4376
X1.3639Y-1.5376
X1.3639Y-1.6376
X1.3639Y-1.7376
X1.3639Y-1.8376
X1.3639Y-1.9376
X1.3639Y-2.0376
X1.3639Y-2.1376
X1.3639Y-2.2376
X1.3639Y-2.3376
X1.3639Y-2.4376
X1.3639Y-2.5376
X1.3639Y-2.6376
X1.3639Y-2.7376
X1.3639Y-2.8376
X1.3639Y-2.9376
X1.3639Y-3.0376
X1.3639Y-3.1376
X1.3639Y-3.2376
X1.3639Y-3.3376
X1.3639Y-3.4376
X1.3639Y-3.5376
X1.4639Y-1.1376
X1.4639Y-1.2376
X1.4639Y-1.3376
X1.4639Y-1.4376
X1.4639Y-1.5376
X1.4639Y-1.6376
X1.4639Y-1.7376
X1.4639Y-1.8376
X1.4639Y-1.9376
X1.4639Y-2.0376
X1.4639Y-2.1376
X1.4639Y-2.2376
X1.4639Y-2.3376
X1.4639Y-2.4376
X1.4639Y-2.5376
X1.4639Y-2.6376
X1.4639Y-2.7376
X1.4639Y-2.8376
X1.4639Y-2.9376
X1.4639Y-3.0376
X1.4639Y-3.1376
X1.4639Y-3.2376
X1.4639Y-3.3376
X1.4639Y-3.4376
X1.4639Y-3.5376
X2.7539Y-2.8726
X2.7539Y-2.9726
X2.7539Y-3.0726
X3.299Y-1.149
X3.299Y-1.249
X3.299Y-1.349
X3.299Y-1.449
X3.299Y-1.549
X3.299Y-1.649
X3.299Y-1.749
X3.299Y-1.849
X3.299Y-1.949
X3.299Y-2.049
X3.299Y-2.149
X3.299Y-2.249
X3.299Y-2.349
X3.299Y-2.449
X3.299Y-2.549
X3.299Y-2.649
X3.299Y-2.749
X3.299Y-2.849
X3.299Y-2.949
X3.299Y-3.049
X3.299Y-3.149
X3.299Y-3.249
X3.299Y-3.349
X3.299Y-3.449
X3.299Y-3.549
X3.399Y-1.149
X3.399Y-1.249
X3.399Y-1.349
X3.399Y-1.449
X3.399Y-1.549
X3.399Y-1.649
X3.399Y-1.749
X3.399Y-1.849
X3.399Y-1.949
X3.399Y-2.049
X3.399Y-2.149
X3.399Y-2.249
X3.399Y-2.349
X3.399Y-2.449
X3.399Y-2.549
X3.399Y-2.649
X3.399Y-2.749
X3.399Y-2.849
X3.399Y-2.949
X3.399Y-3.049
X3.399Y-3.149
X3.399Y-3.249
X3.399Y-3.349
X3.399Y-3.449
X3.399Y-3.549
T4
X2.663Y-1.7181
X2.663Y-1.915
X3.0567Y-1.8166
T0
M30
