%TF.GenerationSoftware,KiCad,Pcbnew,(7.0.0)*%
%TF.CreationDate,2023-06-01T09:50:49-06:00*%
%TF.ProjectId,Final_Project,46696e61-6c5f-4507-926f-6a6563742e6b,rev?*%
%TF.SameCoordinates,Original*%
%TF.FileFunction,Copper,L1,Top*%
%TF.FilePolarity,Positive*%
%FSLAX46Y46*%
G04 Gerber Fmt 4.6, Leading zero omitted, Abs format (unit mm)*
G04 Created by KiCad (PCBNEW (7.0.0)) date 2023-06-01 09:50:49*
%MOMM*%
%LPD*%
G01*
G04 APERTURE LIST*
G04 Aperture macros list*
%AMRoundRect*
0 Rectangle with rounded corners*
0 $1 Rounding radius*
0 $2 $3 $4 $5 $6 $7 $8 $9 X,Y pos of 4 corners*
0 Add a 4 corners polygon primitive as box body*
4,1,4,$2,$3,$4,$5,$6,$7,$8,$9,$2,$3,0*
0 Add four circle primitives for the rounded corners*
1,1,$1+$1,$2,$3*
1,1,$1+$1,$4,$5*
1,1,$1+$1,$6,$7*
1,1,$1+$1,$8,$9*
0 Add four rect primitives between the rounded corners*
20,1,$1+$1,$2,$3,$4,$5,0*
20,1,$1+$1,$4,$5,$6,$7,0*
20,1,$1+$1,$6,$7,$8,$9,0*
20,1,$1+$1,$8,$9,$2,$3,0*%
G04 Aperture macros list end*
%ADD10C,0.300000*%
%TA.AperFunction,NonConductor*%
%ADD11C,0.300000*%
%TD*%
%TA.AperFunction,SMDPad,CuDef*%
%ADD12RoundRect,0.250000X-0.262500X-0.450000X0.262500X-0.450000X0.262500X0.450000X-0.262500X0.450000X0*%
%TD*%
%TA.AperFunction,ComponentPad*%
%ADD13R,1.700000X1.700000*%
%TD*%
%TA.AperFunction,ComponentPad*%
%ADD14O,1.700000X1.700000*%
%TD*%
%TA.AperFunction,ComponentPad*%
%ADD15R,1.800000X1.800000*%
%TD*%
%TA.AperFunction,ComponentPad*%
%ADD16C,1.800000*%
%TD*%
%TA.AperFunction,ComponentPad*%
%ADD17C,2.340000*%
%TD*%
%TA.AperFunction,SMDPad,CuDef*%
%ADD18RoundRect,0.250000X0.325000X0.450000X-0.325000X0.450000X-0.325000X-0.450000X0.325000X-0.450000X0*%
%TD*%
%TA.AperFunction,SMDPad,CuDef*%
%ADD19RoundRect,0.150000X-0.150000X0.825000X-0.150000X-0.825000X0.150000X-0.825000X0.150000X0.825000X0*%
%TD*%
%TA.AperFunction,ViaPad*%
%ADD20C,0.800000*%
%TD*%
%TA.AperFunction,Conductor*%
%ADD21C,0.250000*%
%TD*%
%TA.AperFunction,Conductor*%
%ADD22C,0.500000*%
%TD*%
G04 APERTURE END LIST*
D10*
D11*
X75230857Y-71894200D02*
X75088000Y-71822771D01*
X75088000Y-71822771D02*
X74873714Y-71822771D01*
X74873714Y-71822771D02*
X74659428Y-71894200D01*
X74659428Y-71894200D02*
X74516571Y-72037057D01*
X74516571Y-72037057D02*
X74445142Y-72179914D01*
X74445142Y-72179914D02*
X74373714Y-72465628D01*
X74373714Y-72465628D02*
X74373714Y-72679914D01*
X74373714Y-72679914D02*
X74445142Y-72965628D01*
X74445142Y-72965628D02*
X74516571Y-73108485D01*
X74516571Y-73108485D02*
X74659428Y-73251342D01*
X74659428Y-73251342D02*
X74873714Y-73322771D01*
X74873714Y-73322771D02*
X75016571Y-73322771D01*
X75016571Y-73322771D02*
X75230857Y-73251342D01*
X75230857Y-73251342D02*
X75302285Y-73179914D01*
X75302285Y-73179914D02*
X75302285Y-72679914D01*
X75302285Y-72679914D02*
X75016571Y-72679914D01*
X75945142Y-73322771D02*
X75945142Y-71822771D01*
X75945142Y-71822771D02*
X76802285Y-73322771D01*
X76802285Y-73322771D02*
X76802285Y-71822771D01*
X77516571Y-73322771D02*
X77516571Y-71822771D01*
X77516571Y-71822771D02*
X77873714Y-71822771D01*
X77873714Y-71822771D02*
X78088000Y-71894200D01*
X78088000Y-71894200D02*
X78230857Y-72037057D01*
X78230857Y-72037057D02*
X78302286Y-72179914D01*
X78302286Y-72179914D02*
X78373714Y-72465628D01*
X78373714Y-72465628D02*
X78373714Y-72679914D01*
X78373714Y-72679914D02*
X78302286Y-72965628D01*
X78302286Y-72965628D02*
X78230857Y-73108485D01*
X78230857Y-73108485D02*
X78088000Y-73251342D01*
X78088000Y-73251342D02*
X77873714Y-73322771D01*
X77873714Y-73322771D02*
X77516571Y-73322771D01*
D10*
D11*
X46970971Y-83180171D02*
X46470971Y-82465885D01*
X46113828Y-83180171D02*
X46113828Y-81680171D01*
X46113828Y-81680171D02*
X46685257Y-81680171D01*
X46685257Y-81680171D02*
X46828114Y-81751600D01*
X46828114Y-81751600D02*
X46899543Y-81823028D01*
X46899543Y-81823028D02*
X46970971Y-81965885D01*
X46970971Y-81965885D02*
X46970971Y-82180171D01*
X46970971Y-82180171D02*
X46899543Y-82323028D01*
X46899543Y-82323028D02*
X46828114Y-82394457D01*
X46828114Y-82394457D02*
X46685257Y-82465885D01*
X46685257Y-82465885D02*
X46113828Y-82465885D01*
X48185257Y-83108742D02*
X48042400Y-83180171D01*
X48042400Y-83180171D02*
X47756686Y-83180171D01*
X47756686Y-83180171D02*
X47613828Y-83108742D01*
X47613828Y-83108742D02*
X47542400Y-82965885D01*
X47542400Y-82965885D02*
X47542400Y-82394457D01*
X47542400Y-82394457D02*
X47613828Y-82251600D01*
X47613828Y-82251600D02*
X47756686Y-82180171D01*
X47756686Y-82180171D02*
X48042400Y-82180171D01*
X48042400Y-82180171D02*
X48185257Y-82251600D01*
X48185257Y-82251600D02*
X48256686Y-82394457D01*
X48256686Y-82394457D02*
X48256686Y-82537314D01*
X48256686Y-82537314D02*
X47542400Y-82680171D01*
X49542400Y-83180171D02*
X49542400Y-82394457D01*
X49542400Y-82394457D02*
X49470971Y-82251600D01*
X49470971Y-82251600D02*
X49328114Y-82180171D01*
X49328114Y-82180171D02*
X49042400Y-82180171D01*
X49042400Y-82180171D02*
X48899542Y-82251600D01*
X49542400Y-83108742D02*
X49399542Y-83180171D01*
X49399542Y-83180171D02*
X49042400Y-83180171D01*
X49042400Y-83180171D02*
X48899542Y-83108742D01*
X48899542Y-83108742D02*
X48828114Y-82965885D01*
X48828114Y-82965885D02*
X48828114Y-82823028D01*
X48828114Y-82823028D02*
X48899542Y-82680171D01*
X48899542Y-82680171D02*
X49042400Y-82608742D01*
X49042400Y-82608742D02*
X49399542Y-82608742D01*
X49399542Y-82608742D02*
X49542400Y-82537314D01*
X50899543Y-82180171D02*
X50899543Y-83394457D01*
X50899543Y-83394457D02*
X50828114Y-83537314D01*
X50828114Y-83537314D02*
X50756685Y-83608742D01*
X50756685Y-83608742D02*
X50613828Y-83680171D01*
X50613828Y-83680171D02*
X50399543Y-83680171D01*
X50399543Y-83680171D02*
X50256685Y-83608742D01*
X50899543Y-83108742D02*
X50756685Y-83180171D01*
X50756685Y-83180171D02*
X50470971Y-83180171D01*
X50470971Y-83180171D02*
X50328114Y-83108742D01*
X50328114Y-83108742D02*
X50256685Y-83037314D01*
X50256685Y-83037314D02*
X50185257Y-82894457D01*
X50185257Y-82894457D02*
X50185257Y-82465885D01*
X50185257Y-82465885D02*
X50256685Y-82323028D01*
X50256685Y-82323028D02*
X50328114Y-82251600D01*
X50328114Y-82251600D02*
X50470971Y-82180171D01*
X50470971Y-82180171D02*
X50756685Y-82180171D01*
X50756685Y-82180171D02*
X50899543Y-82251600D01*
X52256686Y-83180171D02*
X52256686Y-82394457D01*
X52256686Y-82394457D02*
X52185257Y-82251600D01*
X52185257Y-82251600D02*
X52042400Y-82180171D01*
X52042400Y-82180171D02*
X51756686Y-82180171D01*
X51756686Y-82180171D02*
X51613828Y-82251600D01*
X52256686Y-83108742D02*
X52113828Y-83180171D01*
X52113828Y-83180171D02*
X51756686Y-83180171D01*
X51756686Y-83180171D02*
X51613828Y-83108742D01*
X51613828Y-83108742D02*
X51542400Y-82965885D01*
X51542400Y-82965885D02*
X51542400Y-82823028D01*
X51542400Y-82823028D02*
X51613828Y-82680171D01*
X51613828Y-82680171D02*
X51756686Y-82608742D01*
X51756686Y-82608742D02*
X52113828Y-82608742D01*
X52113828Y-82608742D02*
X52256686Y-82537314D01*
X52970971Y-82180171D02*
X52970971Y-83180171D01*
X52970971Y-82323028D02*
X53042400Y-82251600D01*
X53042400Y-82251600D02*
X53185257Y-82180171D01*
X53185257Y-82180171D02*
X53399543Y-82180171D01*
X53399543Y-82180171D02*
X53542400Y-82251600D01*
X53542400Y-82251600D02*
X53613829Y-82394457D01*
X53613829Y-82394457D02*
X53613829Y-83180171D01*
X55228114Y-83180171D02*
X55228114Y-81680171D01*
X55228114Y-82394457D02*
X56085257Y-82394457D01*
X56085257Y-83180171D02*
X56085257Y-81680171D01*
X57442401Y-83180171D02*
X57442401Y-82394457D01*
X57442401Y-82394457D02*
X57370972Y-82251600D01*
X57370972Y-82251600D02*
X57228115Y-82180171D01*
X57228115Y-82180171D02*
X56942401Y-82180171D01*
X56942401Y-82180171D02*
X56799543Y-82251600D01*
X57442401Y-83108742D02*
X57299543Y-83180171D01*
X57299543Y-83180171D02*
X56942401Y-83180171D01*
X56942401Y-83180171D02*
X56799543Y-83108742D01*
X56799543Y-83108742D02*
X56728115Y-82965885D01*
X56728115Y-82965885D02*
X56728115Y-82823028D01*
X56728115Y-82823028D02*
X56799543Y-82680171D01*
X56799543Y-82680171D02*
X56942401Y-82608742D01*
X56942401Y-82608742D02*
X57299543Y-82608742D01*
X57299543Y-82608742D02*
X57442401Y-82537314D01*
X58156686Y-83180171D02*
X58156686Y-82180171D01*
X58156686Y-82465885D02*
X58228115Y-82323028D01*
X58228115Y-82323028D02*
X58299544Y-82251600D01*
X58299544Y-82251600D02*
X58442401Y-82180171D01*
X58442401Y-82180171D02*
X58585258Y-82180171D01*
X59728115Y-83180171D02*
X59728115Y-81680171D01*
X59728115Y-83108742D02*
X59585257Y-83180171D01*
X59585257Y-83180171D02*
X59299543Y-83180171D01*
X59299543Y-83180171D02*
X59156686Y-83108742D01*
X59156686Y-83108742D02*
X59085257Y-83037314D01*
X59085257Y-83037314D02*
X59013829Y-82894457D01*
X59013829Y-82894457D02*
X59013829Y-82465885D01*
X59013829Y-82465885D02*
X59085257Y-82323028D01*
X59085257Y-82323028D02*
X59156686Y-82251600D01*
X59156686Y-82251600D02*
X59299543Y-82180171D01*
X59299543Y-82180171D02*
X59585257Y-82180171D01*
X59585257Y-82180171D02*
X59728115Y-82251600D01*
X60299543Y-82180171D02*
X60656686Y-83180171D01*
X61013829Y-82180171D02*
X60656686Y-83180171D01*
X60656686Y-83180171D02*
X60513829Y-83537314D01*
X60513829Y-83537314D02*
X60442400Y-83608742D01*
X60442400Y-83608742D02*
X60299543Y-83680171D01*
X47185257Y-84824457D02*
X46685257Y-84824457D01*
X46685257Y-85610171D02*
X46685257Y-84110171D01*
X46685257Y-84110171D02*
X47399543Y-84110171D01*
X47970971Y-85610171D02*
X47970971Y-84610171D01*
X47970971Y-84110171D02*
X47899543Y-84181600D01*
X47899543Y-84181600D02*
X47970971Y-84253028D01*
X47970971Y-84253028D02*
X48042400Y-84181600D01*
X48042400Y-84181600D02*
X47970971Y-84110171D01*
X47970971Y-84110171D02*
X47970971Y-84253028D01*
X48685257Y-84610171D02*
X48685257Y-85610171D01*
X48685257Y-84753028D02*
X48756686Y-84681600D01*
X48756686Y-84681600D02*
X48899543Y-84610171D01*
X48899543Y-84610171D02*
X49113829Y-84610171D01*
X49113829Y-84610171D02*
X49256686Y-84681600D01*
X49256686Y-84681600D02*
X49328115Y-84824457D01*
X49328115Y-84824457D02*
X49328115Y-85610171D01*
X50685258Y-85610171D02*
X50685258Y-84824457D01*
X50685258Y-84824457D02*
X50613829Y-84681600D01*
X50613829Y-84681600D02*
X50470972Y-84610171D01*
X50470972Y-84610171D02*
X50185258Y-84610171D01*
X50185258Y-84610171D02*
X50042400Y-84681600D01*
X50685258Y-85538742D02*
X50542400Y-85610171D01*
X50542400Y-85610171D02*
X50185258Y-85610171D01*
X50185258Y-85610171D02*
X50042400Y-85538742D01*
X50042400Y-85538742D02*
X49970972Y-85395885D01*
X49970972Y-85395885D02*
X49970972Y-85253028D01*
X49970972Y-85253028D02*
X50042400Y-85110171D01*
X50042400Y-85110171D02*
X50185258Y-85038742D01*
X50185258Y-85038742D02*
X50542400Y-85038742D01*
X50542400Y-85038742D02*
X50685258Y-84967314D01*
X51613829Y-85610171D02*
X51470972Y-85538742D01*
X51470972Y-85538742D02*
X51399543Y-85395885D01*
X51399543Y-85395885D02*
X51399543Y-84110171D01*
X53085257Y-85610171D02*
X53085257Y-84110171D01*
X53085257Y-84110171D02*
X53656686Y-84110171D01*
X53656686Y-84110171D02*
X53799543Y-84181600D01*
X53799543Y-84181600D02*
X53870972Y-84253028D01*
X53870972Y-84253028D02*
X53942400Y-84395885D01*
X53942400Y-84395885D02*
X53942400Y-84610171D01*
X53942400Y-84610171D02*
X53870972Y-84753028D01*
X53870972Y-84753028D02*
X53799543Y-84824457D01*
X53799543Y-84824457D02*
X53656686Y-84895885D01*
X53656686Y-84895885D02*
X53085257Y-84895885D01*
X54585257Y-85610171D02*
X54585257Y-84610171D01*
X54585257Y-84895885D02*
X54656686Y-84753028D01*
X54656686Y-84753028D02*
X54728115Y-84681600D01*
X54728115Y-84681600D02*
X54870972Y-84610171D01*
X54870972Y-84610171D02*
X55013829Y-84610171D01*
X55728114Y-85610171D02*
X55585257Y-85538742D01*
X55585257Y-85538742D02*
X55513828Y-85467314D01*
X55513828Y-85467314D02*
X55442400Y-85324457D01*
X55442400Y-85324457D02*
X55442400Y-84895885D01*
X55442400Y-84895885D02*
X55513828Y-84753028D01*
X55513828Y-84753028D02*
X55585257Y-84681600D01*
X55585257Y-84681600D02*
X55728114Y-84610171D01*
X55728114Y-84610171D02*
X55942400Y-84610171D01*
X55942400Y-84610171D02*
X56085257Y-84681600D01*
X56085257Y-84681600D02*
X56156686Y-84753028D01*
X56156686Y-84753028D02*
X56228114Y-84895885D01*
X56228114Y-84895885D02*
X56228114Y-85324457D01*
X56228114Y-85324457D02*
X56156686Y-85467314D01*
X56156686Y-85467314D02*
X56085257Y-85538742D01*
X56085257Y-85538742D02*
X55942400Y-85610171D01*
X55942400Y-85610171D02*
X55728114Y-85610171D01*
X56870971Y-84610171D02*
X56870971Y-85895885D01*
X56870971Y-85895885D02*
X56799543Y-86038742D01*
X56799543Y-86038742D02*
X56656686Y-86110171D01*
X56656686Y-86110171D02*
X56585257Y-86110171D01*
X56870971Y-84110171D02*
X56799543Y-84181600D01*
X56799543Y-84181600D02*
X56870971Y-84253028D01*
X56870971Y-84253028D02*
X56942400Y-84181600D01*
X56942400Y-84181600D02*
X56870971Y-84110171D01*
X56870971Y-84110171D02*
X56870971Y-84253028D01*
X58156686Y-85538742D02*
X58013829Y-85610171D01*
X58013829Y-85610171D02*
X57728115Y-85610171D01*
X57728115Y-85610171D02*
X57585257Y-85538742D01*
X57585257Y-85538742D02*
X57513829Y-85395885D01*
X57513829Y-85395885D02*
X57513829Y-84824457D01*
X57513829Y-84824457D02*
X57585257Y-84681600D01*
X57585257Y-84681600D02*
X57728115Y-84610171D01*
X57728115Y-84610171D02*
X58013829Y-84610171D01*
X58013829Y-84610171D02*
X58156686Y-84681600D01*
X58156686Y-84681600D02*
X58228115Y-84824457D01*
X58228115Y-84824457D02*
X58228115Y-84967314D01*
X58228115Y-84967314D02*
X57513829Y-85110171D01*
X59513829Y-85538742D02*
X59370971Y-85610171D01*
X59370971Y-85610171D02*
X59085257Y-85610171D01*
X59085257Y-85610171D02*
X58942400Y-85538742D01*
X58942400Y-85538742D02*
X58870971Y-85467314D01*
X58870971Y-85467314D02*
X58799543Y-85324457D01*
X58799543Y-85324457D02*
X58799543Y-84895885D01*
X58799543Y-84895885D02*
X58870971Y-84753028D01*
X58870971Y-84753028D02*
X58942400Y-84681600D01*
X58942400Y-84681600D02*
X59085257Y-84610171D01*
X59085257Y-84610171D02*
X59370971Y-84610171D01*
X59370971Y-84610171D02*
X59513829Y-84681600D01*
X59942400Y-84610171D02*
X60513828Y-84610171D01*
X60156685Y-84110171D02*
X60156685Y-85395885D01*
X60156685Y-85395885D02*
X60228114Y-85538742D01*
X60228114Y-85538742D02*
X60370971Y-85610171D01*
X60370971Y-85610171D02*
X60513828Y-85610171D01*
X46849544Y-86540171D02*
X46992401Y-86540171D01*
X46992401Y-86540171D02*
X47135258Y-86611600D01*
X47135258Y-86611600D02*
X47206687Y-86683028D01*
X47206687Y-86683028D02*
X47278115Y-86825885D01*
X47278115Y-86825885D02*
X47349544Y-87111600D01*
X47349544Y-87111600D02*
X47349544Y-87468742D01*
X47349544Y-87468742D02*
X47278115Y-87754457D01*
X47278115Y-87754457D02*
X47206687Y-87897314D01*
X47206687Y-87897314D02*
X47135258Y-87968742D01*
X47135258Y-87968742D02*
X46992401Y-88040171D01*
X46992401Y-88040171D02*
X46849544Y-88040171D01*
X46849544Y-88040171D02*
X46706687Y-87968742D01*
X46706687Y-87968742D02*
X46635258Y-87897314D01*
X46635258Y-87897314D02*
X46563829Y-87754457D01*
X46563829Y-87754457D02*
X46492401Y-87468742D01*
X46492401Y-87468742D02*
X46492401Y-87111600D01*
X46492401Y-87111600D02*
X46563829Y-86825885D01*
X46563829Y-86825885D02*
X46635258Y-86683028D01*
X46635258Y-86683028D02*
X46706687Y-86611600D01*
X46706687Y-86611600D02*
X46849544Y-86540171D01*
X48635258Y-86540171D02*
X48349543Y-86540171D01*
X48349543Y-86540171D02*
X48206686Y-86611600D01*
X48206686Y-86611600D02*
X48135258Y-86683028D01*
X48135258Y-86683028D02*
X47992400Y-86897314D01*
X47992400Y-86897314D02*
X47920972Y-87183028D01*
X47920972Y-87183028D02*
X47920972Y-87754457D01*
X47920972Y-87754457D02*
X47992400Y-87897314D01*
X47992400Y-87897314D02*
X48063829Y-87968742D01*
X48063829Y-87968742D02*
X48206686Y-88040171D01*
X48206686Y-88040171D02*
X48492400Y-88040171D01*
X48492400Y-88040171D02*
X48635258Y-87968742D01*
X48635258Y-87968742D02*
X48706686Y-87897314D01*
X48706686Y-87897314D02*
X48778115Y-87754457D01*
X48778115Y-87754457D02*
X48778115Y-87397314D01*
X48778115Y-87397314D02*
X48706686Y-87254457D01*
X48706686Y-87254457D02*
X48635258Y-87183028D01*
X48635258Y-87183028D02*
X48492400Y-87111600D01*
X48492400Y-87111600D02*
X48206686Y-87111600D01*
X48206686Y-87111600D02*
X48063829Y-87183028D01*
X48063829Y-87183028D02*
X47992400Y-87254457D01*
X47992400Y-87254457D02*
X47920972Y-87397314D01*
X50492400Y-86468742D02*
X49206686Y-88397314D01*
X51278115Y-86540171D02*
X51420972Y-86540171D01*
X51420972Y-86540171D02*
X51563829Y-86611600D01*
X51563829Y-86611600D02*
X51635258Y-86683028D01*
X51635258Y-86683028D02*
X51706686Y-86825885D01*
X51706686Y-86825885D02*
X51778115Y-87111600D01*
X51778115Y-87111600D02*
X51778115Y-87468742D01*
X51778115Y-87468742D02*
X51706686Y-87754457D01*
X51706686Y-87754457D02*
X51635258Y-87897314D01*
X51635258Y-87897314D02*
X51563829Y-87968742D01*
X51563829Y-87968742D02*
X51420972Y-88040171D01*
X51420972Y-88040171D02*
X51278115Y-88040171D01*
X51278115Y-88040171D02*
X51135258Y-87968742D01*
X51135258Y-87968742D02*
X51063829Y-87897314D01*
X51063829Y-87897314D02*
X50992400Y-87754457D01*
X50992400Y-87754457D02*
X50920972Y-87468742D01*
X50920972Y-87468742D02*
X50920972Y-87111600D01*
X50920972Y-87111600D02*
X50992400Y-86825885D01*
X50992400Y-86825885D02*
X51063829Y-86683028D01*
X51063829Y-86683028D02*
X51135258Y-86611600D01*
X51135258Y-86611600D02*
X51278115Y-86540171D01*
X53206686Y-88040171D02*
X52349543Y-88040171D01*
X52778114Y-88040171D02*
X52778114Y-86540171D01*
X52778114Y-86540171D02*
X52635257Y-86754457D01*
X52635257Y-86754457D02*
X52492400Y-86897314D01*
X52492400Y-86897314D02*
X52349543Y-86968742D01*
X54920971Y-86468742D02*
X53635257Y-88397314D01*
X55349543Y-86683028D02*
X55420971Y-86611600D01*
X55420971Y-86611600D02*
X55563829Y-86540171D01*
X55563829Y-86540171D02*
X55920971Y-86540171D01*
X55920971Y-86540171D02*
X56063829Y-86611600D01*
X56063829Y-86611600D02*
X56135257Y-86683028D01*
X56135257Y-86683028D02*
X56206686Y-86825885D01*
X56206686Y-86825885D02*
X56206686Y-86968742D01*
X56206686Y-86968742D02*
X56135257Y-87183028D01*
X56135257Y-87183028D02*
X55278114Y-88040171D01*
X55278114Y-88040171D02*
X56206686Y-88040171D01*
X57135257Y-86540171D02*
X57278114Y-86540171D01*
X57278114Y-86540171D02*
X57420971Y-86611600D01*
X57420971Y-86611600D02*
X57492400Y-86683028D01*
X57492400Y-86683028D02*
X57563828Y-86825885D01*
X57563828Y-86825885D02*
X57635257Y-87111600D01*
X57635257Y-87111600D02*
X57635257Y-87468742D01*
X57635257Y-87468742D02*
X57563828Y-87754457D01*
X57563828Y-87754457D02*
X57492400Y-87897314D01*
X57492400Y-87897314D02*
X57420971Y-87968742D01*
X57420971Y-87968742D02*
X57278114Y-88040171D01*
X57278114Y-88040171D02*
X57135257Y-88040171D01*
X57135257Y-88040171D02*
X56992400Y-87968742D01*
X56992400Y-87968742D02*
X56920971Y-87897314D01*
X56920971Y-87897314D02*
X56849542Y-87754457D01*
X56849542Y-87754457D02*
X56778114Y-87468742D01*
X56778114Y-87468742D02*
X56778114Y-87111600D01*
X56778114Y-87111600D02*
X56849542Y-86825885D01*
X56849542Y-86825885D02*
X56920971Y-86683028D01*
X56920971Y-86683028D02*
X56992400Y-86611600D01*
X56992400Y-86611600D02*
X57135257Y-86540171D01*
X58206685Y-86683028D02*
X58278113Y-86611600D01*
X58278113Y-86611600D02*
X58420971Y-86540171D01*
X58420971Y-86540171D02*
X58778113Y-86540171D01*
X58778113Y-86540171D02*
X58920971Y-86611600D01*
X58920971Y-86611600D02*
X58992399Y-86683028D01*
X58992399Y-86683028D02*
X59063828Y-86825885D01*
X59063828Y-86825885D02*
X59063828Y-86968742D01*
X59063828Y-86968742D02*
X58992399Y-87183028D01*
X58992399Y-87183028D02*
X58135256Y-88040171D01*
X58135256Y-88040171D02*
X59063828Y-88040171D01*
X59563827Y-86540171D02*
X60492399Y-86540171D01*
X60492399Y-86540171D02*
X59992399Y-87111600D01*
X59992399Y-87111600D02*
X60206684Y-87111600D01*
X60206684Y-87111600D02*
X60349542Y-87183028D01*
X60349542Y-87183028D02*
X60420970Y-87254457D01*
X60420970Y-87254457D02*
X60492399Y-87397314D01*
X60492399Y-87397314D02*
X60492399Y-87754457D01*
X60492399Y-87754457D02*
X60420970Y-87897314D01*
X60420970Y-87897314D02*
X60349542Y-87968742D01*
X60349542Y-87968742D02*
X60206684Y-88040171D01*
X60206684Y-88040171D02*
X59778113Y-88040171D01*
X59778113Y-88040171D02*
X59635256Y-87968742D01*
X59635256Y-87968742D02*
X59563827Y-87897314D01*
D10*
D11*
X73803685Y-78920314D02*
X73732257Y-78991742D01*
X73732257Y-78991742D02*
X73517971Y-79063171D01*
X73517971Y-79063171D02*
X73375114Y-79063171D01*
X73375114Y-79063171D02*
X73160828Y-78991742D01*
X73160828Y-78991742D02*
X73017971Y-78848885D01*
X73017971Y-78848885D02*
X72946542Y-78706028D01*
X72946542Y-78706028D02*
X72875114Y-78420314D01*
X72875114Y-78420314D02*
X72875114Y-78206028D01*
X72875114Y-78206028D02*
X72946542Y-77920314D01*
X72946542Y-77920314D02*
X73017971Y-77777457D01*
X73017971Y-77777457D02*
X73160828Y-77634600D01*
X73160828Y-77634600D02*
X73375114Y-77563171D01*
X73375114Y-77563171D02*
X73517971Y-77563171D01*
X73517971Y-77563171D02*
X73732257Y-77634600D01*
X73732257Y-77634600D02*
X73803685Y-77706028D01*
X74732257Y-77563171D02*
X75017971Y-77563171D01*
X75017971Y-77563171D02*
X75160828Y-77634600D01*
X75160828Y-77634600D02*
X75303685Y-77777457D01*
X75303685Y-77777457D02*
X75375114Y-78063171D01*
X75375114Y-78063171D02*
X75375114Y-78563171D01*
X75375114Y-78563171D02*
X75303685Y-78848885D01*
X75303685Y-78848885D02*
X75160828Y-78991742D01*
X75160828Y-78991742D02*
X75017971Y-79063171D01*
X75017971Y-79063171D02*
X74732257Y-79063171D01*
X74732257Y-79063171D02*
X74589400Y-78991742D01*
X74589400Y-78991742D02*
X74446542Y-78848885D01*
X74446542Y-78848885D02*
X74375114Y-78563171D01*
X74375114Y-78563171D02*
X74375114Y-78063171D01*
X74375114Y-78063171D02*
X74446542Y-77777457D01*
X74446542Y-77777457D02*
X74589400Y-77634600D01*
X74589400Y-77634600D02*
X74732257Y-77563171D01*
X76017971Y-79063171D02*
X76017971Y-77563171D01*
X76017971Y-77563171D02*
X76875114Y-79063171D01*
X76875114Y-79063171D02*
X76875114Y-77563171D01*
X77589400Y-79063171D02*
X77589400Y-77563171D01*
X77589400Y-77563171D02*
X78446543Y-79063171D01*
X78446543Y-79063171D02*
X78446543Y-77563171D01*
D10*
D11*
X75743628Y-74819971D02*
X75029342Y-74819971D01*
X75029342Y-74819971D02*
X74957914Y-75534257D01*
X74957914Y-75534257D02*
X75029342Y-75462828D01*
X75029342Y-75462828D02*
X75172200Y-75391400D01*
X75172200Y-75391400D02*
X75529342Y-75391400D01*
X75529342Y-75391400D02*
X75672200Y-75462828D01*
X75672200Y-75462828D02*
X75743628Y-75534257D01*
X75743628Y-75534257D02*
X75815057Y-75677114D01*
X75815057Y-75677114D02*
X75815057Y-76034257D01*
X75815057Y-76034257D02*
X75743628Y-76177114D01*
X75743628Y-76177114D02*
X75672200Y-76248542D01*
X75672200Y-76248542D02*
X75529342Y-76319971D01*
X75529342Y-76319971D02*
X75172200Y-76319971D01*
X75172200Y-76319971D02*
X75029342Y-76248542D01*
X75029342Y-76248542D02*
X74957914Y-76177114D01*
X76243628Y-74819971D02*
X76743628Y-76319971D01*
X76743628Y-76319971D02*
X77243628Y-74819971D01*
D12*
%TO.P,R2,1*%
%TO.N,VDD*%
X60071000Y-37809400D03*
%TO.P,R2,2*%
%TO.N,Net-(D2-K)*%
X61896000Y-37809400D03*
%TD*%
D13*
%TO.P,J2,1,Pin_1*%
%TO.N,unconnected-(J2-Pin_1-Pad1)*%
X86334599Y-29184599D03*
D14*
%TO.P,J2,2,Pin_2*%
%TO.N,GND*%
X83794599Y-29184599D03*
%TO.P,J2,3,Pin_3*%
%TO.N,unconnected-(J2-Pin_3-Pad3)*%
X86334599Y-31724599D03*
%TO.P,J2,4,Pin_4*%
%TO.N,+5V*%
X83794599Y-31724599D03*
%TO.P,J2,5,Pin_5*%
%TO.N,unconnected-(J2-Pin_5-Pad5)*%
X86334599Y-34264599D03*
%TO.P,J2,6,Pin_6*%
%TO.N,unconnected-(J2-Pin_6-Pad6)*%
X83794599Y-34264599D03*
%TO.P,J2,7,Pin_7*%
%TO.N,unconnected-(J2-Pin_7-Pad7)*%
X86334599Y-36804599D03*
%TO.P,J2,8,Pin_8*%
%TO.N,unconnected-(J2-Pin_8-Pad8)*%
X83794599Y-36804599D03*
%TO.P,J2,9,Pin_9*%
%TO.N,unconnected-(J2-Pin_9-Pad9)*%
X86334599Y-39344599D03*
%TO.P,J2,10,Pin_10*%
%TO.N,unconnected-(J2-Pin_10-Pad10)*%
X83794599Y-39344599D03*
%TO.P,J2,11,Pin_11*%
%TO.N,unconnected-(J2-Pin_11-Pad11)*%
X86334599Y-41884599D03*
%TO.P,J2,12,Pin_12*%
%TO.N,unconnected-(J2-Pin_12-Pad12)*%
X83794599Y-41884599D03*
%TO.P,J2,13,Pin_13*%
%TO.N,unconnected-(J2-Pin_13-Pad13)*%
X86334599Y-44424599D03*
%TO.P,J2,14,Pin_14*%
%TO.N,unconnected-(J2-Pin_14-Pad14)*%
X83794599Y-44424599D03*
%TO.P,J2,15,Pin_15*%
%TO.N,unconnected-(J2-Pin_15-Pad15)*%
X86334599Y-46964599D03*
%TO.P,J2,16,Pin_16*%
%TO.N,unconnected-(J2-Pin_16-Pad16)*%
X83794599Y-46964599D03*
%TO.P,J2,17,Pin_17*%
%TO.N,unconnected-(J2-Pin_17-Pad17)*%
X86334599Y-49504599D03*
%TO.P,J2,18,Pin_18*%
%TO.N,unconnected-(J2-Pin_18-Pad18)*%
X83794599Y-49504599D03*
%TO.P,J2,19,Pin_19*%
%TO.N,unconnected-(J2-Pin_19-Pad19)*%
X86334599Y-52044599D03*
%TO.P,J2,20,Pin_20*%
%TO.N,unconnected-(J2-Pin_20-Pad20)*%
X83794599Y-52044599D03*
%TO.P,J2,21,Pin_21*%
%TO.N,unconnected-(J2-Pin_21-Pad21)*%
X86334599Y-54584599D03*
%TO.P,J2,22,Pin_22*%
%TO.N,unconnected-(J2-Pin_22-Pad22)*%
X83794599Y-54584599D03*
%TO.P,J2,23,Pin_23*%
%TO.N,unconnected-(J2-Pin_23-Pad23)*%
X86334599Y-57124599D03*
%TO.P,J2,24,Pin_24*%
%TO.N,unconnected-(J2-Pin_24-Pad24)*%
X83794599Y-57124599D03*
%TO.P,J2,25,Pin_25*%
%TO.N,unconnected-(J2-Pin_25-Pad25)*%
X86334599Y-59664599D03*
%TO.P,J2,26,Pin_26*%
%TO.N,unconnected-(J2-Pin_26-Pad26)*%
X83794599Y-59664599D03*
%TO.P,J2,27,Pin_27*%
%TO.N,unconnected-(J2-Pin_27-Pad27)*%
X86334599Y-62204599D03*
%TO.P,J2,28,Pin_28*%
%TO.N,unconnected-(J2-Pin_28-Pad28)*%
X83794599Y-62204599D03*
%TO.P,J2,29,Pin_29*%
%TO.N,unconnected-(J2-Pin_29-Pad29)*%
X86334599Y-64744599D03*
%TO.P,J2,30,Pin_30*%
%TO.N,unconnected-(J2-Pin_30-Pad30)*%
X83794599Y-64744599D03*
%TO.P,J2,31,Pin_31*%
%TO.N,unconnected-(J2-Pin_31-Pad31)*%
X86334599Y-67284599D03*
%TO.P,J2,32,Pin_32*%
%TO.N,unconnected-(J2-Pin_32-Pad32)*%
X83794599Y-67284599D03*
%TO.P,J2,33,Pin_33*%
%TO.N,unconnected-(J2-Pin_33-Pad33)*%
X86334599Y-69824599D03*
%TO.P,J2,34,Pin_34*%
%TO.N,unconnected-(J2-Pin_34-Pad34)*%
X83794599Y-69824599D03*
%TO.P,J2,35,Pin_35*%
%TO.N,unconnected-(J2-Pin_35-Pad35)*%
X86334599Y-72364599D03*
%TO.P,J2,36,Pin_36*%
%TO.N,unconnected-(J2-Pin_36-Pad36)*%
X83794599Y-72364599D03*
%TO.P,J2,37,Pin_37*%
%TO.N,unconnected-(J2-Pin_37-Pad37)*%
X86334599Y-74904599D03*
%TO.P,J2,38,Pin_38*%
%TO.N,unconnected-(J2-Pin_38-Pad38)*%
X83794599Y-74904599D03*
%TO.P,J2,39,Pin_39*%
%TO.N,unconnected-(J2-Pin_39-Pad39)*%
X86334599Y-77444599D03*
%TO.P,J2,40,Pin_40*%
%TO.N,unconnected-(J2-Pin_40-Pad40)*%
X83794599Y-77444599D03*
%TO.P,J2,41,Pin_41*%
%TO.N,unconnected-(J2-Pin_41-Pad41)*%
X86334599Y-79984599D03*
%TO.P,J2,42,Pin_42*%
%TO.N,unconnected-(J2-Pin_42-Pad42)*%
X83794599Y-79984599D03*
%TO.P,J2,43,Pin_43*%
%TO.N,unconnected-(J2-Pin_43-Pad43)*%
X86334599Y-82524599D03*
%TO.P,J2,44,Pin_44*%
%TO.N,unconnected-(J2-Pin_44-Pad44)*%
X83794599Y-82524599D03*
%TO.P,J2,45,Pin_45*%
%TO.N,unconnected-(J2-Pin_45-Pad45)*%
X86334599Y-85064599D03*
%TO.P,J2,46,Pin_46*%
%TO.N,unconnected-(J2-Pin_46-Pad46)*%
X83794599Y-85064599D03*
%TO.P,J2,47,Pin_47*%
%TO.N,unconnected-(J2-Pin_47-Pad47)*%
X86334599Y-87604599D03*
%TO.P,J2,48,Pin_48*%
%TO.N,unconnected-(J2-Pin_48-Pad48)*%
X83794599Y-87604599D03*
%TO.P,J2,49,Pin_49*%
%TO.N,unconnected-(J2-Pin_49-Pad49)*%
X86334599Y-90144599D03*
%TO.P,J2,50,Pin_50*%
%TO.N,unconnected-(J2-Pin_50-Pad50)*%
X83794599Y-90144599D03*
%TD*%
D15*
%TO.P,D4,1,K*%
%TO.N,GND*%
X72441999Y-33013399D03*
D16*
%TO.P,D4,2,A*%
%TO.N,Net-(D4-A)*%
X69902000Y-33013400D03*
%TD*%
D13*
%TO.P,J4,1,Pin_1*%
%TO.N,GND*%
X69947799Y-72963399D03*
D14*
%TO.P,J4,2,Pin_2*%
%TO.N,+5V*%
X69947799Y-75503399D03*
%TO.P,J4,3,Pin_3*%
%TO.N,Servo_Motor*%
X69947799Y-78043399D03*
%TD*%
D12*
%TO.P,R3,1*%
%TO.N,VDD*%
X68247900Y-55894200D03*
%TO.P,R3,2*%
%TO.N,Net-(D3-A)*%
X70072900Y-55894200D03*
%TD*%
%TO.P,R4,1*%
%TO.N,Net-(R4-Pad1)*%
X59561100Y-54041900D03*
%TO.P,R4,2*%
%TO.N,IR_Sensor*%
X61386100Y-54041900D03*
%TD*%
D17*
%TO.P,RV1,1,1*%
%TO.N,VDD*%
X67640200Y-48641000D03*
%TO.P,RV1,2,2*%
%TO.N,Net-(U1-+)*%
X77640200Y-46141000D03*
%TO.P,RV1,3,3*%
%TO.N,GND*%
X67640200Y-43641000D03*
%TD*%
D18*
%TO.P,D3,1,K*%
%TO.N,GND*%
X75586600Y-60059800D03*
%TO.P,D3,2,A*%
%TO.N,Net-(D3-A)*%
X73536600Y-60059800D03*
%TD*%
D15*
%TO.P,D2,1,K*%
%TO.N,Net-(D2-K)*%
X63907599Y-32962599D03*
D16*
%TO.P,D2,2,A*%
%TO.N,GND*%
X61367600Y-32962600D03*
%TD*%
D18*
%TO.P,D1,1,K*%
%TO.N,GND*%
X64893200Y-58662800D03*
%TO.P,D1,2,A*%
%TO.N,IR_Sensor*%
X62843200Y-58662800D03*
%TD*%
D12*
%TO.P,R1,1*%
%TO.N,VDD*%
X67259200Y-37530000D03*
%TO.P,R1,2*%
%TO.N,Net-(D4-A)*%
X69084200Y-37530000D03*
%TD*%
D19*
%TO.P,U1,1,NULL*%
%TO.N,unconnected-(U1-NULL-Pad1)*%
X62404000Y-43081400D03*
%TO.P,U1,2,-*%
%TO.N,Net-(D2-K)*%
X61134000Y-43081400D03*
%TO.P,U1,3,+*%
%TO.N,Net-(U1-+)*%
X59864000Y-43081400D03*
%TO.P,U1,4,V-*%
%TO.N,GND*%
X58594000Y-43081400D03*
%TO.P,U1,5,NULL*%
%TO.N,unconnected-(U1-NULL-Pad5)*%
X58594000Y-48031400D03*
%TO.P,U1,6*%
%TO.N,Net-(R4-Pad1)*%
X59864000Y-48031400D03*
%TO.P,U1,7,V+*%
%TO.N,VDD*%
X61134000Y-48031400D03*
%TO.P,U1,8,NC*%
%TO.N,unconnected-(U1-NC-Pad8)*%
X62404000Y-48031400D03*
%TD*%
D13*
%TO.P,J1,1,Pin_1*%
%TO.N,GND*%
X37181799Y-28894399D03*
D14*
%TO.P,J1,2,Pin_2*%
%TO.N,unconnected-(J1-Pin_2-Pad2)*%
X34641799Y-28894399D03*
%TO.P,J1,3,Pin_3*%
%TO.N,VDD*%
X37181799Y-31434399D03*
%TO.P,J1,4,Pin_4*%
%TO.N,unconnected-(J1-Pin_4-Pad4)*%
X34641799Y-31434399D03*
%TO.P,J1,5,Pin_5*%
%TO.N,unconnected-(J1-Pin_5-Pad5)*%
X37181799Y-33974399D03*
%TO.P,J1,6,Pin_6*%
%TO.N,unconnected-(J1-Pin_6-Pad6)*%
X34641799Y-33974399D03*
%TO.P,J1,7,Pin_7*%
%TO.N,Servo_Motor*%
X37181799Y-36514399D03*
%TO.P,J1,8,Pin_8*%
%TO.N,unconnected-(J1-Pin_8-Pad8)*%
X34641799Y-36514399D03*
%TO.P,J1,9,Pin_9*%
%TO.N,unconnected-(J1-Pin_9-Pad9)*%
X37181799Y-39054399D03*
%TO.P,J1,10,Pin_10*%
%TO.N,unconnected-(J1-Pin_10-Pad10)*%
X34641799Y-39054399D03*
%TO.P,J1,11,Pin_11*%
%TO.N,IR_Sensor*%
X37181799Y-41594399D03*
%TO.P,J1,12,Pin_12*%
%TO.N,unconnected-(J1-Pin_12-Pad12)*%
X34641799Y-41594399D03*
%TO.P,J1,13,Pin_13*%
%TO.N,unconnected-(J1-Pin_13-Pad13)*%
X37181799Y-44134399D03*
%TO.P,J1,14,Pin_14*%
%TO.N,unconnected-(J1-Pin_14-Pad14)*%
X34641799Y-44134399D03*
%TO.P,J1,15,Pin_15*%
%TO.N,unconnected-(J1-Pin_15-Pad15)*%
X37181799Y-46674399D03*
%TO.P,J1,16,Pin_16*%
%TO.N,unconnected-(J1-Pin_16-Pad16)*%
X34641799Y-46674399D03*
%TO.P,J1,17,Pin_17*%
%TO.N,unconnected-(J1-Pin_17-Pad17)*%
X37181799Y-49214399D03*
%TO.P,J1,18,Pin_18*%
%TO.N,unconnected-(J1-Pin_18-Pad18)*%
X34641799Y-49214399D03*
%TO.P,J1,19,Pin_19*%
%TO.N,unconnected-(J1-Pin_19-Pad19)*%
X37181799Y-51754399D03*
%TO.P,J1,20,Pin_20*%
%TO.N,unconnected-(J1-Pin_20-Pad20)*%
X34641799Y-51754399D03*
%TO.P,J1,21,Pin_21*%
%TO.N,unconnected-(J1-Pin_21-Pad21)*%
X37181799Y-54294399D03*
%TO.P,J1,22,Pin_22*%
%TO.N,unconnected-(J1-Pin_22-Pad22)*%
X34641799Y-54294399D03*
%TO.P,J1,23,Pin_23*%
%TO.N,unconnected-(J1-Pin_23-Pad23)*%
X37181799Y-56834399D03*
%TO.P,J1,24,Pin_24*%
%TO.N,unconnected-(J1-Pin_24-Pad24)*%
X34641799Y-56834399D03*
%TO.P,J1,25,Pin_25*%
%TO.N,unconnected-(J1-Pin_25-Pad25)*%
X37181799Y-59374399D03*
%TO.P,J1,26,Pin_26*%
%TO.N,unconnected-(J1-Pin_26-Pad26)*%
X34641799Y-59374399D03*
%TO.P,J1,27,Pin_27*%
%TO.N,unconnected-(J1-Pin_27-Pad27)*%
X37181799Y-61914399D03*
%TO.P,J1,28,Pin_28*%
%TO.N,unconnected-(J1-Pin_28-Pad28)*%
X34641799Y-61914399D03*
%TO.P,J1,29,Pin_29*%
%TO.N,unconnected-(J1-Pin_29-Pad29)*%
X37181799Y-64454399D03*
%TO.P,J1,30,Pin_30*%
%TO.N,unconnected-(J1-Pin_30-Pad30)*%
X34641799Y-64454399D03*
%TO.P,J1,31,Pin_31*%
%TO.N,unconnected-(J1-Pin_31-Pad31)*%
X37181799Y-66994399D03*
%TO.P,J1,32,Pin_32*%
%TO.N,unconnected-(J1-Pin_32-Pad32)*%
X34641799Y-66994399D03*
%TO.P,J1,33,Pin_33*%
%TO.N,unconnected-(J1-Pin_33-Pad33)*%
X37181799Y-69534399D03*
%TO.P,J1,34,Pin_34*%
%TO.N,unconnected-(J1-Pin_34-Pad34)*%
X34641799Y-69534399D03*
%TO.P,J1,35,Pin_35*%
%TO.N,unconnected-(J1-Pin_35-Pad35)*%
X37181799Y-72074399D03*
%TO.P,J1,36,Pin_36*%
%TO.N,unconnected-(J1-Pin_36-Pad36)*%
X34641799Y-72074399D03*
%TO.P,J1,37,Pin_37*%
%TO.N,unconnected-(J1-Pin_37-Pad37)*%
X37181799Y-74614399D03*
%TO.P,J1,38,Pin_38*%
%TO.N,unconnected-(J1-Pin_38-Pad38)*%
X34641799Y-74614399D03*
%TO.P,J1,39,Pin_39*%
%TO.N,unconnected-(J1-Pin_39-Pad39)*%
X37181799Y-77154399D03*
%TO.P,J1,40,Pin_40*%
%TO.N,unconnected-(J1-Pin_40-Pad40)*%
X34641799Y-77154399D03*
%TO.P,J1,41,Pin_41*%
%TO.N,unconnected-(J1-Pin_41-Pad41)*%
X37181799Y-79694399D03*
%TO.P,J1,42,Pin_42*%
%TO.N,unconnected-(J1-Pin_42-Pad42)*%
X34641799Y-79694399D03*
%TO.P,J1,43,Pin_43*%
%TO.N,unconnected-(J1-Pin_43-Pad43)*%
X37181799Y-82234399D03*
%TO.P,J1,44,Pin_44*%
%TO.N,unconnected-(J1-Pin_44-Pad44)*%
X34641799Y-82234399D03*
%TO.P,J1,45,Pin_45*%
%TO.N,unconnected-(J1-Pin_45-Pad45)*%
X37181799Y-84774399D03*
%TO.P,J1,46,Pin_46*%
%TO.N,unconnected-(J1-Pin_46-Pad46)*%
X34641799Y-84774399D03*
%TO.P,J1,47,Pin_47*%
%TO.N,unconnected-(J1-Pin_47-Pad47)*%
X37181799Y-87314399D03*
%TO.P,J1,48,Pin_48*%
%TO.N,unconnected-(J1-Pin_48-Pad48)*%
X34641799Y-87314399D03*
%TO.P,J1,49,Pin_49*%
%TO.N,unconnected-(J1-Pin_49-Pad49)*%
X37181799Y-89854399D03*
%TO.P,J1,50,Pin_50*%
%TO.N,unconnected-(J1-Pin_50-Pad50)*%
X34641799Y-89854399D03*
%TD*%
D20*
%TO.N,GND*%
X63902600Y-47207800D03*
X65604400Y-45099600D03*
%TO.N,Net-(U1-+)*%
X62404000Y-40527600D03*
X60346600Y-40527600D03*
%TO.N,VDD*%
X57222400Y-36743000D03*
X59914800Y-35650800D03*
%TD*%
D21*
%TO.N,+5V*%
X85039200Y-42301701D02*
X85039200Y-32969200D01*
X84281301Y-43059600D02*
X85039200Y-42301701D01*
X82772000Y-43059600D02*
X84281301Y-43059600D01*
X85039200Y-32969200D02*
X83794600Y-31724600D01*
X79135200Y-54327200D02*
X79135200Y-46696400D01*
X76486600Y-56975800D02*
X79135200Y-54327200D01*
X79135200Y-46696400D02*
X82772000Y-43059600D01*
%TO.N,GND*%
X76270800Y-29184600D02*
X72442000Y-33013400D01*
X83794600Y-29184600D02*
X76270800Y-29184600D01*
%TO.N,Net-(D2-K)*%
X61896000Y-37809400D02*
X61134000Y-38571400D01*
X63907600Y-32962600D02*
X63907600Y-35797800D01*
X61134000Y-38571400D02*
X61134000Y-43081400D01*
X63907600Y-35797800D02*
X61896000Y-37809400D01*
%TO.N,Net-(D3-A)*%
X70072900Y-56596100D02*
X73536600Y-60059800D01*
X70072900Y-55894200D02*
X70072900Y-56596100D01*
%TO.N,Net-(D4-A)*%
X69902000Y-36712200D02*
X69084200Y-37530000D01*
X69902000Y-33013400D02*
X69902000Y-36712200D01*
D22*
%TO.N,GND*%
X75301549Y-60059800D02*
X75586600Y-60059800D01*
X63902600Y-59653400D02*
X63902600Y-50713000D01*
X64893200Y-58662800D02*
X63902600Y-59653400D01*
D21*
X69947800Y-72963400D02*
X69947800Y-63717400D01*
X71166200Y-31737600D02*
X62592600Y-31737600D01*
D22*
X67440200Y-61209800D02*
X74436600Y-61209800D01*
D21*
X57969000Y-53999600D02*
X59036300Y-55066900D01*
X57299400Y-28894400D02*
X61367600Y-32962600D01*
X62592600Y-31737600D02*
X61367600Y-32962600D01*
D22*
X66181600Y-45099600D02*
X67640200Y-43641000D01*
D21*
X57969000Y-43706400D02*
X57969000Y-53999600D01*
X61367600Y-32962600D02*
X58594000Y-35736200D01*
D22*
X64893200Y-58662800D02*
X64935200Y-58662800D01*
X64893200Y-58662800D02*
X67268300Y-61037900D01*
X63902600Y-50713000D02*
X63902600Y-47207800D01*
D21*
X72442000Y-33013400D02*
X71166200Y-31737600D01*
X58594000Y-35736200D02*
X58594000Y-43081400D01*
D22*
X74436600Y-61209800D02*
X75586600Y-60059800D01*
X58594000Y-43947922D02*
X58544000Y-43897922D01*
X64608149Y-58662800D02*
X64893200Y-58662800D01*
D21*
X37181800Y-28894400D02*
X57299400Y-28894400D01*
X59036300Y-55066900D02*
X60211773Y-55066900D01*
D22*
X67268300Y-61037900D02*
X67440200Y-61209800D01*
D21*
X60548600Y-53353727D02*
X63189327Y-50713000D01*
D22*
X58594000Y-43081400D02*
X58594000Y-43947922D01*
D21*
X60211773Y-55066900D02*
X60548600Y-54730073D01*
X60548600Y-54730073D02*
X60548600Y-53353727D01*
D22*
X65604400Y-45099600D02*
X66181600Y-45099600D01*
D21*
X69947800Y-63717400D02*
X67268300Y-61037900D01*
X58594000Y-43081400D02*
X57969000Y-43706400D01*
X63189327Y-50713000D02*
X63902600Y-50713000D01*
%TO.N,+5V*%
X76486600Y-68964600D02*
X76486600Y-56975800D01*
X69947800Y-75503400D02*
X76486600Y-68964600D01*
D22*
%TO.N,Net-(R4-Pad1)*%
X59561100Y-54041900D02*
X59561100Y-48334300D01*
X59561100Y-54041900D02*
X59305200Y-53786000D01*
X59561100Y-48334300D02*
X59864000Y-48031400D01*
%TO.N,Net-(U1-+)*%
X59940200Y-43005200D02*
X59864000Y-43081400D01*
D21*
X76019527Y-46141000D02*
X68096700Y-38218173D01*
X60346600Y-40527600D02*
X59864000Y-41010200D01*
X68096700Y-38218173D02*
X68096700Y-36841827D01*
X66426600Y-36505000D02*
X62404000Y-40527600D01*
X59864000Y-41010200D02*
X59864000Y-43081400D01*
X77640200Y-46141000D02*
X76019527Y-46141000D01*
X68096700Y-36841827D02*
X67759873Y-36505000D01*
X67759873Y-36505000D02*
X66426600Y-36505000D01*
%TO.N,IR_Sensor*%
X54250200Y-58662800D02*
X62843200Y-58662800D01*
X37181800Y-41594400D02*
X54250200Y-58662800D01*
D22*
X62843200Y-59110800D02*
X62843200Y-58662800D01*
D21*
X61386100Y-54041900D02*
X62843200Y-55499000D01*
X62843200Y-55499000D02*
X62843200Y-58662800D01*
%TO.N,VDD*%
X64356800Y-44381400D02*
X59517249Y-44381400D01*
X67640200Y-48641000D02*
X67640200Y-55286500D01*
X67640200Y-48641000D02*
X64646900Y-45647700D01*
X59219000Y-38661400D02*
X59219000Y-45739649D01*
X67640200Y-55286500D02*
X68247900Y-55894200D01*
X59517249Y-44381400D02*
X59239000Y-44103151D01*
D22*
X61134000Y-48031400D02*
X61134000Y-47477872D01*
D21*
X51913800Y-31434400D02*
X57222400Y-36743000D01*
X59239000Y-44103151D02*
X59239000Y-38641400D01*
X67259200Y-41479000D02*
X64646900Y-44091300D01*
X61134000Y-47654649D02*
X61134000Y-48031400D01*
X59914800Y-35650800D02*
X59914800Y-37653200D01*
X37181800Y-31434400D02*
X51913800Y-31434400D01*
X60071000Y-37809400D02*
X59219000Y-38661400D01*
X59914800Y-37653200D02*
X60071000Y-37809400D01*
X59219000Y-45739649D02*
X61134000Y-47654649D01*
X67259200Y-37530000D02*
X67259200Y-41479000D01*
X64646900Y-44091300D02*
X64356800Y-44381400D01*
X64646900Y-45647700D02*
X64646900Y-44091300D01*
X59239000Y-38641400D02*
X60071000Y-37809400D01*
%TO.N,Servo_Motor*%
X69947800Y-78043400D02*
X54063804Y-62159404D01*
X54063804Y-59164703D02*
X37668501Y-42769400D01*
X36006800Y-42081101D02*
X36006800Y-37689400D01*
X36006800Y-37689400D02*
X37181800Y-36514400D01*
X54063804Y-62159404D02*
X54063804Y-59164703D01*
X37668501Y-42769400D02*
X36695099Y-42769400D01*
X36695099Y-42769400D02*
X36006800Y-42081101D01*
%TD*%
M02*
