%TF.GenerationSoftware,KiCad,Pcbnew,(7.0.0)*%
%TF.CreationDate,2023-04-21T10:27:54-06:00*%
%TF.ProjectId,PhaseB_ATMEGA,50686173-6542-45f4-9154-4d4547412e6b,rev?*%
%TF.SameCoordinates,Original*%
%TF.FileFunction,Legend,Top*%
%TF.FilePolarity,Positive*%
%FSLAX46Y46*%
G04 Gerber Fmt 4.6, Leading zero omitted, Abs format (unit mm)*
G04 Created by KiCad (PCBNEW (7.0.0)) date 2023-04-21 10:27:54*
%MOMM*%
%LPD*%
G01*
G04 APERTURE LIST*
%ADD10C,0.150000*%
%ADD11C,0.254000*%
%ADD12C,0.120000*%
%ADD13C,0.100000*%
%ADD14C,0.200000*%
%ADD15C,0.127000*%
G04 APERTURE END LIST*
D10*
X120849923Y-176552180D02*
X120516590Y-176075990D01*
X120278495Y-176552180D02*
X120278495Y-175552180D01*
X120278495Y-175552180D02*
X120659447Y-175552180D01*
X120659447Y-175552180D02*
X120754685Y-175599800D01*
X120754685Y-175599800D02*
X120802304Y-175647419D01*
X120802304Y-175647419D02*
X120849923Y-175742657D01*
X120849923Y-175742657D02*
X120849923Y-175885514D01*
X120849923Y-175885514D02*
X120802304Y-175980752D01*
X120802304Y-175980752D02*
X120754685Y-176028371D01*
X120754685Y-176028371D02*
X120659447Y-176075990D01*
X120659447Y-176075990D02*
X120278495Y-176075990D01*
X121659447Y-176504561D02*
X121564209Y-176552180D01*
X121564209Y-176552180D02*
X121373733Y-176552180D01*
X121373733Y-176552180D02*
X121278495Y-176504561D01*
X121278495Y-176504561D02*
X121230876Y-176409323D01*
X121230876Y-176409323D02*
X121230876Y-176028371D01*
X121230876Y-176028371D02*
X121278495Y-175933133D01*
X121278495Y-175933133D02*
X121373733Y-175885514D01*
X121373733Y-175885514D02*
X121564209Y-175885514D01*
X121564209Y-175885514D02*
X121659447Y-175933133D01*
X121659447Y-175933133D02*
X121707066Y-176028371D01*
X121707066Y-176028371D02*
X121707066Y-176123609D01*
X121707066Y-176123609D02*
X121230876Y-176218847D01*
X122564209Y-176552180D02*
X122564209Y-176028371D01*
X122564209Y-176028371D02*
X122516590Y-175933133D01*
X122516590Y-175933133D02*
X122421352Y-175885514D01*
X122421352Y-175885514D02*
X122230876Y-175885514D01*
X122230876Y-175885514D02*
X122135638Y-175933133D01*
X122564209Y-176504561D02*
X122468971Y-176552180D01*
X122468971Y-176552180D02*
X122230876Y-176552180D01*
X122230876Y-176552180D02*
X122135638Y-176504561D01*
X122135638Y-176504561D02*
X122088019Y-176409323D01*
X122088019Y-176409323D02*
X122088019Y-176314085D01*
X122088019Y-176314085D02*
X122135638Y-176218847D01*
X122135638Y-176218847D02*
X122230876Y-176171228D01*
X122230876Y-176171228D02*
X122468971Y-176171228D01*
X122468971Y-176171228D02*
X122564209Y-176123609D01*
X123468971Y-175885514D02*
X123468971Y-176695038D01*
X123468971Y-176695038D02*
X123421352Y-176790276D01*
X123421352Y-176790276D02*
X123373733Y-176837895D01*
X123373733Y-176837895D02*
X123278495Y-176885514D01*
X123278495Y-176885514D02*
X123135638Y-176885514D01*
X123135638Y-176885514D02*
X123040400Y-176837895D01*
X123468971Y-176504561D02*
X123373733Y-176552180D01*
X123373733Y-176552180D02*
X123183257Y-176552180D01*
X123183257Y-176552180D02*
X123088019Y-176504561D01*
X123088019Y-176504561D02*
X123040400Y-176456942D01*
X123040400Y-176456942D02*
X122992781Y-176361704D01*
X122992781Y-176361704D02*
X122992781Y-176075990D01*
X122992781Y-176075990D02*
X123040400Y-175980752D01*
X123040400Y-175980752D02*
X123088019Y-175933133D01*
X123088019Y-175933133D02*
X123183257Y-175885514D01*
X123183257Y-175885514D02*
X123373733Y-175885514D01*
X123373733Y-175885514D02*
X123468971Y-175933133D01*
X124373733Y-176552180D02*
X124373733Y-176028371D01*
X124373733Y-176028371D02*
X124326114Y-175933133D01*
X124326114Y-175933133D02*
X124230876Y-175885514D01*
X124230876Y-175885514D02*
X124040400Y-175885514D01*
X124040400Y-175885514D02*
X123945162Y-175933133D01*
X124373733Y-176504561D02*
X124278495Y-176552180D01*
X124278495Y-176552180D02*
X124040400Y-176552180D01*
X124040400Y-176552180D02*
X123945162Y-176504561D01*
X123945162Y-176504561D02*
X123897543Y-176409323D01*
X123897543Y-176409323D02*
X123897543Y-176314085D01*
X123897543Y-176314085D02*
X123945162Y-176218847D01*
X123945162Y-176218847D02*
X124040400Y-176171228D01*
X124040400Y-176171228D02*
X124278495Y-176171228D01*
X124278495Y-176171228D02*
X124373733Y-176123609D01*
X124849924Y-175885514D02*
X124849924Y-176552180D01*
X124849924Y-175980752D02*
X124897543Y-175933133D01*
X124897543Y-175933133D02*
X124992781Y-175885514D01*
X124992781Y-175885514D02*
X125135638Y-175885514D01*
X125135638Y-175885514D02*
X125230876Y-175933133D01*
X125230876Y-175933133D02*
X125278495Y-176028371D01*
X125278495Y-176028371D02*
X125278495Y-176552180D01*
X126354686Y-176552180D02*
X126354686Y-175552180D01*
X126354686Y-176028371D02*
X126926114Y-176028371D01*
X126926114Y-176552180D02*
X126926114Y-175552180D01*
X127830876Y-176552180D02*
X127830876Y-176028371D01*
X127830876Y-176028371D02*
X127783257Y-175933133D01*
X127783257Y-175933133D02*
X127688019Y-175885514D01*
X127688019Y-175885514D02*
X127497543Y-175885514D01*
X127497543Y-175885514D02*
X127402305Y-175933133D01*
X127830876Y-176504561D02*
X127735638Y-176552180D01*
X127735638Y-176552180D02*
X127497543Y-176552180D01*
X127497543Y-176552180D02*
X127402305Y-176504561D01*
X127402305Y-176504561D02*
X127354686Y-176409323D01*
X127354686Y-176409323D02*
X127354686Y-176314085D01*
X127354686Y-176314085D02*
X127402305Y-176218847D01*
X127402305Y-176218847D02*
X127497543Y-176171228D01*
X127497543Y-176171228D02*
X127735638Y-176171228D01*
X127735638Y-176171228D02*
X127830876Y-176123609D01*
X128307067Y-176552180D02*
X128307067Y-175885514D01*
X128307067Y-176075990D02*
X128354686Y-175980752D01*
X128354686Y-175980752D02*
X128402305Y-175933133D01*
X128402305Y-175933133D02*
X128497543Y-175885514D01*
X128497543Y-175885514D02*
X128592781Y-175885514D01*
X129354686Y-176552180D02*
X129354686Y-175552180D01*
X129354686Y-176504561D02*
X129259448Y-176552180D01*
X129259448Y-176552180D02*
X129068972Y-176552180D01*
X129068972Y-176552180D02*
X128973734Y-176504561D01*
X128973734Y-176504561D02*
X128926115Y-176456942D01*
X128926115Y-176456942D02*
X128878496Y-176361704D01*
X128878496Y-176361704D02*
X128878496Y-176075990D01*
X128878496Y-176075990D02*
X128926115Y-175980752D01*
X128926115Y-175980752D02*
X128973734Y-175933133D01*
X128973734Y-175933133D02*
X129068972Y-175885514D01*
X129068972Y-175885514D02*
X129259448Y-175885514D01*
X129259448Y-175885514D02*
X129354686Y-175933133D01*
X129735639Y-175885514D02*
X129973734Y-176552180D01*
X130211829Y-175885514D02*
X129973734Y-176552180D01*
X129973734Y-176552180D02*
X129878496Y-176790276D01*
X129878496Y-176790276D02*
X129830877Y-176837895D01*
X129830877Y-176837895D02*
X129735639Y-176885514D01*
X120278495Y-178172180D02*
X120278495Y-177172180D01*
X120849923Y-178172180D02*
X120421352Y-177600752D01*
X120849923Y-177172180D02*
X120278495Y-177743609D01*
X121278495Y-178172180D02*
X121278495Y-177505514D01*
X121278495Y-177172180D02*
X121230876Y-177219800D01*
X121230876Y-177219800D02*
X121278495Y-177267419D01*
X121278495Y-177267419D02*
X121326114Y-177219800D01*
X121326114Y-177219800D02*
X121278495Y-177172180D01*
X121278495Y-177172180D02*
X121278495Y-177267419D01*
X121611828Y-177505514D02*
X121992780Y-177505514D01*
X121754685Y-177172180D02*
X121754685Y-178029323D01*
X121754685Y-178029323D02*
X121802304Y-178124561D01*
X121802304Y-178124561D02*
X121897542Y-178172180D01*
X121897542Y-178172180D02*
X121992780Y-178172180D01*
X122754685Y-178124561D02*
X122659447Y-178172180D01*
X122659447Y-178172180D02*
X122468971Y-178172180D01*
X122468971Y-178172180D02*
X122373733Y-178124561D01*
X122373733Y-178124561D02*
X122326114Y-178076942D01*
X122326114Y-178076942D02*
X122278495Y-177981704D01*
X122278495Y-177981704D02*
X122278495Y-177695990D01*
X122278495Y-177695990D02*
X122326114Y-177600752D01*
X122326114Y-177600752D02*
X122373733Y-177553133D01*
X122373733Y-177553133D02*
X122468971Y-177505514D01*
X122468971Y-177505514D02*
X122659447Y-177505514D01*
X122659447Y-177505514D02*
X122754685Y-177553133D01*
X123183257Y-178172180D02*
X123183257Y-177172180D01*
X123611828Y-178172180D02*
X123611828Y-177648371D01*
X123611828Y-177648371D02*
X123564209Y-177553133D01*
X123564209Y-177553133D02*
X123468971Y-177505514D01*
X123468971Y-177505514D02*
X123326114Y-177505514D01*
X123326114Y-177505514D02*
X123230876Y-177553133D01*
X123230876Y-177553133D02*
X123183257Y-177600752D01*
X124468971Y-178124561D02*
X124373733Y-178172180D01*
X124373733Y-178172180D02*
X124183257Y-178172180D01*
X124183257Y-178172180D02*
X124088019Y-178124561D01*
X124088019Y-178124561D02*
X124040400Y-178029323D01*
X124040400Y-178029323D02*
X124040400Y-177648371D01*
X124040400Y-177648371D02*
X124088019Y-177553133D01*
X124088019Y-177553133D02*
X124183257Y-177505514D01*
X124183257Y-177505514D02*
X124373733Y-177505514D01*
X124373733Y-177505514D02*
X124468971Y-177553133D01*
X124468971Y-177553133D02*
X124516590Y-177648371D01*
X124516590Y-177648371D02*
X124516590Y-177743609D01*
X124516590Y-177743609D02*
X124040400Y-177838847D01*
X124945162Y-177505514D02*
X124945162Y-178172180D01*
X124945162Y-177600752D02*
X124992781Y-177553133D01*
X124992781Y-177553133D02*
X125088019Y-177505514D01*
X125088019Y-177505514D02*
X125230876Y-177505514D01*
X125230876Y-177505514D02*
X125326114Y-177553133D01*
X125326114Y-177553133D02*
X125373733Y-177648371D01*
X125373733Y-177648371D02*
X125373733Y-178172180D01*
X126307067Y-177172180D02*
X126878495Y-177172180D01*
X126592781Y-178172180D02*
X126592781Y-177172180D01*
X127211829Y-178172180D02*
X127211829Y-177505514D01*
X127211829Y-177172180D02*
X127164210Y-177219800D01*
X127164210Y-177219800D02*
X127211829Y-177267419D01*
X127211829Y-177267419D02*
X127259448Y-177219800D01*
X127259448Y-177219800D02*
X127211829Y-177172180D01*
X127211829Y-177172180D02*
X127211829Y-177267419D01*
X127688019Y-178172180D02*
X127688019Y-177505514D01*
X127688019Y-177600752D02*
X127735638Y-177553133D01*
X127735638Y-177553133D02*
X127830876Y-177505514D01*
X127830876Y-177505514D02*
X127973733Y-177505514D01*
X127973733Y-177505514D02*
X128068971Y-177553133D01*
X128068971Y-177553133D02*
X128116590Y-177648371D01*
X128116590Y-177648371D02*
X128116590Y-178172180D01*
X128116590Y-177648371D02*
X128164209Y-177553133D01*
X128164209Y-177553133D02*
X128259447Y-177505514D01*
X128259447Y-177505514D02*
X128402304Y-177505514D01*
X128402304Y-177505514D02*
X128497543Y-177553133D01*
X128497543Y-177553133D02*
X128545162Y-177648371D01*
X128545162Y-177648371D02*
X128545162Y-178172180D01*
X129402304Y-178124561D02*
X129307066Y-178172180D01*
X129307066Y-178172180D02*
X129116590Y-178172180D01*
X129116590Y-178172180D02*
X129021352Y-178124561D01*
X129021352Y-178124561D02*
X128973733Y-178029323D01*
X128973733Y-178029323D02*
X128973733Y-177648371D01*
X128973733Y-177648371D02*
X129021352Y-177553133D01*
X129021352Y-177553133D02*
X129116590Y-177505514D01*
X129116590Y-177505514D02*
X129307066Y-177505514D01*
X129307066Y-177505514D02*
X129402304Y-177553133D01*
X129402304Y-177553133D02*
X129449923Y-177648371D01*
X129449923Y-177648371D02*
X129449923Y-177743609D01*
X129449923Y-177743609D02*
X128973733Y-177838847D01*
X129878495Y-178172180D02*
X129878495Y-177505514D01*
X129878495Y-177695990D02*
X129926114Y-177600752D01*
X129926114Y-177600752D02*
X129973733Y-177553133D01*
X129973733Y-177553133D02*
X130068971Y-177505514D01*
X130068971Y-177505514D02*
X130164209Y-177505514D01*
X130954686Y-177172180D02*
X131288019Y-178172180D01*
X131288019Y-178172180D02*
X131621352Y-177172180D01*
X132335638Y-178124561D02*
X132240400Y-178172180D01*
X132240400Y-178172180D02*
X132049924Y-178172180D01*
X132049924Y-178172180D02*
X131954686Y-178124561D01*
X131954686Y-178124561D02*
X131907067Y-178029323D01*
X131907067Y-178029323D02*
X131907067Y-177648371D01*
X131907067Y-177648371D02*
X131954686Y-177553133D01*
X131954686Y-177553133D02*
X132049924Y-177505514D01*
X132049924Y-177505514D02*
X132240400Y-177505514D01*
X132240400Y-177505514D02*
X132335638Y-177553133D01*
X132335638Y-177553133D02*
X132383257Y-177648371D01*
X132383257Y-177648371D02*
X132383257Y-177743609D01*
X132383257Y-177743609D02*
X131907067Y-177838847D01*
X132811829Y-178172180D02*
X132811829Y-177505514D01*
X132811829Y-177695990D02*
X132859448Y-177600752D01*
X132859448Y-177600752D02*
X132907067Y-177553133D01*
X132907067Y-177553133D02*
X133002305Y-177505514D01*
X133002305Y-177505514D02*
X133097543Y-177505514D01*
X133983258Y-177267419D02*
X134030877Y-177219800D01*
X134030877Y-177219800D02*
X134126115Y-177172180D01*
X134126115Y-177172180D02*
X134364210Y-177172180D01*
X134364210Y-177172180D02*
X134459448Y-177219800D01*
X134459448Y-177219800D02*
X134507067Y-177267419D01*
X134507067Y-177267419D02*
X134554686Y-177362657D01*
X134554686Y-177362657D02*
X134554686Y-177457895D01*
X134554686Y-177457895D02*
X134507067Y-177600752D01*
X134507067Y-177600752D02*
X133935639Y-178172180D01*
X133935639Y-178172180D02*
X134554686Y-178172180D01*
X134983258Y-178076942D02*
X135030877Y-178124561D01*
X135030877Y-178124561D02*
X134983258Y-178172180D01*
X134983258Y-178172180D02*
X134935639Y-178124561D01*
X134935639Y-178124561D02*
X134983258Y-178076942D01*
X134983258Y-178076942D02*
X134983258Y-178172180D01*
X135649924Y-177172180D02*
X135745162Y-177172180D01*
X135745162Y-177172180D02*
X135840400Y-177219800D01*
X135840400Y-177219800D02*
X135888019Y-177267419D01*
X135888019Y-177267419D02*
X135935638Y-177362657D01*
X135935638Y-177362657D02*
X135983257Y-177553133D01*
X135983257Y-177553133D02*
X135983257Y-177791228D01*
X135983257Y-177791228D02*
X135935638Y-177981704D01*
X135935638Y-177981704D02*
X135888019Y-178076942D01*
X135888019Y-178076942D02*
X135840400Y-178124561D01*
X135840400Y-178124561D02*
X135745162Y-178172180D01*
X135745162Y-178172180D02*
X135649924Y-178172180D01*
X135649924Y-178172180D02*
X135554686Y-178124561D01*
X135554686Y-178124561D02*
X135507067Y-178076942D01*
X135507067Y-178076942D02*
X135459448Y-177981704D01*
X135459448Y-177981704D02*
X135411829Y-177791228D01*
X135411829Y-177791228D02*
X135411829Y-177553133D01*
X135411829Y-177553133D02*
X135459448Y-177362657D01*
X135459448Y-177362657D02*
X135507067Y-177267419D01*
X135507067Y-177267419D02*
X135554686Y-177219800D01*
X135554686Y-177219800D02*
X135649924Y-177172180D01*
X120707066Y-179125514D02*
X120707066Y-179792180D01*
X120468971Y-178744561D02*
X120230876Y-179458847D01*
X120230876Y-179458847D02*
X120849923Y-179458847D01*
X121945161Y-178744561D02*
X121088019Y-180030276D01*
X122230876Y-178887419D02*
X122278495Y-178839800D01*
X122278495Y-178839800D02*
X122373733Y-178792180D01*
X122373733Y-178792180D02*
X122611828Y-178792180D01*
X122611828Y-178792180D02*
X122707066Y-178839800D01*
X122707066Y-178839800D02*
X122754685Y-178887419D01*
X122754685Y-178887419D02*
X122802304Y-178982657D01*
X122802304Y-178982657D02*
X122802304Y-179077895D01*
X122802304Y-179077895D02*
X122754685Y-179220752D01*
X122754685Y-179220752D02*
X122183257Y-179792180D01*
X122183257Y-179792180D02*
X122802304Y-179792180D01*
X123754685Y-179792180D02*
X123183257Y-179792180D01*
X123468971Y-179792180D02*
X123468971Y-178792180D01*
X123468971Y-178792180D02*
X123373733Y-178935038D01*
X123373733Y-178935038D02*
X123278495Y-179030276D01*
X123278495Y-179030276D02*
X123183257Y-179077895D01*
X124897542Y-178744561D02*
X124040400Y-180030276D01*
X125183257Y-178887419D02*
X125230876Y-178839800D01*
X125230876Y-178839800D02*
X125326114Y-178792180D01*
X125326114Y-178792180D02*
X125564209Y-178792180D01*
X125564209Y-178792180D02*
X125659447Y-178839800D01*
X125659447Y-178839800D02*
X125707066Y-178887419D01*
X125707066Y-178887419D02*
X125754685Y-178982657D01*
X125754685Y-178982657D02*
X125754685Y-179077895D01*
X125754685Y-179077895D02*
X125707066Y-179220752D01*
X125707066Y-179220752D02*
X125135638Y-179792180D01*
X125135638Y-179792180D02*
X125754685Y-179792180D01*
X126088019Y-178792180D02*
X126707066Y-178792180D01*
X126707066Y-178792180D02*
X126373733Y-179173133D01*
X126373733Y-179173133D02*
X126516590Y-179173133D01*
X126516590Y-179173133D02*
X126611828Y-179220752D01*
X126611828Y-179220752D02*
X126659447Y-179268371D01*
X126659447Y-179268371D02*
X126707066Y-179363609D01*
X126707066Y-179363609D02*
X126707066Y-179601704D01*
X126707066Y-179601704D02*
X126659447Y-179696942D01*
X126659447Y-179696942D02*
X126611828Y-179744561D01*
X126611828Y-179744561D02*
X126516590Y-179792180D01*
X126516590Y-179792180D02*
X126230876Y-179792180D01*
X126230876Y-179792180D02*
X126135638Y-179744561D01*
X126135638Y-179744561D02*
X126088019Y-179696942D01*
%TO.C,LS1*%
X116967380Y-171762857D02*
X116967380Y-172239047D01*
X116967380Y-172239047D02*
X115967380Y-172239047D01*
X116919761Y-171477142D02*
X116967380Y-171334285D01*
X116967380Y-171334285D02*
X116967380Y-171096190D01*
X116967380Y-171096190D02*
X116919761Y-171000952D01*
X116919761Y-171000952D02*
X116872142Y-170953333D01*
X116872142Y-170953333D02*
X116776904Y-170905714D01*
X116776904Y-170905714D02*
X116681666Y-170905714D01*
X116681666Y-170905714D02*
X116586428Y-170953333D01*
X116586428Y-170953333D02*
X116538809Y-171000952D01*
X116538809Y-171000952D02*
X116491190Y-171096190D01*
X116491190Y-171096190D02*
X116443571Y-171286666D01*
X116443571Y-171286666D02*
X116395952Y-171381904D01*
X116395952Y-171381904D02*
X116348333Y-171429523D01*
X116348333Y-171429523D02*
X116253095Y-171477142D01*
X116253095Y-171477142D02*
X116157857Y-171477142D01*
X116157857Y-171477142D02*
X116062619Y-171429523D01*
X116062619Y-171429523D02*
X116015000Y-171381904D01*
X116015000Y-171381904D02*
X115967380Y-171286666D01*
X115967380Y-171286666D02*
X115967380Y-171048571D01*
X115967380Y-171048571D02*
X116015000Y-170905714D01*
X116967380Y-169953333D02*
X116967380Y-170524761D01*
X116967380Y-170239047D02*
X115967380Y-170239047D01*
X115967380Y-170239047D02*
X116110238Y-170334285D01*
X116110238Y-170334285D02*
X116205476Y-170429523D01*
X116205476Y-170429523D02*
X116253095Y-170524761D01*
X111926428Y-167690951D02*
X111926428Y-166929047D01*
X112307380Y-167309999D02*
X111545476Y-167309999D01*
%TO.C,C6*%
X88733333Y-146162142D02*
X88685714Y-146209761D01*
X88685714Y-146209761D02*
X88542857Y-146257380D01*
X88542857Y-146257380D02*
X88447619Y-146257380D01*
X88447619Y-146257380D02*
X88304762Y-146209761D01*
X88304762Y-146209761D02*
X88209524Y-146114523D01*
X88209524Y-146114523D02*
X88161905Y-146019285D01*
X88161905Y-146019285D02*
X88114286Y-145828809D01*
X88114286Y-145828809D02*
X88114286Y-145685952D01*
X88114286Y-145685952D02*
X88161905Y-145495476D01*
X88161905Y-145495476D02*
X88209524Y-145400238D01*
X88209524Y-145400238D02*
X88304762Y-145305000D01*
X88304762Y-145305000D02*
X88447619Y-145257380D01*
X88447619Y-145257380D02*
X88542857Y-145257380D01*
X88542857Y-145257380D02*
X88685714Y-145305000D01*
X88685714Y-145305000D02*
X88733333Y-145352619D01*
X89590476Y-145257380D02*
X89400000Y-145257380D01*
X89400000Y-145257380D02*
X89304762Y-145305000D01*
X89304762Y-145305000D02*
X89257143Y-145352619D01*
X89257143Y-145352619D02*
X89161905Y-145495476D01*
X89161905Y-145495476D02*
X89114286Y-145685952D01*
X89114286Y-145685952D02*
X89114286Y-146066904D01*
X89114286Y-146066904D02*
X89161905Y-146162142D01*
X89161905Y-146162142D02*
X89209524Y-146209761D01*
X89209524Y-146209761D02*
X89304762Y-146257380D01*
X89304762Y-146257380D02*
X89495238Y-146257380D01*
X89495238Y-146257380D02*
X89590476Y-146209761D01*
X89590476Y-146209761D02*
X89638095Y-146162142D01*
X89638095Y-146162142D02*
X89685714Y-146066904D01*
X89685714Y-146066904D02*
X89685714Y-145828809D01*
X89685714Y-145828809D02*
X89638095Y-145733571D01*
X89638095Y-145733571D02*
X89590476Y-145685952D01*
X89590476Y-145685952D02*
X89495238Y-145638333D01*
X89495238Y-145638333D02*
X89304762Y-145638333D01*
X89304762Y-145638333D02*
X89209524Y-145685952D01*
X89209524Y-145685952D02*
X89161905Y-145733571D01*
X89161905Y-145733571D02*
X89114286Y-145828809D01*
%TO.C,C4*%
X106022142Y-157811666D02*
X106069761Y-157859285D01*
X106069761Y-157859285D02*
X106117380Y-158002142D01*
X106117380Y-158002142D02*
X106117380Y-158097380D01*
X106117380Y-158097380D02*
X106069761Y-158240237D01*
X106069761Y-158240237D02*
X105974523Y-158335475D01*
X105974523Y-158335475D02*
X105879285Y-158383094D01*
X105879285Y-158383094D02*
X105688809Y-158430713D01*
X105688809Y-158430713D02*
X105545952Y-158430713D01*
X105545952Y-158430713D02*
X105355476Y-158383094D01*
X105355476Y-158383094D02*
X105260238Y-158335475D01*
X105260238Y-158335475D02*
X105165000Y-158240237D01*
X105165000Y-158240237D02*
X105117380Y-158097380D01*
X105117380Y-158097380D02*
X105117380Y-158002142D01*
X105117380Y-158002142D02*
X105165000Y-157859285D01*
X105165000Y-157859285D02*
X105212619Y-157811666D01*
X105450714Y-156954523D02*
X106117380Y-156954523D01*
X105069761Y-157192618D02*
X105784047Y-157430713D01*
X105784047Y-157430713D02*
X105784047Y-156811666D01*
%TO.C,J1*%
X60427380Y-153673333D02*
X61141666Y-153673333D01*
X61141666Y-153673333D02*
X61284523Y-153720952D01*
X61284523Y-153720952D02*
X61379761Y-153816190D01*
X61379761Y-153816190D02*
X61427380Y-153959047D01*
X61427380Y-153959047D02*
X61427380Y-154054285D01*
X61427380Y-152673333D02*
X61427380Y-153244761D01*
X61427380Y-152959047D02*
X60427380Y-152959047D01*
X60427380Y-152959047D02*
X60570238Y-153054285D01*
X60570238Y-153054285D02*
X60665476Y-153149523D01*
X60665476Y-153149523D02*
X60713095Y-153244761D01*
%TO.C,Y1*%
X97483809Y-165931190D02*
X97483809Y-166407380D01*
X97150476Y-165407380D02*
X97483809Y-165931190D01*
X97483809Y-165931190D02*
X97817142Y-165407380D01*
X98674285Y-166407380D02*
X98102857Y-166407380D01*
X98388571Y-166407380D02*
X98388571Y-165407380D01*
X98388571Y-165407380D02*
X98293333Y-165550238D01*
X98293333Y-165550238D02*
X98198095Y-165645476D01*
X98198095Y-165645476D02*
X98102857Y-165693095D01*
%TO.C,F1*%
X65706666Y-131813571D02*
X65373333Y-131813571D01*
X65373333Y-132337380D02*
X65373333Y-131337380D01*
X65373333Y-131337380D02*
X65849523Y-131337380D01*
X66754285Y-132337380D02*
X66182857Y-132337380D01*
X66468571Y-132337380D02*
X66468571Y-131337380D01*
X66468571Y-131337380D02*
X66373333Y-131480238D01*
X66373333Y-131480238D02*
X66278095Y-131575476D01*
X66278095Y-131575476D02*
X66182857Y-131623095D01*
%TO.C,R7*%
X114848333Y-145147380D02*
X114515000Y-144671190D01*
X114276905Y-145147380D02*
X114276905Y-144147380D01*
X114276905Y-144147380D02*
X114657857Y-144147380D01*
X114657857Y-144147380D02*
X114753095Y-144195000D01*
X114753095Y-144195000D02*
X114800714Y-144242619D01*
X114800714Y-144242619D02*
X114848333Y-144337857D01*
X114848333Y-144337857D02*
X114848333Y-144480714D01*
X114848333Y-144480714D02*
X114800714Y-144575952D01*
X114800714Y-144575952D02*
X114753095Y-144623571D01*
X114753095Y-144623571D02*
X114657857Y-144671190D01*
X114657857Y-144671190D02*
X114276905Y-144671190D01*
X115181667Y-144147380D02*
X115848333Y-144147380D01*
X115848333Y-144147380D02*
X115419762Y-145147380D01*
%TO.C,C10*%
X55042142Y-166517857D02*
X55089761Y-166565476D01*
X55089761Y-166565476D02*
X55137380Y-166708333D01*
X55137380Y-166708333D02*
X55137380Y-166803571D01*
X55137380Y-166803571D02*
X55089761Y-166946428D01*
X55089761Y-166946428D02*
X54994523Y-167041666D01*
X54994523Y-167041666D02*
X54899285Y-167089285D01*
X54899285Y-167089285D02*
X54708809Y-167136904D01*
X54708809Y-167136904D02*
X54565952Y-167136904D01*
X54565952Y-167136904D02*
X54375476Y-167089285D01*
X54375476Y-167089285D02*
X54280238Y-167041666D01*
X54280238Y-167041666D02*
X54185000Y-166946428D01*
X54185000Y-166946428D02*
X54137380Y-166803571D01*
X54137380Y-166803571D02*
X54137380Y-166708333D01*
X54137380Y-166708333D02*
X54185000Y-166565476D01*
X54185000Y-166565476D02*
X54232619Y-166517857D01*
X55137380Y-165565476D02*
X55137380Y-166136904D01*
X55137380Y-165851190D02*
X54137380Y-165851190D01*
X54137380Y-165851190D02*
X54280238Y-165946428D01*
X54280238Y-165946428D02*
X54375476Y-166041666D01*
X54375476Y-166041666D02*
X54423095Y-166136904D01*
X54137380Y-164946428D02*
X54137380Y-164851190D01*
X54137380Y-164851190D02*
X54185000Y-164755952D01*
X54185000Y-164755952D02*
X54232619Y-164708333D01*
X54232619Y-164708333D02*
X54327857Y-164660714D01*
X54327857Y-164660714D02*
X54518333Y-164613095D01*
X54518333Y-164613095D02*
X54756428Y-164613095D01*
X54756428Y-164613095D02*
X54946904Y-164660714D01*
X54946904Y-164660714D02*
X55042142Y-164708333D01*
X55042142Y-164708333D02*
X55089761Y-164755952D01*
X55089761Y-164755952D02*
X55137380Y-164851190D01*
X55137380Y-164851190D02*
X55137380Y-164946428D01*
X55137380Y-164946428D02*
X55089761Y-165041666D01*
X55089761Y-165041666D02*
X55042142Y-165089285D01*
X55042142Y-165089285D02*
X54946904Y-165136904D01*
X54946904Y-165136904D02*
X54756428Y-165184523D01*
X54756428Y-165184523D02*
X54518333Y-165184523D01*
X54518333Y-165184523D02*
X54327857Y-165136904D01*
X54327857Y-165136904D02*
X54232619Y-165089285D01*
X54232619Y-165089285D02*
X54185000Y-165041666D01*
X54185000Y-165041666D02*
X54137380Y-164946428D01*
%TO.C,R2*%
X69797380Y-173841666D02*
X69321190Y-174174999D01*
X69797380Y-174413094D02*
X68797380Y-174413094D01*
X68797380Y-174413094D02*
X68797380Y-174032142D01*
X68797380Y-174032142D02*
X68845000Y-173936904D01*
X68845000Y-173936904D02*
X68892619Y-173889285D01*
X68892619Y-173889285D02*
X68987857Y-173841666D01*
X68987857Y-173841666D02*
X69130714Y-173841666D01*
X69130714Y-173841666D02*
X69225952Y-173889285D01*
X69225952Y-173889285D02*
X69273571Y-173936904D01*
X69273571Y-173936904D02*
X69321190Y-174032142D01*
X69321190Y-174032142D02*
X69321190Y-174413094D01*
X68892619Y-173460713D02*
X68845000Y-173413094D01*
X68845000Y-173413094D02*
X68797380Y-173317856D01*
X68797380Y-173317856D02*
X68797380Y-173079761D01*
X68797380Y-173079761D02*
X68845000Y-172984523D01*
X68845000Y-172984523D02*
X68892619Y-172936904D01*
X68892619Y-172936904D02*
X68987857Y-172889285D01*
X68987857Y-172889285D02*
X69083095Y-172889285D01*
X69083095Y-172889285D02*
X69225952Y-172936904D01*
X69225952Y-172936904D02*
X69797380Y-173508332D01*
X69797380Y-173508332D02*
X69797380Y-172889285D01*
%TO.C,R11*%
X114372142Y-134987380D02*
X114038809Y-134511190D01*
X113800714Y-134987380D02*
X113800714Y-133987380D01*
X113800714Y-133987380D02*
X114181666Y-133987380D01*
X114181666Y-133987380D02*
X114276904Y-134035000D01*
X114276904Y-134035000D02*
X114324523Y-134082619D01*
X114324523Y-134082619D02*
X114372142Y-134177857D01*
X114372142Y-134177857D02*
X114372142Y-134320714D01*
X114372142Y-134320714D02*
X114324523Y-134415952D01*
X114324523Y-134415952D02*
X114276904Y-134463571D01*
X114276904Y-134463571D02*
X114181666Y-134511190D01*
X114181666Y-134511190D02*
X113800714Y-134511190D01*
X115324523Y-134987380D02*
X114753095Y-134987380D01*
X115038809Y-134987380D02*
X115038809Y-133987380D01*
X115038809Y-133987380D02*
X114943571Y-134130238D01*
X114943571Y-134130238D02*
X114848333Y-134225476D01*
X114848333Y-134225476D02*
X114753095Y-134273095D01*
X116276904Y-134987380D02*
X115705476Y-134987380D01*
X115991190Y-134987380D02*
X115991190Y-133987380D01*
X115991190Y-133987380D02*
X115895952Y-134130238D01*
X115895952Y-134130238D02*
X115800714Y-134225476D01*
X115800714Y-134225476D02*
X115705476Y-134273095D01*
%TO.C,U4*%
X70497380Y-128161904D02*
X71306904Y-128161904D01*
X71306904Y-128161904D02*
X71402142Y-128114285D01*
X71402142Y-128114285D02*
X71449761Y-128066666D01*
X71449761Y-128066666D02*
X71497380Y-127971428D01*
X71497380Y-127971428D02*
X71497380Y-127780952D01*
X71497380Y-127780952D02*
X71449761Y-127685714D01*
X71449761Y-127685714D02*
X71402142Y-127638095D01*
X71402142Y-127638095D02*
X71306904Y-127590476D01*
X71306904Y-127590476D02*
X70497380Y-127590476D01*
X70830714Y-126685714D02*
X71497380Y-126685714D01*
X70449761Y-126923809D02*
X71164047Y-127161904D01*
X71164047Y-127161904D02*
X71164047Y-126542857D01*
%TO.C,R1*%
X138957380Y-136501666D02*
X138481190Y-136834999D01*
X138957380Y-137073094D02*
X137957380Y-137073094D01*
X137957380Y-137073094D02*
X137957380Y-136692142D01*
X137957380Y-136692142D02*
X138005000Y-136596904D01*
X138005000Y-136596904D02*
X138052619Y-136549285D01*
X138052619Y-136549285D02*
X138147857Y-136501666D01*
X138147857Y-136501666D02*
X138290714Y-136501666D01*
X138290714Y-136501666D02*
X138385952Y-136549285D01*
X138385952Y-136549285D02*
X138433571Y-136596904D01*
X138433571Y-136596904D02*
X138481190Y-136692142D01*
X138481190Y-136692142D02*
X138481190Y-137073094D01*
X138957380Y-135549285D02*
X138957380Y-136120713D01*
X138957380Y-135834999D02*
X137957380Y-135834999D01*
X137957380Y-135834999D02*
X138100238Y-135930237D01*
X138100238Y-135930237D02*
X138195476Y-136025475D01*
X138195476Y-136025475D02*
X138243095Y-136120713D01*
%TO.C,C2*%
X93162142Y-167806666D02*
X93209761Y-167854285D01*
X93209761Y-167854285D02*
X93257380Y-167997142D01*
X93257380Y-167997142D02*
X93257380Y-168092380D01*
X93257380Y-168092380D02*
X93209761Y-168235237D01*
X93209761Y-168235237D02*
X93114523Y-168330475D01*
X93114523Y-168330475D02*
X93019285Y-168378094D01*
X93019285Y-168378094D02*
X92828809Y-168425713D01*
X92828809Y-168425713D02*
X92685952Y-168425713D01*
X92685952Y-168425713D02*
X92495476Y-168378094D01*
X92495476Y-168378094D02*
X92400238Y-168330475D01*
X92400238Y-168330475D02*
X92305000Y-168235237D01*
X92305000Y-168235237D02*
X92257380Y-168092380D01*
X92257380Y-168092380D02*
X92257380Y-167997142D01*
X92257380Y-167997142D02*
X92305000Y-167854285D01*
X92305000Y-167854285D02*
X92352619Y-167806666D01*
X92352619Y-167425713D02*
X92305000Y-167378094D01*
X92305000Y-167378094D02*
X92257380Y-167282856D01*
X92257380Y-167282856D02*
X92257380Y-167044761D01*
X92257380Y-167044761D02*
X92305000Y-166949523D01*
X92305000Y-166949523D02*
X92352619Y-166901904D01*
X92352619Y-166901904D02*
X92447857Y-166854285D01*
X92447857Y-166854285D02*
X92543095Y-166854285D01*
X92543095Y-166854285D02*
X92685952Y-166901904D01*
X92685952Y-166901904D02*
X93257380Y-167473332D01*
X93257380Y-167473332D02*
X93257380Y-166854285D01*
%TO.C,R16*%
X106694642Y-150467380D02*
X106361309Y-149991190D01*
X106123214Y-150467380D02*
X106123214Y-149467380D01*
X106123214Y-149467380D02*
X106504166Y-149467380D01*
X106504166Y-149467380D02*
X106599404Y-149515000D01*
X106599404Y-149515000D02*
X106647023Y-149562619D01*
X106647023Y-149562619D02*
X106694642Y-149657857D01*
X106694642Y-149657857D02*
X106694642Y-149800714D01*
X106694642Y-149800714D02*
X106647023Y-149895952D01*
X106647023Y-149895952D02*
X106599404Y-149943571D01*
X106599404Y-149943571D02*
X106504166Y-149991190D01*
X106504166Y-149991190D02*
X106123214Y-149991190D01*
X107647023Y-150467380D02*
X107075595Y-150467380D01*
X107361309Y-150467380D02*
X107361309Y-149467380D01*
X107361309Y-149467380D02*
X107266071Y-149610238D01*
X107266071Y-149610238D02*
X107170833Y-149705476D01*
X107170833Y-149705476D02*
X107075595Y-149753095D01*
X108504166Y-149467380D02*
X108313690Y-149467380D01*
X108313690Y-149467380D02*
X108218452Y-149515000D01*
X108218452Y-149515000D02*
X108170833Y-149562619D01*
X108170833Y-149562619D02*
X108075595Y-149705476D01*
X108075595Y-149705476D02*
X108027976Y-149895952D01*
X108027976Y-149895952D02*
X108027976Y-150276904D01*
X108027976Y-150276904D02*
X108075595Y-150372142D01*
X108075595Y-150372142D02*
X108123214Y-150419761D01*
X108123214Y-150419761D02*
X108218452Y-150467380D01*
X108218452Y-150467380D02*
X108408928Y-150467380D01*
X108408928Y-150467380D02*
X108504166Y-150419761D01*
X108504166Y-150419761D02*
X108551785Y-150372142D01*
X108551785Y-150372142D02*
X108599404Y-150276904D01*
X108599404Y-150276904D02*
X108599404Y-150038809D01*
X108599404Y-150038809D02*
X108551785Y-149943571D01*
X108551785Y-149943571D02*
X108504166Y-149895952D01*
X108504166Y-149895952D02*
X108408928Y-149848333D01*
X108408928Y-149848333D02*
X108218452Y-149848333D01*
X108218452Y-149848333D02*
X108123214Y-149895952D01*
X108123214Y-149895952D02*
X108075595Y-149943571D01*
X108075595Y-149943571D02*
X108027976Y-150038809D01*
%TO.C,C14*%
X82357142Y-155022142D02*
X82309523Y-155069761D01*
X82309523Y-155069761D02*
X82166666Y-155117380D01*
X82166666Y-155117380D02*
X82071428Y-155117380D01*
X82071428Y-155117380D02*
X81928571Y-155069761D01*
X81928571Y-155069761D02*
X81833333Y-154974523D01*
X81833333Y-154974523D02*
X81785714Y-154879285D01*
X81785714Y-154879285D02*
X81738095Y-154688809D01*
X81738095Y-154688809D02*
X81738095Y-154545952D01*
X81738095Y-154545952D02*
X81785714Y-154355476D01*
X81785714Y-154355476D02*
X81833333Y-154260238D01*
X81833333Y-154260238D02*
X81928571Y-154165000D01*
X81928571Y-154165000D02*
X82071428Y-154117380D01*
X82071428Y-154117380D02*
X82166666Y-154117380D01*
X82166666Y-154117380D02*
X82309523Y-154165000D01*
X82309523Y-154165000D02*
X82357142Y-154212619D01*
X83309523Y-155117380D02*
X82738095Y-155117380D01*
X83023809Y-155117380D02*
X83023809Y-154117380D01*
X83023809Y-154117380D02*
X82928571Y-154260238D01*
X82928571Y-154260238D02*
X82833333Y-154355476D01*
X82833333Y-154355476D02*
X82738095Y-154403095D01*
X84166666Y-154450714D02*
X84166666Y-155117380D01*
X83928571Y-154069761D02*
X83690476Y-154784047D01*
X83690476Y-154784047D02*
X84309523Y-154784047D01*
%TO.C,R3*%
X65070591Y-148117380D02*
X64737258Y-147641190D01*
X64499163Y-148117380D02*
X64499163Y-147117380D01*
X64499163Y-147117380D02*
X64880115Y-147117380D01*
X64880115Y-147117380D02*
X64975353Y-147165000D01*
X64975353Y-147165000D02*
X65022972Y-147212619D01*
X65022972Y-147212619D02*
X65070591Y-147307857D01*
X65070591Y-147307857D02*
X65070591Y-147450714D01*
X65070591Y-147450714D02*
X65022972Y-147545952D01*
X65022972Y-147545952D02*
X64975353Y-147593571D01*
X64975353Y-147593571D02*
X64880115Y-147641190D01*
X64880115Y-147641190D02*
X64499163Y-147641190D01*
X65403925Y-147117380D02*
X66022972Y-147117380D01*
X66022972Y-147117380D02*
X65689639Y-147498333D01*
X65689639Y-147498333D02*
X65832496Y-147498333D01*
X65832496Y-147498333D02*
X65927734Y-147545952D01*
X65927734Y-147545952D02*
X65975353Y-147593571D01*
X65975353Y-147593571D02*
X66022972Y-147688809D01*
X66022972Y-147688809D02*
X66022972Y-147926904D01*
X66022972Y-147926904D02*
X65975353Y-148022142D01*
X65975353Y-148022142D02*
X65927734Y-148069761D01*
X65927734Y-148069761D02*
X65832496Y-148117380D01*
X65832496Y-148117380D02*
X65546782Y-148117380D01*
X65546782Y-148117380D02*
X65451544Y-148069761D01*
X65451544Y-148069761D02*
X65403925Y-148022142D01*
%TO.C,R9*%
X113123333Y-139617380D02*
X112790000Y-139141190D01*
X112551905Y-139617380D02*
X112551905Y-138617380D01*
X112551905Y-138617380D02*
X112932857Y-138617380D01*
X112932857Y-138617380D02*
X113028095Y-138665000D01*
X113028095Y-138665000D02*
X113075714Y-138712619D01*
X113075714Y-138712619D02*
X113123333Y-138807857D01*
X113123333Y-138807857D02*
X113123333Y-138950714D01*
X113123333Y-138950714D02*
X113075714Y-139045952D01*
X113075714Y-139045952D02*
X113028095Y-139093571D01*
X113028095Y-139093571D02*
X112932857Y-139141190D01*
X112932857Y-139141190D02*
X112551905Y-139141190D01*
X113599524Y-139617380D02*
X113790000Y-139617380D01*
X113790000Y-139617380D02*
X113885238Y-139569761D01*
X113885238Y-139569761D02*
X113932857Y-139522142D01*
X113932857Y-139522142D02*
X114028095Y-139379285D01*
X114028095Y-139379285D02*
X114075714Y-139188809D01*
X114075714Y-139188809D02*
X114075714Y-138807857D01*
X114075714Y-138807857D02*
X114028095Y-138712619D01*
X114028095Y-138712619D02*
X113980476Y-138665000D01*
X113980476Y-138665000D02*
X113885238Y-138617380D01*
X113885238Y-138617380D02*
X113694762Y-138617380D01*
X113694762Y-138617380D02*
X113599524Y-138665000D01*
X113599524Y-138665000D02*
X113551905Y-138712619D01*
X113551905Y-138712619D02*
X113504286Y-138807857D01*
X113504286Y-138807857D02*
X113504286Y-139045952D01*
X113504286Y-139045952D02*
X113551905Y-139141190D01*
X113551905Y-139141190D02*
X113599524Y-139188809D01*
X113599524Y-139188809D02*
X113694762Y-139236428D01*
X113694762Y-139236428D02*
X113885238Y-139236428D01*
X113885238Y-139236428D02*
X113980476Y-139188809D01*
X113980476Y-139188809D02*
X114028095Y-139141190D01*
X114028095Y-139141190D02*
X114075714Y-139045952D01*
%TO.C,C15*%
X96652142Y-143942142D02*
X96604523Y-143989761D01*
X96604523Y-143989761D02*
X96461666Y-144037380D01*
X96461666Y-144037380D02*
X96366428Y-144037380D01*
X96366428Y-144037380D02*
X96223571Y-143989761D01*
X96223571Y-143989761D02*
X96128333Y-143894523D01*
X96128333Y-143894523D02*
X96080714Y-143799285D01*
X96080714Y-143799285D02*
X96033095Y-143608809D01*
X96033095Y-143608809D02*
X96033095Y-143465952D01*
X96033095Y-143465952D02*
X96080714Y-143275476D01*
X96080714Y-143275476D02*
X96128333Y-143180238D01*
X96128333Y-143180238D02*
X96223571Y-143085000D01*
X96223571Y-143085000D02*
X96366428Y-143037380D01*
X96366428Y-143037380D02*
X96461666Y-143037380D01*
X96461666Y-143037380D02*
X96604523Y-143085000D01*
X96604523Y-143085000D02*
X96652142Y-143132619D01*
X97604523Y-144037380D02*
X97033095Y-144037380D01*
X97318809Y-144037380D02*
X97318809Y-143037380D01*
X97318809Y-143037380D02*
X97223571Y-143180238D01*
X97223571Y-143180238D02*
X97128333Y-143275476D01*
X97128333Y-143275476D02*
X97033095Y-143323095D01*
X98509285Y-143037380D02*
X98033095Y-143037380D01*
X98033095Y-143037380D02*
X97985476Y-143513571D01*
X97985476Y-143513571D02*
X98033095Y-143465952D01*
X98033095Y-143465952D02*
X98128333Y-143418333D01*
X98128333Y-143418333D02*
X98366428Y-143418333D01*
X98366428Y-143418333D02*
X98461666Y-143465952D01*
X98461666Y-143465952D02*
X98509285Y-143513571D01*
X98509285Y-143513571D02*
X98556904Y-143608809D01*
X98556904Y-143608809D02*
X98556904Y-143846904D01*
X98556904Y-143846904D02*
X98509285Y-143942142D01*
X98509285Y-143942142D02*
X98461666Y-143989761D01*
X98461666Y-143989761D02*
X98366428Y-144037380D01*
X98366428Y-144037380D02*
X98128333Y-144037380D01*
X98128333Y-144037380D02*
X98033095Y-143989761D01*
X98033095Y-143989761D02*
X97985476Y-143942142D01*
%TO.C,J3*%
X85677380Y-177803333D02*
X86391666Y-177803333D01*
X86391666Y-177803333D02*
X86534523Y-177850952D01*
X86534523Y-177850952D02*
X86629761Y-177946190D01*
X86629761Y-177946190D02*
X86677380Y-178089047D01*
X86677380Y-178089047D02*
X86677380Y-178184285D01*
X85677380Y-177422380D02*
X85677380Y-176803333D01*
X85677380Y-176803333D02*
X86058333Y-177136666D01*
X86058333Y-177136666D02*
X86058333Y-176993809D01*
X86058333Y-176993809D02*
X86105952Y-176898571D01*
X86105952Y-176898571D02*
X86153571Y-176850952D01*
X86153571Y-176850952D02*
X86248809Y-176803333D01*
X86248809Y-176803333D02*
X86486904Y-176803333D01*
X86486904Y-176803333D02*
X86582142Y-176850952D01*
X86582142Y-176850952D02*
X86629761Y-176898571D01*
X86629761Y-176898571D02*
X86677380Y-176993809D01*
X86677380Y-176993809D02*
X86677380Y-177279523D01*
X86677380Y-177279523D02*
X86629761Y-177374761D01*
X86629761Y-177374761D02*
X86582142Y-177422380D01*
%TO.C,C9*%
X91044142Y-165114266D02*
X91091761Y-165161885D01*
X91091761Y-165161885D02*
X91139380Y-165304742D01*
X91139380Y-165304742D02*
X91139380Y-165399980D01*
X91139380Y-165399980D02*
X91091761Y-165542837D01*
X91091761Y-165542837D02*
X90996523Y-165638075D01*
X90996523Y-165638075D02*
X90901285Y-165685694D01*
X90901285Y-165685694D02*
X90710809Y-165733313D01*
X90710809Y-165733313D02*
X90567952Y-165733313D01*
X90567952Y-165733313D02*
X90377476Y-165685694D01*
X90377476Y-165685694D02*
X90282238Y-165638075D01*
X90282238Y-165638075D02*
X90187000Y-165542837D01*
X90187000Y-165542837D02*
X90139380Y-165399980D01*
X90139380Y-165399980D02*
X90139380Y-165304742D01*
X90139380Y-165304742D02*
X90187000Y-165161885D01*
X90187000Y-165161885D02*
X90234619Y-165114266D01*
X91139380Y-164638075D02*
X91139380Y-164447599D01*
X91139380Y-164447599D02*
X91091761Y-164352361D01*
X91091761Y-164352361D02*
X91044142Y-164304742D01*
X91044142Y-164304742D02*
X90901285Y-164209504D01*
X90901285Y-164209504D02*
X90710809Y-164161885D01*
X90710809Y-164161885D02*
X90329857Y-164161885D01*
X90329857Y-164161885D02*
X90234619Y-164209504D01*
X90234619Y-164209504D02*
X90187000Y-164257123D01*
X90187000Y-164257123D02*
X90139380Y-164352361D01*
X90139380Y-164352361D02*
X90139380Y-164542837D01*
X90139380Y-164542837D02*
X90187000Y-164638075D01*
X90187000Y-164638075D02*
X90234619Y-164685694D01*
X90234619Y-164685694D02*
X90329857Y-164733313D01*
X90329857Y-164733313D02*
X90567952Y-164733313D01*
X90567952Y-164733313D02*
X90663190Y-164685694D01*
X90663190Y-164685694D02*
X90710809Y-164638075D01*
X90710809Y-164638075D02*
X90758428Y-164542837D01*
X90758428Y-164542837D02*
X90758428Y-164352361D01*
X90758428Y-164352361D02*
X90710809Y-164257123D01*
X90710809Y-164257123D02*
X90663190Y-164209504D01*
X90663190Y-164209504D02*
X90567952Y-164161885D01*
%TO.C,C3*%
X83333333Y-150022142D02*
X83285714Y-150069761D01*
X83285714Y-150069761D02*
X83142857Y-150117380D01*
X83142857Y-150117380D02*
X83047619Y-150117380D01*
X83047619Y-150117380D02*
X82904762Y-150069761D01*
X82904762Y-150069761D02*
X82809524Y-149974523D01*
X82809524Y-149974523D02*
X82761905Y-149879285D01*
X82761905Y-149879285D02*
X82714286Y-149688809D01*
X82714286Y-149688809D02*
X82714286Y-149545952D01*
X82714286Y-149545952D02*
X82761905Y-149355476D01*
X82761905Y-149355476D02*
X82809524Y-149260238D01*
X82809524Y-149260238D02*
X82904762Y-149165000D01*
X82904762Y-149165000D02*
X83047619Y-149117380D01*
X83047619Y-149117380D02*
X83142857Y-149117380D01*
X83142857Y-149117380D02*
X83285714Y-149165000D01*
X83285714Y-149165000D02*
X83333333Y-149212619D01*
X83666667Y-149117380D02*
X84285714Y-149117380D01*
X84285714Y-149117380D02*
X83952381Y-149498333D01*
X83952381Y-149498333D02*
X84095238Y-149498333D01*
X84095238Y-149498333D02*
X84190476Y-149545952D01*
X84190476Y-149545952D02*
X84238095Y-149593571D01*
X84238095Y-149593571D02*
X84285714Y-149688809D01*
X84285714Y-149688809D02*
X84285714Y-149926904D01*
X84285714Y-149926904D02*
X84238095Y-150022142D01*
X84238095Y-150022142D02*
X84190476Y-150069761D01*
X84190476Y-150069761D02*
X84095238Y-150117380D01*
X84095238Y-150117380D02*
X83809524Y-150117380D01*
X83809524Y-150117380D02*
X83714286Y-150069761D01*
X83714286Y-150069761D02*
X83666667Y-150022142D01*
%TO.C,C5*%
X78650833Y-153099642D02*
X78603214Y-153147261D01*
X78603214Y-153147261D02*
X78460357Y-153194880D01*
X78460357Y-153194880D02*
X78365119Y-153194880D01*
X78365119Y-153194880D02*
X78222262Y-153147261D01*
X78222262Y-153147261D02*
X78127024Y-153052023D01*
X78127024Y-153052023D02*
X78079405Y-152956785D01*
X78079405Y-152956785D02*
X78031786Y-152766309D01*
X78031786Y-152766309D02*
X78031786Y-152623452D01*
X78031786Y-152623452D02*
X78079405Y-152432976D01*
X78079405Y-152432976D02*
X78127024Y-152337738D01*
X78127024Y-152337738D02*
X78222262Y-152242500D01*
X78222262Y-152242500D02*
X78365119Y-152194880D01*
X78365119Y-152194880D02*
X78460357Y-152194880D01*
X78460357Y-152194880D02*
X78603214Y-152242500D01*
X78603214Y-152242500D02*
X78650833Y-152290119D01*
X79555595Y-152194880D02*
X79079405Y-152194880D01*
X79079405Y-152194880D02*
X79031786Y-152671071D01*
X79031786Y-152671071D02*
X79079405Y-152623452D01*
X79079405Y-152623452D02*
X79174643Y-152575833D01*
X79174643Y-152575833D02*
X79412738Y-152575833D01*
X79412738Y-152575833D02*
X79507976Y-152623452D01*
X79507976Y-152623452D02*
X79555595Y-152671071D01*
X79555595Y-152671071D02*
X79603214Y-152766309D01*
X79603214Y-152766309D02*
X79603214Y-153004404D01*
X79603214Y-153004404D02*
X79555595Y-153099642D01*
X79555595Y-153099642D02*
X79507976Y-153147261D01*
X79507976Y-153147261D02*
X79412738Y-153194880D01*
X79412738Y-153194880D02*
X79174643Y-153194880D01*
X79174643Y-153194880D02*
X79079405Y-153147261D01*
X79079405Y-153147261D02*
X79031786Y-153099642D01*
%TO.C,C7*%
X99668333Y-146162142D02*
X99620714Y-146209761D01*
X99620714Y-146209761D02*
X99477857Y-146257380D01*
X99477857Y-146257380D02*
X99382619Y-146257380D01*
X99382619Y-146257380D02*
X99239762Y-146209761D01*
X99239762Y-146209761D02*
X99144524Y-146114523D01*
X99144524Y-146114523D02*
X99096905Y-146019285D01*
X99096905Y-146019285D02*
X99049286Y-145828809D01*
X99049286Y-145828809D02*
X99049286Y-145685952D01*
X99049286Y-145685952D02*
X99096905Y-145495476D01*
X99096905Y-145495476D02*
X99144524Y-145400238D01*
X99144524Y-145400238D02*
X99239762Y-145305000D01*
X99239762Y-145305000D02*
X99382619Y-145257380D01*
X99382619Y-145257380D02*
X99477857Y-145257380D01*
X99477857Y-145257380D02*
X99620714Y-145305000D01*
X99620714Y-145305000D02*
X99668333Y-145352619D01*
X100001667Y-145257380D02*
X100668333Y-145257380D01*
X100668333Y-145257380D02*
X100239762Y-146257380D01*
%TO.C,D2*%
X113136905Y-154894880D02*
X113136905Y-153894880D01*
X113136905Y-153894880D02*
X113375000Y-153894880D01*
X113375000Y-153894880D02*
X113517857Y-153942500D01*
X113517857Y-153942500D02*
X113613095Y-154037738D01*
X113613095Y-154037738D02*
X113660714Y-154132976D01*
X113660714Y-154132976D02*
X113708333Y-154323452D01*
X113708333Y-154323452D02*
X113708333Y-154466309D01*
X113708333Y-154466309D02*
X113660714Y-154656785D01*
X113660714Y-154656785D02*
X113613095Y-154752023D01*
X113613095Y-154752023D02*
X113517857Y-154847261D01*
X113517857Y-154847261D02*
X113375000Y-154894880D01*
X113375000Y-154894880D02*
X113136905Y-154894880D01*
X114089286Y-153990119D02*
X114136905Y-153942500D01*
X114136905Y-153942500D02*
X114232143Y-153894880D01*
X114232143Y-153894880D02*
X114470238Y-153894880D01*
X114470238Y-153894880D02*
X114565476Y-153942500D01*
X114565476Y-153942500D02*
X114613095Y-153990119D01*
X114613095Y-153990119D02*
X114660714Y-154085357D01*
X114660714Y-154085357D02*
X114660714Y-154180595D01*
X114660714Y-154180595D02*
X114613095Y-154323452D01*
X114613095Y-154323452D02*
X114041667Y-154894880D01*
X114041667Y-154894880D02*
X114660714Y-154894880D01*
%TO.C,U2*%
X94018095Y-146857380D02*
X94018095Y-147666904D01*
X94018095Y-147666904D02*
X94065714Y-147762142D01*
X94065714Y-147762142D02*
X94113333Y-147809761D01*
X94113333Y-147809761D02*
X94208571Y-147857380D01*
X94208571Y-147857380D02*
X94399047Y-147857380D01*
X94399047Y-147857380D02*
X94494285Y-147809761D01*
X94494285Y-147809761D02*
X94541904Y-147762142D01*
X94541904Y-147762142D02*
X94589523Y-147666904D01*
X94589523Y-147666904D02*
X94589523Y-146857380D01*
X95018095Y-146952619D02*
X95065714Y-146905000D01*
X95065714Y-146905000D02*
X95160952Y-146857380D01*
X95160952Y-146857380D02*
X95399047Y-146857380D01*
X95399047Y-146857380D02*
X95494285Y-146905000D01*
X95494285Y-146905000D02*
X95541904Y-146952619D01*
X95541904Y-146952619D02*
X95589523Y-147047857D01*
X95589523Y-147047857D02*
X95589523Y-147143095D01*
X95589523Y-147143095D02*
X95541904Y-147285952D01*
X95541904Y-147285952D02*
X94970476Y-147857380D01*
X94970476Y-147857380D02*
X95589523Y-147857380D01*
%TO.C,C1*%
X103372142Y-168566666D02*
X103419761Y-168614285D01*
X103419761Y-168614285D02*
X103467380Y-168757142D01*
X103467380Y-168757142D02*
X103467380Y-168852380D01*
X103467380Y-168852380D02*
X103419761Y-168995237D01*
X103419761Y-168995237D02*
X103324523Y-169090475D01*
X103324523Y-169090475D02*
X103229285Y-169138094D01*
X103229285Y-169138094D02*
X103038809Y-169185713D01*
X103038809Y-169185713D02*
X102895952Y-169185713D01*
X102895952Y-169185713D02*
X102705476Y-169138094D01*
X102705476Y-169138094D02*
X102610238Y-169090475D01*
X102610238Y-169090475D02*
X102515000Y-168995237D01*
X102515000Y-168995237D02*
X102467380Y-168852380D01*
X102467380Y-168852380D02*
X102467380Y-168757142D01*
X102467380Y-168757142D02*
X102515000Y-168614285D01*
X102515000Y-168614285D02*
X102562619Y-168566666D01*
X103467380Y-167614285D02*
X103467380Y-168185713D01*
X103467380Y-167899999D02*
X102467380Y-167899999D01*
X102467380Y-167899999D02*
X102610238Y-167995237D01*
X102610238Y-167995237D02*
X102705476Y-168090475D01*
X102705476Y-168090475D02*
X102753095Y-168185713D01*
D11*
%TO.C,S3*%
X126212380Y-166486097D02*
X126393809Y-166546573D01*
X126393809Y-166546573D02*
X126696190Y-166546573D01*
X126696190Y-166546573D02*
X126817142Y-166486097D01*
X126817142Y-166486097D02*
X126877618Y-166425621D01*
X126877618Y-166425621D02*
X126938095Y-166304669D01*
X126938095Y-166304669D02*
X126938095Y-166183716D01*
X126938095Y-166183716D02*
X126877618Y-166062764D01*
X126877618Y-166062764D02*
X126817142Y-166002288D01*
X126817142Y-166002288D02*
X126696190Y-165941811D01*
X126696190Y-165941811D02*
X126454285Y-165881335D01*
X126454285Y-165881335D02*
X126333333Y-165820859D01*
X126333333Y-165820859D02*
X126272856Y-165760383D01*
X126272856Y-165760383D02*
X126212380Y-165639430D01*
X126212380Y-165639430D02*
X126212380Y-165518478D01*
X126212380Y-165518478D02*
X126272856Y-165397526D01*
X126272856Y-165397526D02*
X126333333Y-165337050D01*
X126333333Y-165337050D02*
X126454285Y-165276573D01*
X126454285Y-165276573D02*
X126756666Y-165276573D01*
X126756666Y-165276573D02*
X126938095Y-165337050D01*
X127361428Y-165276573D02*
X128147619Y-165276573D01*
X128147619Y-165276573D02*
X127724285Y-165760383D01*
X127724285Y-165760383D02*
X127905714Y-165760383D01*
X127905714Y-165760383D02*
X128026666Y-165820859D01*
X128026666Y-165820859D02*
X128087142Y-165881335D01*
X128087142Y-165881335D02*
X128147619Y-166002288D01*
X128147619Y-166002288D02*
X128147619Y-166304669D01*
X128147619Y-166304669D02*
X128087142Y-166425621D01*
X128087142Y-166425621D02*
X128026666Y-166486097D01*
X128026666Y-166486097D02*
X127905714Y-166546573D01*
X127905714Y-166546573D02*
X127542857Y-166546573D01*
X127542857Y-166546573D02*
X127421904Y-166486097D01*
X127421904Y-166486097D02*
X127361428Y-166425621D01*
%TO.C,S2*%
X126212380Y-148626097D02*
X126393809Y-148686573D01*
X126393809Y-148686573D02*
X126696190Y-148686573D01*
X126696190Y-148686573D02*
X126817142Y-148626097D01*
X126817142Y-148626097D02*
X126877618Y-148565621D01*
X126877618Y-148565621D02*
X126938095Y-148444669D01*
X126938095Y-148444669D02*
X126938095Y-148323716D01*
X126938095Y-148323716D02*
X126877618Y-148202764D01*
X126877618Y-148202764D02*
X126817142Y-148142288D01*
X126817142Y-148142288D02*
X126696190Y-148081811D01*
X126696190Y-148081811D02*
X126454285Y-148021335D01*
X126454285Y-148021335D02*
X126333333Y-147960859D01*
X126333333Y-147960859D02*
X126272856Y-147900383D01*
X126272856Y-147900383D02*
X126212380Y-147779430D01*
X126212380Y-147779430D02*
X126212380Y-147658478D01*
X126212380Y-147658478D02*
X126272856Y-147537526D01*
X126272856Y-147537526D02*
X126333333Y-147477050D01*
X126333333Y-147477050D02*
X126454285Y-147416573D01*
X126454285Y-147416573D02*
X126756666Y-147416573D01*
X126756666Y-147416573D02*
X126938095Y-147477050D01*
X127421904Y-147537526D02*
X127482380Y-147477050D01*
X127482380Y-147477050D02*
X127603333Y-147416573D01*
X127603333Y-147416573D02*
X127905714Y-147416573D01*
X127905714Y-147416573D02*
X128026666Y-147477050D01*
X128026666Y-147477050D02*
X128087142Y-147537526D01*
X128087142Y-147537526D02*
X128147619Y-147658478D01*
X128147619Y-147658478D02*
X128147619Y-147779430D01*
X128147619Y-147779430D02*
X128087142Y-147960859D01*
X128087142Y-147960859D02*
X127361428Y-148686573D01*
X127361428Y-148686573D02*
X128147619Y-148686573D01*
D10*
%TO.C,U3*%
X59237380Y-162184404D02*
X60046904Y-162184404D01*
X60046904Y-162184404D02*
X60142142Y-162136785D01*
X60142142Y-162136785D02*
X60189761Y-162089166D01*
X60189761Y-162089166D02*
X60237380Y-161993928D01*
X60237380Y-161993928D02*
X60237380Y-161803452D01*
X60237380Y-161803452D02*
X60189761Y-161708214D01*
X60189761Y-161708214D02*
X60142142Y-161660595D01*
X60142142Y-161660595D02*
X60046904Y-161612976D01*
X60046904Y-161612976D02*
X59237380Y-161612976D01*
X59237380Y-161232023D02*
X59237380Y-160612976D01*
X59237380Y-160612976D02*
X59618333Y-160946309D01*
X59618333Y-160946309D02*
X59618333Y-160803452D01*
X59618333Y-160803452D02*
X59665952Y-160708214D01*
X59665952Y-160708214D02*
X59713571Y-160660595D01*
X59713571Y-160660595D02*
X59808809Y-160612976D01*
X59808809Y-160612976D02*
X60046904Y-160612976D01*
X60046904Y-160612976D02*
X60142142Y-160660595D01*
X60142142Y-160660595D02*
X60189761Y-160708214D01*
X60189761Y-160708214D02*
X60237380Y-160803452D01*
X60237380Y-160803452D02*
X60237380Y-161089166D01*
X60237380Y-161089166D02*
X60189761Y-161184404D01*
X60189761Y-161184404D02*
X60142142Y-161232023D01*
%TO.C,R5*%
X90448333Y-136097380D02*
X90115000Y-135621190D01*
X89876905Y-136097380D02*
X89876905Y-135097380D01*
X89876905Y-135097380D02*
X90257857Y-135097380D01*
X90257857Y-135097380D02*
X90353095Y-135145000D01*
X90353095Y-135145000D02*
X90400714Y-135192619D01*
X90400714Y-135192619D02*
X90448333Y-135287857D01*
X90448333Y-135287857D02*
X90448333Y-135430714D01*
X90448333Y-135430714D02*
X90400714Y-135525952D01*
X90400714Y-135525952D02*
X90353095Y-135573571D01*
X90353095Y-135573571D02*
X90257857Y-135621190D01*
X90257857Y-135621190D02*
X89876905Y-135621190D01*
X91353095Y-135097380D02*
X90876905Y-135097380D01*
X90876905Y-135097380D02*
X90829286Y-135573571D01*
X90829286Y-135573571D02*
X90876905Y-135525952D01*
X90876905Y-135525952D02*
X90972143Y-135478333D01*
X90972143Y-135478333D02*
X91210238Y-135478333D01*
X91210238Y-135478333D02*
X91305476Y-135525952D01*
X91305476Y-135525952D02*
X91353095Y-135573571D01*
X91353095Y-135573571D02*
X91400714Y-135668809D01*
X91400714Y-135668809D02*
X91400714Y-135906904D01*
X91400714Y-135906904D02*
X91353095Y-136002142D01*
X91353095Y-136002142D02*
X91305476Y-136049761D01*
X91305476Y-136049761D02*
X91210238Y-136097380D01*
X91210238Y-136097380D02*
X90972143Y-136097380D01*
X90972143Y-136097380D02*
X90876905Y-136049761D01*
X90876905Y-136049761D02*
X90829286Y-136002142D01*
%TO.C,U1*%
X72100595Y-141467380D02*
X72100595Y-142276904D01*
X72100595Y-142276904D02*
X72148214Y-142372142D01*
X72148214Y-142372142D02*
X72195833Y-142419761D01*
X72195833Y-142419761D02*
X72291071Y-142467380D01*
X72291071Y-142467380D02*
X72481547Y-142467380D01*
X72481547Y-142467380D02*
X72576785Y-142419761D01*
X72576785Y-142419761D02*
X72624404Y-142372142D01*
X72624404Y-142372142D02*
X72672023Y-142276904D01*
X72672023Y-142276904D02*
X72672023Y-141467380D01*
X73672023Y-142467380D02*
X73100595Y-142467380D01*
X73386309Y-142467380D02*
X73386309Y-141467380D01*
X73386309Y-141467380D02*
X73291071Y-141610238D01*
X73291071Y-141610238D02*
X73195833Y-141705476D01*
X73195833Y-141705476D02*
X73100595Y-141753095D01*
%TO.C,D3*%
X77367380Y-132988094D02*
X76367380Y-132988094D01*
X76367380Y-132988094D02*
X76367380Y-132749999D01*
X76367380Y-132749999D02*
X76415000Y-132607142D01*
X76415000Y-132607142D02*
X76510238Y-132511904D01*
X76510238Y-132511904D02*
X76605476Y-132464285D01*
X76605476Y-132464285D02*
X76795952Y-132416666D01*
X76795952Y-132416666D02*
X76938809Y-132416666D01*
X76938809Y-132416666D02*
X77129285Y-132464285D01*
X77129285Y-132464285D02*
X77224523Y-132511904D01*
X77224523Y-132511904D02*
X77319761Y-132607142D01*
X77319761Y-132607142D02*
X77367380Y-132749999D01*
X77367380Y-132749999D02*
X77367380Y-132988094D01*
X76367380Y-132083332D02*
X76367380Y-131464285D01*
X76367380Y-131464285D02*
X76748333Y-131797618D01*
X76748333Y-131797618D02*
X76748333Y-131654761D01*
X76748333Y-131654761D02*
X76795952Y-131559523D01*
X76795952Y-131559523D02*
X76843571Y-131511904D01*
X76843571Y-131511904D02*
X76938809Y-131464285D01*
X76938809Y-131464285D02*
X77176904Y-131464285D01*
X77176904Y-131464285D02*
X77272142Y-131511904D01*
X77272142Y-131511904D02*
X77319761Y-131559523D01*
X77319761Y-131559523D02*
X77367380Y-131654761D01*
X77367380Y-131654761D02*
X77367380Y-131940475D01*
X77367380Y-131940475D02*
X77319761Y-132035713D01*
X77319761Y-132035713D02*
X77272142Y-132083332D01*
%TO.C,R6*%
X114848333Y-147687380D02*
X114515000Y-147211190D01*
X114276905Y-147687380D02*
X114276905Y-146687380D01*
X114276905Y-146687380D02*
X114657857Y-146687380D01*
X114657857Y-146687380D02*
X114753095Y-146735000D01*
X114753095Y-146735000D02*
X114800714Y-146782619D01*
X114800714Y-146782619D02*
X114848333Y-146877857D01*
X114848333Y-146877857D02*
X114848333Y-147020714D01*
X114848333Y-147020714D02*
X114800714Y-147115952D01*
X114800714Y-147115952D02*
X114753095Y-147163571D01*
X114753095Y-147163571D02*
X114657857Y-147211190D01*
X114657857Y-147211190D02*
X114276905Y-147211190D01*
X115705476Y-146687380D02*
X115515000Y-146687380D01*
X115515000Y-146687380D02*
X115419762Y-146735000D01*
X115419762Y-146735000D02*
X115372143Y-146782619D01*
X115372143Y-146782619D02*
X115276905Y-146925476D01*
X115276905Y-146925476D02*
X115229286Y-147115952D01*
X115229286Y-147115952D02*
X115229286Y-147496904D01*
X115229286Y-147496904D02*
X115276905Y-147592142D01*
X115276905Y-147592142D02*
X115324524Y-147639761D01*
X115324524Y-147639761D02*
X115419762Y-147687380D01*
X115419762Y-147687380D02*
X115610238Y-147687380D01*
X115610238Y-147687380D02*
X115705476Y-147639761D01*
X115705476Y-147639761D02*
X115753095Y-147592142D01*
X115753095Y-147592142D02*
X115800714Y-147496904D01*
X115800714Y-147496904D02*
X115800714Y-147258809D01*
X115800714Y-147258809D02*
X115753095Y-147163571D01*
X115753095Y-147163571D02*
X115705476Y-147115952D01*
X115705476Y-147115952D02*
X115610238Y-147068333D01*
X115610238Y-147068333D02*
X115419762Y-147068333D01*
X115419762Y-147068333D02*
X115324524Y-147115952D01*
X115324524Y-147115952D02*
X115276905Y-147163571D01*
X115276905Y-147163571D02*
X115229286Y-147258809D01*
%TO.C,R17*%
X92697380Y-173362857D02*
X92221190Y-173696190D01*
X92697380Y-173934285D02*
X91697380Y-173934285D01*
X91697380Y-173934285D02*
X91697380Y-173553333D01*
X91697380Y-173553333D02*
X91745000Y-173458095D01*
X91745000Y-173458095D02*
X91792619Y-173410476D01*
X91792619Y-173410476D02*
X91887857Y-173362857D01*
X91887857Y-173362857D02*
X92030714Y-173362857D01*
X92030714Y-173362857D02*
X92125952Y-173410476D01*
X92125952Y-173410476D02*
X92173571Y-173458095D01*
X92173571Y-173458095D02*
X92221190Y-173553333D01*
X92221190Y-173553333D02*
X92221190Y-173934285D01*
X92697380Y-172410476D02*
X92697380Y-172981904D01*
X92697380Y-172696190D02*
X91697380Y-172696190D01*
X91697380Y-172696190D02*
X91840238Y-172791428D01*
X91840238Y-172791428D02*
X91935476Y-172886666D01*
X91935476Y-172886666D02*
X91983095Y-172981904D01*
X91697380Y-172077142D02*
X91697380Y-171410476D01*
X91697380Y-171410476D02*
X92697380Y-171839047D01*
%TO.C,R13*%
X80757380Y-161575357D02*
X80281190Y-161908690D01*
X80757380Y-162146785D02*
X79757380Y-162146785D01*
X79757380Y-162146785D02*
X79757380Y-161765833D01*
X79757380Y-161765833D02*
X79805000Y-161670595D01*
X79805000Y-161670595D02*
X79852619Y-161622976D01*
X79852619Y-161622976D02*
X79947857Y-161575357D01*
X79947857Y-161575357D02*
X80090714Y-161575357D01*
X80090714Y-161575357D02*
X80185952Y-161622976D01*
X80185952Y-161622976D02*
X80233571Y-161670595D01*
X80233571Y-161670595D02*
X80281190Y-161765833D01*
X80281190Y-161765833D02*
X80281190Y-162146785D01*
X80757380Y-160622976D02*
X80757380Y-161194404D01*
X80757380Y-160908690D02*
X79757380Y-160908690D01*
X79757380Y-160908690D02*
X79900238Y-161003928D01*
X79900238Y-161003928D02*
X79995476Y-161099166D01*
X79995476Y-161099166D02*
X80043095Y-161194404D01*
X79757380Y-160289642D02*
X79757380Y-159670595D01*
X79757380Y-159670595D02*
X80138333Y-160003928D01*
X80138333Y-160003928D02*
X80138333Y-159861071D01*
X80138333Y-159861071D02*
X80185952Y-159765833D01*
X80185952Y-159765833D02*
X80233571Y-159718214D01*
X80233571Y-159718214D02*
X80328809Y-159670595D01*
X80328809Y-159670595D02*
X80566904Y-159670595D01*
X80566904Y-159670595D02*
X80662142Y-159718214D01*
X80662142Y-159718214D02*
X80709761Y-159765833D01*
X80709761Y-159765833D02*
X80757380Y-159861071D01*
X80757380Y-159861071D02*
X80757380Y-160146785D01*
X80757380Y-160146785D02*
X80709761Y-160242023D01*
X80709761Y-160242023D02*
X80662142Y-160289642D01*
%TO.C,C11*%
X62662142Y-165742857D02*
X62709761Y-165790476D01*
X62709761Y-165790476D02*
X62757380Y-165933333D01*
X62757380Y-165933333D02*
X62757380Y-166028571D01*
X62757380Y-166028571D02*
X62709761Y-166171428D01*
X62709761Y-166171428D02*
X62614523Y-166266666D01*
X62614523Y-166266666D02*
X62519285Y-166314285D01*
X62519285Y-166314285D02*
X62328809Y-166361904D01*
X62328809Y-166361904D02*
X62185952Y-166361904D01*
X62185952Y-166361904D02*
X61995476Y-166314285D01*
X61995476Y-166314285D02*
X61900238Y-166266666D01*
X61900238Y-166266666D02*
X61805000Y-166171428D01*
X61805000Y-166171428D02*
X61757380Y-166028571D01*
X61757380Y-166028571D02*
X61757380Y-165933333D01*
X61757380Y-165933333D02*
X61805000Y-165790476D01*
X61805000Y-165790476D02*
X61852619Y-165742857D01*
X62757380Y-164790476D02*
X62757380Y-165361904D01*
X62757380Y-165076190D02*
X61757380Y-165076190D01*
X61757380Y-165076190D02*
X61900238Y-165171428D01*
X61900238Y-165171428D02*
X61995476Y-165266666D01*
X61995476Y-165266666D02*
X62043095Y-165361904D01*
X62757380Y-163838095D02*
X62757380Y-164409523D01*
X62757380Y-164123809D02*
X61757380Y-164123809D01*
X61757380Y-164123809D02*
X61900238Y-164219047D01*
X61900238Y-164219047D02*
X61995476Y-164314285D01*
X61995476Y-164314285D02*
X62043095Y-164409523D01*
%TO.C,R14*%
X77467380Y-136555357D02*
X76991190Y-136888690D01*
X77467380Y-137126785D02*
X76467380Y-137126785D01*
X76467380Y-137126785D02*
X76467380Y-136745833D01*
X76467380Y-136745833D02*
X76515000Y-136650595D01*
X76515000Y-136650595D02*
X76562619Y-136602976D01*
X76562619Y-136602976D02*
X76657857Y-136555357D01*
X76657857Y-136555357D02*
X76800714Y-136555357D01*
X76800714Y-136555357D02*
X76895952Y-136602976D01*
X76895952Y-136602976D02*
X76943571Y-136650595D01*
X76943571Y-136650595D02*
X76991190Y-136745833D01*
X76991190Y-136745833D02*
X76991190Y-137126785D01*
X77467380Y-135602976D02*
X77467380Y-136174404D01*
X77467380Y-135888690D02*
X76467380Y-135888690D01*
X76467380Y-135888690D02*
X76610238Y-135983928D01*
X76610238Y-135983928D02*
X76705476Y-136079166D01*
X76705476Y-136079166D02*
X76753095Y-136174404D01*
X76800714Y-134745833D02*
X77467380Y-134745833D01*
X76419761Y-134983928D02*
X77134047Y-135222023D01*
X77134047Y-135222023D02*
X77134047Y-134602976D01*
%TO.C,U5*%
X95758095Y-133077380D02*
X95758095Y-133886904D01*
X95758095Y-133886904D02*
X95805714Y-133982142D01*
X95805714Y-133982142D02*
X95853333Y-134029761D01*
X95853333Y-134029761D02*
X95948571Y-134077380D01*
X95948571Y-134077380D02*
X96139047Y-134077380D01*
X96139047Y-134077380D02*
X96234285Y-134029761D01*
X96234285Y-134029761D02*
X96281904Y-133982142D01*
X96281904Y-133982142D02*
X96329523Y-133886904D01*
X96329523Y-133886904D02*
X96329523Y-133077380D01*
X97281904Y-133077380D02*
X96805714Y-133077380D01*
X96805714Y-133077380D02*
X96758095Y-133553571D01*
X96758095Y-133553571D02*
X96805714Y-133505952D01*
X96805714Y-133505952D02*
X96900952Y-133458333D01*
X96900952Y-133458333D02*
X97139047Y-133458333D01*
X97139047Y-133458333D02*
X97234285Y-133505952D01*
X97234285Y-133505952D02*
X97281904Y-133553571D01*
X97281904Y-133553571D02*
X97329523Y-133648809D01*
X97329523Y-133648809D02*
X97329523Y-133886904D01*
X97329523Y-133886904D02*
X97281904Y-133982142D01*
X97281904Y-133982142D02*
X97234285Y-134029761D01*
X97234285Y-134029761D02*
X97139047Y-134077380D01*
X97139047Y-134077380D02*
X96900952Y-134077380D01*
X96900952Y-134077380D02*
X96805714Y-134029761D01*
X96805714Y-134029761D02*
X96758095Y-133982142D01*
%TO.C,C12*%
X52182142Y-158897857D02*
X52229761Y-158945476D01*
X52229761Y-158945476D02*
X52277380Y-159088333D01*
X52277380Y-159088333D02*
X52277380Y-159183571D01*
X52277380Y-159183571D02*
X52229761Y-159326428D01*
X52229761Y-159326428D02*
X52134523Y-159421666D01*
X52134523Y-159421666D02*
X52039285Y-159469285D01*
X52039285Y-159469285D02*
X51848809Y-159516904D01*
X51848809Y-159516904D02*
X51705952Y-159516904D01*
X51705952Y-159516904D02*
X51515476Y-159469285D01*
X51515476Y-159469285D02*
X51420238Y-159421666D01*
X51420238Y-159421666D02*
X51325000Y-159326428D01*
X51325000Y-159326428D02*
X51277380Y-159183571D01*
X51277380Y-159183571D02*
X51277380Y-159088333D01*
X51277380Y-159088333D02*
X51325000Y-158945476D01*
X51325000Y-158945476D02*
X51372619Y-158897857D01*
X52277380Y-157945476D02*
X52277380Y-158516904D01*
X52277380Y-158231190D02*
X51277380Y-158231190D01*
X51277380Y-158231190D02*
X51420238Y-158326428D01*
X51420238Y-158326428D02*
X51515476Y-158421666D01*
X51515476Y-158421666D02*
X51563095Y-158516904D01*
X51372619Y-157564523D02*
X51325000Y-157516904D01*
X51325000Y-157516904D02*
X51277380Y-157421666D01*
X51277380Y-157421666D02*
X51277380Y-157183571D01*
X51277380Y-157183571D02*
X51325000Y-157088333D01*
X51325000Y-157088333D02*
X51372619Y-157040714D01*
X51372619Y-157040714D02*
X51467857Y-156993095D01*
X51467857Y-156993095D02*
X51563095Y-156993095D01*
X51563095Y-156993095D02*
X51705952Y-157040714D01*
X51705952Y-157040714D02*
X52277380Y-157612142D01*
X52277380Y-157612142D02*
X52277380Y-156993095D01*
%TO.C,R12*%
X114372142Y-132447380D02*
X114038809Y-131971190D01*
X113800714Y-132447380D02*
X113800714Y-131447380D01*
X113800714Y-131447380D02*
X114181666Y-131447380D01*
X114181666Y-131447380D02*
X114276904Y-131495000D01*
X114276904Y-131495000D02*
X114324523Y-131542619D01*
X114324523Y-131542619D02*
X114372142Y-131637857D01*
X114372142Y-131637857D02*
X114372142Y-131780714D01*
X114372142Y-131780714D02*
X114324523Y-131875952D01*
X114324523Y-131875952D02*
X114276904Y-131923571D01*
X114276904Y-131923571D02*
X114181666Y-131971190D01*
X114181666Y-131971190D02*
X113800714Y-131971190D01*
X115324523Y-132447380D02*
X114753095Y-132447380D01*
X115038809Y-132447380D02*
X115038809Y-131447380D01*
X115038809Y-131447380D02*
X114943571Y-131590238D01*
X114943571Y-131590238D02*
X114848333Y-131685476D01*
X114848333Y-131685476D02*
X114753095Y-131733095D01*
X115705476Y-131542619D02*
X115753095Y-131495000D01*
X115753095Y-131495000D02*
X115848333Y-131447380D01*
X115848333Y-131447380D02*
X116086428Y-131447380D01*
X116086428Y-131447380D02*
X116181666Y-131495000D01*
X116181666Y-131495000D02*
X116229285Y-131542619D01*
X116229285Y-131542619D02*
X116276904Y-131637857D01*
X116276904Y-131637857D02*
X116276904Y-131733095D01*
X116276904Y-131733095D02*
X116229285Y-131875952D01*
X116229285Y-131875952D02*
X115657857Y-132447380D01*
X115657857Y-132447380D02*
X116276904Y-132447380D01*
%TO.C,R10*%
X114372142Y-137527380D02*
X114038809Y-137051190D01*
X113800714Y-137527380D02*
X113800714Y-136527380D01*
X113800714Y-136527380D02*
X114181666Y-136527380D01*
X114181666Y-136527380D02*
X114276904Y-136575000D01*
X114276904Y-136575000D02*
X114324523Y-136622619D01*
X114324523Y-136622619D02*
X114372142Y-136717857D01*
X114372142Y-136717857D02*
X114372142Y-136860714D01*
X114372142Y-136860714D02*
X114324523Y-136955952D01*
X114324523Y-136955952D02*
X114276904Y-137003571D01*
X114276904Y-137003571D02*
X114181666Y-137051190D01*
X114181666Y-137051190D02*
X113800714Y-137051190D01*
X115324523Y-137527380D02*
X114753095Y-137527380D01*
X115038809Y-137527380D02*
X115038809Y-136527380D01*
X115038809Y-136527380D02*
X114943571Y-136670238D01*
X114943571Y-136670238D02*
X114848333Y-136765476D01*
X114848333Y-136765476D02*
X114753095Y-136813095D01*
X115943571Y-136527380D02*
X116038809Y-136527380D01*
X116038809Y-136527380D02*
X116134047Y-136575000D01*
X116134047Y-136575000D02*
X116181666Y-136622619D01*
X116181666Y-136622619D02*
X116229285Y-136717857D01*
X116229285Y-136717857D02*
X116276904Y-136908333D01*
X116276904Y-136908333D02*
X116276904Y-137146428D01*
X116276904Y-137146428D02*
X116229285Y-137336904D01*
X116229285Y-137336904D02*
X116181666Y-137432142D01*
X116181666Y-137432142D02*
X116134047Y-137479761D01*
X116134047Y-137479761D02*
X116038809Y-137527380D01*
X116038809Y-137527380D02*
X115943571Y-137527380D01*
X115943571Y-137527380D02*
X115848333Y-137479761D01*
X115848333Y-137479761D02*
X115800714Y-137432142D01*
X115800714Y-137432142D02*
X115753095Y-137336904D01*
X115753095Y-137336904D02*
X115705476Y-137146428D01*
X115705476Y-137146428D02*
X115705476Y-136908333D01*
X115705476Y-136908333D02*
X115753095Y-136717857D01*
X115753095Y-136717857D02*
X115800714Y-136622619D01*
X115800714Y-136622619D02*
X115848333Y-136575000D01*
X115848333Y-136575000D02*
X115943571Y-136527380D01*
%TO.C,C8*%
X83083333Y-159292142D02*
X83035714Y-159339761D01*
X83035714Y-159339761D02*
X82892857Y-159387380D01*
X82892857Y-159387380D02*
X82797619Y-159387380D01*
X82797619Y-159387380D02*
X82654762Y-159339761D01*
X82654762Y-159339761D02*
X82559524Y-159244523D01*
X82559524Y-159244523D02*
X82511905Y-159149285D01*
X82511905Y-159149285D02*
X82464286Y-158958809D01*
X82464286Y-158958809D02*
X82464286Y-158815952D01*
X82464286Y-158815952D02*
X82511905Y-158625476D01*
X82511905Y-158625476D02*
X82559524Y-158530238D01*
X82559524Y-158530238D02*
X82654762Y-158435000D01*
X82654762Y-158435000D02*
X82797619Y-158387380D01*
X82797619Y-158387380D02*
X82892857Y-158387380D01*
X82892857Y-158387380D02*
X83035714Y-158435000D01*
X83035714Y-158435000D02*
X83083333Y-158482619D01*
X83654762Y-158815952D02*
X83559524Y-158768333D01*
X83559524Y-158768333D02*
X83511905Y-158720714D01*
X83511905Y-158720714D02*
X83464286Y-158625476D01*
X83464286Y-158625476D02*
X83464286Y-158577857D01*
X83464286Y-158577857D02*
X83511905Y-158482619D01*
X83511905Y-158482619D02*
X83559524Y-158435000D01*
X83559524Y-158435000D02*
X83654762Y-158387380D01*
X83654762Y-158387380D02*
X83845238Y-158387380D01*
X83845238Y-158387380D02*
X83940476Y-158435000D01*
X83940476Y-158435000D02*
X83988095Y-158482619D01*
X83988095Y-158482619D02*
X84035714Y-158577857D01*
X84035714Y-158577857D02*
X84035714Y-158625476D01*
X84035714Y-158625476D02*
X83988095Y-158720714D01*
X83988095Y-158720714D02*
X83940476Y-158768333D01*
X83940476Y-158768333D02*
X83845238Y-158815952D01*
X83845238Y-158815952D02*
X83654762Y-158815952D01*
X83654762Y-158815952D02*
X83559524Y-158863571D01*
X83559524Y-158863571D02*
X83511905Y-158911190D01*
X83511905Y-158911190D02*
X83464286Y-159006428D01*
X83464286Y-159006428D02*
X83464286Y-159196904D01*
X83464286Y-159196904D02*
X83511905Y-159292142D01*
X83511905Y-159292142D02*
X83559524Y-159339761D01*
X83559524Y-159339761D02*
X83654762Y-159387380D01*
X83654762Y-159387380D02*
X83845238Y-159387380D01*
X83845238Y-159387380D02*
X83940476Y-159339761D01*
X83940476Y-159339761D02*
X83988095Y-159292142D01*
X83988095Y-159292142D02*
X84035714Y-159196904D01*
X84035714Y-159196904D02*
X84035714Y-159006428D01*
X84035714Y-159006428D02*
X83988095Y-158911190D01*
X83988095Y-158911190D02*
X83940476Y-158863571D01*
X83940476Y-158863571D02*
X83845238Y-158815952D01*
%TO.C,D1*%
X112199405Y-150217380D02*
X112199405Y-149217380D01*
X112199405Y-149217380D02*
X112437500Y-149217380D01*
X112437500Y-149217380D02*
X112580357Y-149265000D01*
X112580357Y-149265000D02*
X112675595Y-149360238D01*
X112675595Y-149360238D02*
X112723214Y-149455476D01*
X112723214Y-149455476D02*
X112770833Y-149645952D01*
X112770833Y-149645952D02*
X112770833Y-149788809D01*
X112770833Y-149788809D02*
X112723214Y-149979285D01*
X112723214Y-149979285D02*
X112675595Y-150074523D01*
X112675595Y-150074523D02*
X112580357Y-150169761D01*
X112580357Y-150169761D02*
X112437500Y-150217380D01*
X112437500Y-150217380D02*
X112199405Y-150217380D01*
X113723214Y-150217380D02*
X113151786Y-150217380D01*
X113437500Y-150217380D02*
X113437500Y-149217380D01*
X113437500Y-149217380D02*
X113342262Y-149360238D01*
X113342262Y-149360238D02*
X113247024Y-149455476D01*
X113247024Y-149455476D02*
X113151786Y-149503095D01*
%TO.C,R15*%
X108194642Y-158157380D02*
X107861309Y-157681190D01*
X107623214Y-158157380D02*
X107623214Y-157157380D01*
X107623214Y-157157380D02*
X108004166Y-157157380D01*
X108004166Y-157157380D02*
X108099404Y-157205000D01*
X108099404Y-157205000D02*
X108147023Y-157252619D01*
X108147023Y-157252619D02*
X108194642Y-157347857D01*
X108194642Y-157347857D02*
X108194642Y-157490714D01*
X108194642Y-157490714D02*
X108147023Y-157585952D01*
X108147023Y-157585952D02*
X108099404Y-157633571D01*
X108099404Y-157633571D02*
X108004166Y-157681190D01*
X108004166Y-157681190D02*
X107623214Y-157681190D01*
X109147023Y-158157380D02*
X108575595Y-158157380D01*
X108861309Y-158157380D02*
X108861309Y-157157380D01*
X108861309Y-157157380D02*
X108766071Y-157300238D01*
X108766071Y-157300238D02*
X108670833Y-157395476D01*
X108670833Y-157395476D02*
X108575595Y-157443095D01*
X110051785Y-157157380D02*
X109575595Y-157157380D01*
X109575595Y-157157380D02*
X109527976Y-157633571D01*
X109527976Y-157633571D02*
X109575595Y-157585952D01*
X109575595Y-157585952D02*
X109670833Y-157538333D01*
X109670833Y-157538333D02*
X109908928Y-157538333D01*
X109908928Y-157538333D02*
X110004166Y-157585952D01*
X110004166Y-157585952D02*
X110051785Y-157633571D01*
X110051785Y-157633571D02*
X110099404Y-157728809D01*
X110099404Y-157728809D02*
X110099404Y-157966904D01*
X110099404Y-157966904D02*
X110051785Y-158062142D01*
X110051785Y-158062142D02*
X110004166Y-158109761D01*
X110004166Y-158109761D02*
X109908928Y-158157380D01*
X109908928Y-158157380D02*
X109670833Y-158157380D01*
X109670833Y-158157380D02*
X109575595Y-158109761D01*
X109575595Y-158109761D02*
X109527976Y-158062142D01*
%TO.C,R4*%
X64333333Y-144367380D02*
X64000000Y-143891190D01*
X63761905Y-144367380D02*
X63761905Y-143367380D01*
X63761905Y-143367380D02*
X64142857Y-143367380D01*
X64142857Y-143367380D02*
X64238095Y-143415000D01*
X64238095Y-143415000D02*
X64285714Y-143462619D01*
X64285714Y-143462619D02*
X64333333Y-143557857D01*
X64333333Y-143557857D02*
X64333333Y-143700714D01*
X64333333Y-143700714D02*
X64285714Y-143795952D01*
X64285714Y-143795952D02*
X64238095Y-143843571D01*
X64238095Y-143843571D02*
X64142857Y-143891190D01*
X64142857Y-143891190D02*
X63761905Y-143891190D01*
X65190476Y-143700714D02*
X65190476Y-144367380D01*
X64952381Y-143319761D02*
X64714286Y-144034047D01*
X64714286Y-144034047D02*
X65333333Y-144034047D01*
%TO.C,C13*%
X92822142Y-147187857D02*
X92869761Y-147235476D01*
X92869761Y-147235476D02*
X92917380Y-147378333D01*
X92917380Y-147378333D02*
X92917380Y-147473571D01*
X92917380Y-147473571D02*
X92869761Y-147616428D01*
X92869761Y-147616428D02*
X92774523Y-147711666D01*
X92774523Y-147711666D02*
X92679285Y-147759285D01*
X92679285Y-147759285D02*
X92488809Y-147806904D01*
X92488809Y-147806904D02*
X92345952Y-147806904D01*
X92345952Y-147806904D02*
X92155476Y-147759285D01*
X92155476Y-147759285D02*
X92060238Y-147711666D01*
X92060238Y-147711666D02*
X91965000Y-147616428D01*
X91965000Y-147616428D02*
X91917380Y-147473571D01*
X91917380Y-147473571D02*
X91917380Y-147378333D01*
X91917380Y-147378333D02*
X91965000Y-147235476D01*
X91965000Y-147235476D02*
X92012619Y-147187857D01*
X92917380Y-146235476D02*
X92917380Y-146806904D01*
X92917380Y-146521190D02*
X91917380Y-146521190D01*
X91917380Y-146521190D02*
X92060238Y-146616428D01*
X92060238Y-146616428D02*
X92155476Y-146711666D01*
X92155476Y-146711666D02*
X92203095Y-146806904D01*
X91917380Y-145902142D02*
X91917380Y-145283095D01*
X91917380Y-145283095D02*
X92298333Y-145616428D01*
X92298333Y-145616428D02*
X92298333Y-145473571D01*
X92298333Y-145473571D02*
X92345952Y-145378333D01*
X92345952Y-145378333D02*
X92393571Y-145330714D01*
X92393571Y-145330714D02*
X92488809Y-145283095D01*
X92488809Y-145283095D02*
X92726904Y-145283095D01*
X92726904Y-145283095D02*
X92822142Y-145330714D01*
X92822142Y-145330714D02*
X92869761Y-145378333D01*
X92869761Y-145378333D02*
X92917380Y-145473571D01*
X92917380Y-145473571D02*
X92917380Y-145759285D01*
X92917380Y-145759285D02*
X92869761Y-145854523D01*
X92869761Y-145854523D02*
X92822142Y-145902142D01*
%TO.C,J2*%
X83597380Y-177803333D02*
X84311666Y-177803333D01*
X84311666Y-177803333D02*
X84454523Y-177850952D01*
X84454523Y-177850952D02*
X84549761Y-177946190D01*
X84549761Y-177946190D02*
X84597380Y-178089047D01*
X84597380Y-178089047D02*
X84597380Y-178184285D01*
X83692619Y-177374761D02*
X83645000Y-177327142D01*
X83645000Y-177327142D02*
X83597380Y-177231904D01*
X83597380Y-177231904D02*
X83597380Y-176993809D01*
X83597380Y-176993809D02*
X83645000Y-176898571D01*
X83645000Y-176898571D02*
X83692619Y-176850952D01*
X83692619Y-176850952D02*
X83787857Y-176803333D01*
X83787857Y-176803333D02*
X83883095Y-176803333D01*
X83883095Y-176803333D02*
X84025952Y-176850952D01*
X84025952Y-176850952D02*
X84597380Y-177422380D01*
X84597380Y-177422380D02*
X84597380Y-176803333D01*
%TO.C,R8*%
X114133333Y-142607380D02*
X113800000Y-142131190D01*
X113561905Y-142607380D02*
X113561905Y-141607380D01*
X113561905Y-141607380D02*
X113942857Y-141607380D01*
X113942857Y-141607380D02*
X114038095Y-141655000D01*
X114038095Y-141655000D02*
X114085714Y-141702619D01*
X114085714Y-141702619D02*
X114133333Y-141797857D01*
X114133333Y-141797857D02*
X114133333Y-141940714D01*
X114133333Y-141940714D02*
X114085714Y-142035952D01*
X114085714Y-142035952D02*
X114038095Y-142083571D01*
X114038095Y-142083571D02*
X113942857Y-142131190D01*
X113942857Y-142131190D02*
X113561905Y-142131190D01*
X114704762Y-142035952D02*
X114609524Y-141988333D01*
X114609524Y-141988333D02*
X114561905Y-141940714D01*
X114561905Y-141940714D02*
X114514286Y-141845476D01*
X114514286Y-141845476D02*
X114514286Y-141797857D01*
X114514286Y-141797857D02*
X114561905Y-141702619D01*
X114561905Y-141702619D02*
X114609524Y-141655000D01*
X114609524Y-141655000D02*
X114704762Y-141607380D01*
X114704762Y-141607380D02*
X114895238Y-141607380D01*
X114895238Y-141607380D02*
X114990476Y-141655000D01*
X114990476Y-141655000D02*
X115038095Y-141702619D01*
X115038095Y-141702619D02*
X115085714Y-141797857D01*
X115085714Y-141797857D02*
X115085714Y-141845476D01*
X115085714Y-141845476D02*
X115038095Y-141940714D01*
X115038095Y-141940714D02*
X114990476Y-141988333D01*
X114990476Y-141988333D02*
X114895238Y-142035952D01*
X114895238Y-142035952D02*
X114704762Y-142035952D01*
X114704762Y-142035952D02*
X114609524Y-142083571D01*
X114609524Y-142083571D02*
X114561905Y-142131190D01*
X114561905Y-142131190D02*
X114514286Y-142226428D01*
X114514286Y-142226428D02*
X114514286Y-142416904D01*
X114514286Y-142416904D02*
X114561905Y-142512142D01*
X114561905Y-142512142D02*
X114609524Y-142559761D01*
X114609524Y-142559761D02*
X114704762Y-142607380D01*
X114704762Y-142607380D02*
X114895238Y-142607380D01*
X114895238Y-142607380D02*
X114990476Y-142559761D01*
X114990476Y-142559761D02*
X115038095Y-142512142D01*
X115038095Y-142512142D02*
X115085714Y-142416904D01*
X115085714Y-142416904D02*
X115085714Y-142226428D01*
X115085714Y-142226428D02*
X115038095Y-142131190D01*
X115038095Y-142131190D02*
X114990476Y-142083571D01*
X114990476Y-142083571D02*
X114895238Y-142035952D01*
%TO.C,S1*%
X69776095Y-165089761D02*
X69918952Y-165137380D01*
X69918952Y-165137380D02*
X70157047Y-165137380D01*
X70157047Y-165137380D02*
X70252285Y-165089761D01*
X70252285Y-165089761D02*
X70299904Y-165042142D01*
X70299904Y-165042142D02*
X70347523Y-164946904D01*
X70347523Y-164946904D02*
X70347523Y-164851666D01*
X70347523Y-164851666D02*
X70299904Y-164756428D01*
X70299904Y-164756428D02*
X70252285Y-164708809D01*
X70252285Y-164708809D02*
X70157047Y-164661190D01*
X70157047Y-164661190D02*
X69966571Y-164613571D01*
X69966571Y-164613571D02*
X69871333Y-164565952D01*
X69871333Y-164565952D02*
X69823714Y-164518333D01*
X69823714Y-164518333D02*
X69776095Y-164423095D01*
X69776095Y-164423095D02*
X69776095Y-164327857D01*
X69776095Y-164327857D02*
X69823714Y-164232619D01*
X69823714Y-164232619D02*
X69871333Y-164185000D01*
X69871333Y-164185000D02*
X69966571Y-164137380D01*
X69966571Y-164137380D02*
X70204666Y-164137380D01*
X70204666Y-164137380D02*
X70347523Y-164185000D01*
X71299904Y-165137380D02*
X70728476Y-165137380D01*
X71014190Y-165137380D02*
X71014190Y-164137380D01*
X71014190Y-164137380D02*
X70918952Y-164280238D01*
X70918952Y-164280238D02*
X70823714Y-164375476D01*
X70823714Y-164375476D02*
X70728476Y-164423095D01*
D12*
%TO.C,LS1*%
X115500000Y-171120000D02*
G75*
G03*
X115500000Y-171120000I-6100000J0D01*
G01*
%TO.C,C6*%
X88759420Y-146810000D02*
X89040580Y-146810000D01*
X88759420Y-147830000D02*
X89040580Y-147830000D01*
%TO.C,C4*%
X104830000Y-157504420D02*
X104830000Y-157785580D01*
X103810000Y-157504420D02*
X103810000Y-157785580D01*
%TO.C,J1*%
X54140000Y-138330000D02*
X57370000Y-138330000D01*
X49970000Y-138330000D02*
X51920000Y-138330000D01*
X59290000Y-139050000D02*
X59290000Y-140130000D01*
X59290000Y-140130000D02*
X59720000Y-140130000D01*
X59290000Y-144350000D02*
X59290000Y-145430000D01*
X54140000Y-146150000D02*
X57370000Y-146150000D01*
X49970000Y-146150000D02*
X49970000Y-138330000D01*
X49970000Y-146150000D02*
X51920000Y-146150000D01*
%TO.C,Y1*%
X95960000Y-166840000D02*
X95960000Y-170140000D01*
X95960000Y-170140000D02*
X99960000Y-170140000D01*
%TO.C,F1*%
X64653748Y-132910000D02*
X67426252Y-132910000D01*
X64653748Y-136330000D02*
X67426252Y-136330000D01*
%TO.C,R7*%
X111335436Y-144045000D02*
X111789564Y-144045000D01*
X111335436Y-145515000D02*
X111789564Y-145515000D01*
%TO.C,C10*%
X53850000Y-165734420D02*
X53850000Y-166015580D01*
X52830000Y-165734420D02*
X52830000Y-166015580D01*
%TO.C,R2*%
X68522500Y-173437742D02*
X68522500Y-173912258D01*
X67477500Y-173437742D02*
X67477500Y-173912258D01*
%TO.C,R11*%
X109707936Y-133885000D02*
X110162064Y-133885000D01*
X109707936Y-135355000D02*
X110162064Y-135355000D01*
%TO.C,U4*%
X90440000Y-129380000D02*
X92440000Y-129380000D01*
X72520000Y-129000000D02*
X123060000Y-129000000D01*
X72520000Y-129000000D02*
X72520000Y-109760000D01*
X123060000Y-129000000D02*
X123060000Y-109760000D01*
X123060000Y-109760000D02*
X72520000Y-109760000D01*
%TO.C,R1*%
X137682500Y-136097742D02*
X137682500Y-136572258D01*
X136637500Y-136097742D02*
X136637500Y-136572258D01*
%TO.C,C2*%
X93810000Y-167780580D02*
X93810000Y-167499420D01*
X94830000Y-167780580D02*
X94830000Y-167499420D01*
%TO.C,R16*%
X107110436Y-151015000D02*
X107564564Y-151015000D01*
X107110436Y-152485000D02*
X107564564Y-152485000D01*
%TO.C,C14*%
X86115580Y-155260000D02*
X85834420Y-155260000D01*
X86115580Y-154240000D02*
X85834420Y-154240000D01*
%TO.C,R3*%
X64762742Y-145477500D02*
X65237258Y-145477500D01*
X64762742Y-146522500D02*
X65237258Y-146522500D01*
%TO.C,R9*%
X109610436Y-138515000D02*
X110064564Y-138515000D01*
X109610436Y-139985000D02*
X110064564Y-139985000D01*
%TO.C,C15*%
X97435580Y-142750000D02*
X97154420Y-142750000D01*
X97435580Y-141730000D02*
X97154420Y-141730000D01*
%TO.C,J3*%
X87750000Y-180070000D02*
X98030000Y-180070000D01*
X87750000Y-180070000D02*
X87750000Y-177470000D01*
X98030000Y-180070000D02*
X98030000Y-174870000D01*
X87750000Y-177470000D02*
X90350000Y-177470000D01*
X90350000Y-177470000D02*
X90350000Y-174870000D01*
X87750000Y-176200000D02*
X87750000Y-174870000D01*
X87750000Y-174870000D02*
X89080000Y-174870000D01*
X90350000Y-174870000D02*
X98030000Y-174870000D01*
%TO.C,C9*%
X91692000Y-165088180D02*
X91692000Y-164807020D01*
X92712000Y-165088180D02*
X92712000Y-164807020D01*
%TO.C,C3*%
X86390580Y-150260000D02*
X86109420Y-150260000D01*
X86390580Y-149240000D02*
X86109420Y-149240000D01*
%TO.C,C5*%
X81598080Y-153077500D02*
X81316920Y-153077500D01*
X81598080Y-152057500D02*
X81316920Y-152057500D01*
%TO.C,C7*%
X99694420Y-146810000D02*
X99975580Y-146810000D01*
X99694420Y-147830000D02*
X99975580Y-147830000D01*
%TO.C,D2*%
X112615000Y-153980000D02*
X112615000Y-155900000D01*
X112615000Y-155900000D02*
X115300000Y-155900000D01*
X115300000Y-153980000D02*
X112615000Y-153980000D01*
D10*
%TO.C,U2*%
X89605000Y-149765000D02*
X89605000Y-150340000D01*
X89605000Y-149765000D02*
X90280000Y-149765000D01*
X89605000Y-150340000D02*
X88330000Y-150340000D01*
X89605000Y-160115000D02*
X89605000Y-159440000D01*
X89605000Y-160115000D02*
X90280000Y-160115000D01*
X99955000Y-149765000D02*
X99280000Y-149765000D01*
X99955000Y-149765000D02*
X99955000Y-150440000D01*
X99955000Y-160115000D02*
X99280000Y-160115000D01*
X99955000Y-160115000D02*
X99955000Y-159440000D01*
D12*
%TO.C,C1*%
X102155000Y-168138748D02*
X102155000Y-168661252D01*
X100685000Y-168138748D02*
X100685000Y-168661252D01*
D13*
%TO.C,S3*%
X118400000Y-152380000D02*
X118400000Y-152380000D01*
X118400000Y-152480000D02*
X118400000Y-152480000D01*
D14*
X121000000Y-148980000D02*
X133000000Y-148980000D01*
X121000000Y-151380000D02*
X121000000Y-148980000D01*
X121000000Y-151380000D02*
X121000000Y-151380000D01*
X121000000Y-153580000D02*
X121000000Y-156380000D01*
X121000000Y-158580000D02*
X121000000Y-160980000D01*
X121000000Y-160980000D02*
X133000000Y-160980000D01*
X133000000Y-148980000D02*
X133000000Y-151380000D01*
X133000000Y-153580000D02*
X133000000Y-156380000D01*
X133000000Y-160980000D02*
X133000000Y-158580000D01*
D13*
X118400000Y-152480000D02*
G75*
G03*
X118400000Y-152380000I0J50000D01*
G01*
X118400000Y-152380000D02*
G75*
G03*
X118400000Y-152480000I0J-50000D01*
G01*
%TO.C,S2*%
X118400000Y-134520000D02*
X118400000Y-134520000D01*
X118400000Y-134620000D02*
X118400000Y-134620000D01*
D14*
X121000000Y-131120000D02*
X133000000Y-131120000D01*
X121000000Y-133520000D02*
X121000000Y-131120000D01*
X121000000Y-133520000D02*
X121000000Y-133520000D01*
X121000000Y-135720000D02*
X121000000Y-138520000D01*
X121000000Y-140720000D02*
X121000000Y-143120000D01*
X121000000Y-143120000D02*
X133000000Y-143120000D01*
X133000000Y-131120000D02*
X133000000Y-133520000D01*
X133000000Y-135720000D02*
X133000000Y-138520000D01*
X133000000Y-143120000D02*
X133000000Y-140720000D01*
D13*
X118400000Y-134620000D02*
G75*
G03*
X118400000Y-134520000I0J50000D01*
G01*
X118400000Y-134520000D02*
G75*
G03*
X118400000Y-134620000I0J-50000D01*
G01*
D12*
%TO.C,U3*%
X59030000Y-161422500D02*
X59030000Y-159622500D01*
X59030000Y-161422500D02*
X59030000Y-162222500D01*
X55910000Y-161422500D02*
X55910000Y-160622500D01*
X55910000Y-161422500D02*
X55910000Y-162222500D01*
%TO.C,R5*%
X90377742Y-136637500D02*
X90852258Y-136637500D01*
X90377742Y-137682500D02*
X90852258Y-137682500D01*
%TO.C,U1*%
X72862500Y-142940000D02*
X71062500Y-142940000D01*
X72862500Y-142940000D02*
X73662500Y-142940000D01*
X72862500Y-146060000D02*
X72062500Y-146060000D01*
X72862500Y-146060000D02*
X73662500Y-146060000D01*
%TO.C,D3*%
X79700000Y-130395000D02*
X77780000Y-130395000D01*
X77780000Y-130395000D02*
X77780000Y-133080000D01*
X79700000Y-133080000D02*
X79700000Y-130395000D01*
%TO.C,R6*%
X111335436Y-146585000D02*
X111789564Y-146585000D01*
X111335436Y-148055000D02*
X111789564Y-148055000D01*
%TO.C,R17*%
X93245000Y-172947064D02*
X93245000Y-172492936D01*
X94715000Y-172947064D02*
X94715000Y-172492936D01*
%TO.C,R13*%
X79475000Y-160705436D02*
X79475000Y-161159564D01*
X78005000Y-160705436D02*
X78005000Y-161159564D01*
%TO.C,C11*%
X61470000Y-164959420D02*
X61470000Y-165240580D01*
X60450000Y-164959420D02*
X60450000Y-165240580D01*
%TO.C,R14*%
X78015000Y-136139564D02*
X78015000Y-135685436D01*
X79485000Y-136139564D02*
X79485000Y-135685436D01*
%TO.C,U5*%
X96520000Y-134425000D02*
X92920000Y-134425000D01*
X96520000Y-134425000D02*
X98720000Y-134425000D01*
X96520000Y-139895000D02*
X94320000Y-139895000D01*
X96520000Y-139895000D02*
X98720000Y-139895000D01*
%TO.C,C12*%
X52830000Y-158395580D02*
X52830000Y-158114420D01*
X53850000Y-158395580D02*
X53850000Y-158114420D01*
%TO.C,R12*%
X109707936Y-131345000D02*
X110162064Y-131345000D01*
X109707936Y-132815000D02*
X110162064Y-132815000D01*
%TO.C,R10*%
X109707936Y-136425000D02*
X110162064Y-136425000D01*
X109707936Y-137895000D02*
X110162064Y-137895000D01*
%TO.C,C8*%
X86390580Y-159260000D02*
X86109420Y-159260000D01*
X86390580Y-158240000D02*
X86109420Y-158240000D01*
%TO.C,D1*%
X111252500Y-150540000D02*
X111252500Y-152460000D01*
X111252500Y-152460000D02*
X113937500Y-152460000D01*
X113937500Y-150540000D02*
X111252500Y-150540000D01*
%TO.C,R15*%
X108610436Y-154515000D02*
X109064564Y-154515000D01*
X108610436Y-155985000D02*
X109064564Y-155985000D01*
%TO.C,R4*%
X64762742Y-141977500D02*
X65237258Y-141977500D01*
X64762742Y-143022500D02*
X65237258Y-143022500D01*
%TO.C,C13*%
X93470000Y-146685580D02*
X93470000Y-146404420D01*
X94490000Y-146685580D02*
X94490000Y-146404420D01*
%TO.C,J2*%
X82790000Y-174870000D02*
X75050000Y-174870000D01*
X82790000Y-174870000D02*
X82790000Y-177470000D01*
X75050000Y-174870000D02*
X75050000Y-180070000D01*
X82790000Y-177470000D02*
X80190000Y-177470000D01*
X80190000Y-177470000D02*
X80190000Y-180070000D01*
X82790000Y-178740000D02*
X82790000Y-180070000D01*
X82790000Y-180070000D02*
X81460000Y-180070000D01*
X80190000Y-180070000D02*
X75050000Y-180070000D01*
%TO.C,R8*%
X110620436Y-141505000D02*
X111074564Y-141505000D01*
X110620436Y-142975000D02*
X111074564Y-142975000D01*
D15*
%TO.C,S1*%
X68900000Y-167580000D02*
X68900000Y-169580000D01*
X69200000Y-170380000D02*
X69800000Y-170980000D01*
X69800000Y-166180000D02*
X69200000Y-166780000D01*
X69800000Y-170980000D02*
X72800000Y-170980000D01*
X72800000Y-166180000D02*
X69800000Y-166180000D01*
X72800000Y-166180000D02*
X73400000Y-166780000D01*
X72800000Y-170980000D02*
X73400000Y-170380000D01*
X73700000Y-167580000D02*
X73700000Y-169580000D01*
D14*
X67000000Y-166680000D02*
G75*
G03*
X67000000Y-166680000I-100000J0D01*
G01*
%TD*%
M02*
